<svg width="250" height="85" viewBox="0 0 250 85" fill="none" xmlns="http://www.w3.org/2000/svg">
<path d="M103 38.4824H147L125 0.482422L103 38.4824ZM127 32.4824H123V28.4824H127V32.4824ZM127 24.4824H123V16.4824H127V24.4824Z" fill="#D53636"/>
<path d="M63.049 77.4824L57.2223 57.1188H61.9254L65.2962 71.2679H65.4652L69.1839 57.1188H73.2109L76.9197 71.2978H77.0987L80.4695 57.1188H85.1726L79.3459 77.4824H75.1499L71.272 64.1685H71.1129L67.245 77.4824H63.049ZM88.9361 77.4824H84.3224L91.3523 57.1188H96.9006L103.92 77.4824H99.3068L94.206 61.7722H94.0469L88.9361 77.4824ZM88.6477 69.4782H99.5455V72.839H88.6477V69.4782ZM106.371 77.4824V57.1188H114.406C115.943 57.1188 117.256 57.3939 118.343 57.9441C119.437 58.4876 120.269 59.2599 120.839 60.2608C121.415 61.2551 121.704 62.4251 121.704 63.7708C121.704 65.123 121.412 66.2864 120.829 67.2608C120.246 68.2286 119.4 68.9711 118.293 69.4881C117.193 70.0051 115.861 70.2637 114.296 70.2637H108.917V66.8034H113.6C114.422 66.8034 115.105 66.6908 115.648 66.4654C116.192 66.24 116.596 65.9019 116.862 65.4512C117.133 65.0004 117.269 64.4403 117.269 63.7708C117.269 63.0946 117.133 62.5246 116.862 62.0605C116.596 61.5965 116.189 61.2452 115.638 61.0066C115.095 60.7613 114.409 60.6387 113.58 60.6387H110.677V77.4824H106.371ZM117.369 68.2154L122.43 77.4824H117.677L112.725 68.2154H117.369ZM141.779 57.1188V77.4824H138.06L129.201 64.6657H129.052V77.4824H124.746V57.1188H128.525L137.315 69.9256H137.494V57.1188H141.779ZM149.642 57.1188V77.4824H145.336V57.1188H149.642ZM170.217 57.1188V77.4824H166.498L157.638 64.6657H157.489V77.4824H153.184V57.1188H156.962L165.752 69.9256H165.931V57.1188H170.217ZM187.277 63.7012C187.137 63.2173 186.942 62.7897 186.69 62.4185C186.438 62.0407 186.13 61.7225 185.765 61.464C185.407 61.1988 184.996 60.9966 184.532 60.8574C184.075 60.7182 183.568 60.6486 183.011 60.6486C181.97 60.6486 181.056 60.9071 180.267 61.4242C179.484 61.9412 178.875 62.6936 178.437 63.6813C178 64.6623 177.781 65.8622 177.781 67.2807C177.781 68.6993 177.996 69.9057 178.427 70.9C178.858 71.8944 179.468 72.6533 180.257 73.177C181.046 73.6941 181.977 73.9526 183.051 73.9526C184.025 73.9526 184.857 73.7802 185.547 73.4355C186.243 73.0842 186.773 72.5904 187.137 71.954C187.509 71.3176 187.694 70.5653 187.694 69.6969L188.569 69.8262H183.319V66.5847H191.841V69.15C191.841 70.9398 191.463 72.4777 190.707 73.7637C189.951 75.043 188.911 76.0307 187.585 76.7267C186.259 77.4161 184.741 77.7608 183.031 77.7608C181.122 77.7608 179.445 77.3399 178 76.498C176.555 75.6496 175.428 74.4464 174.619 72.8887C173.817 71.3243 173.416 69.4682 173.416 67.3205C173.416 65.6699 173.654 64.1983 174.132 62.9057C174.616 61.6065 175.292 60.5061 176.16 59.6046C177.029 58.7031 178.039 58.017 179.193 57.5463C180.346 57.0757 181.596 56.8404 182.941 56.8404C184.095 56.8404 185.169 57.0094 186.163 57.3475C187.157 57.6789 188.039 58.1496 188.808 58.7594C189.583 59.3693 190.217 60.0951 190.707 60.937C191.198 61.7722 191.512 62.6936 191.652 63.7012H187.277Z" fill="#200249"/>
</svg>
