<svg width="95" height="46" viewBox="0 0 95 46" fill="none" xmlns="http://www.w3.org/2000/svg">
<g clip-path="url(#clip0_7_1752)">
<path d="M0.699116 17.5224L39.1967 35.5654L40.5522 37.2612L58.1418 36.9535V24.7656L3.30583 8.54407L0.294229 12.848L0.699116 17.5224Z" fill="black"/>
<path d="M58.7303 31.8075L52.5955 33.003C53.136 34.9926 53.2644 37.143 52.8595 39.1263C52.2532 42.1038 50.5961 43.9848 48.5904 44.3787L54.7232 43.1726C56.7288 42.7787 58.386 40.8966 58.9922 37.9201C59.3961 35.9401 59.2688 33.795 58.7303 31.8075Z" fill="#231F20"/>
<path d="M54.6063 25.449H54.6084C54.5834 25.432 54.5583 25.415 54.5333 25.399L48.4005 26.6051C49.2739 27.1789 50.0545 27.9731 50.7171 28.9152L56.804 27.6473C56.1706 26.7595 55.4307 26.0058 54.6063 25.4501V25.449Z" fill="#414042"/>
<path d="M56.804 27.6462L50.7171 28.9141C51.5446 30.0926 52.1874 31.502 52.5955 33.003L58.7303 31.8075C58.315 30.2757 57.6555 28.8385 56.804 27.6452V27.6462Z" fill="#231F20"/>
<path d="M48.4005 26.604C51.816 28.8449 53.8122 34.4508 52.8595 39.1263C51.9067 43.8007 48.3661 45.7733 44.9517 43.5324C41.5362 41.2916 39.54 35.6857 40.4927 31.0113C41.4454 26.3358 44.9861 24.3632 48.4005 26.604Z" fill="#414042"/>
<path d="M58.8232 32.161C58.8107 32.1099 58.7981 32.0588 58.7846 32.0077C58.6521 31.4892 58.4924 30.9814 58.3056 30.4886L52.1728 31.6947C52.3596 32.1876 52.5193 32.6954 52.6518 33.2138C52.6643 33.2649 52.6779 33.316 52.6904 33.3671C52.7781 33.728 52.8532 34.0931 52.9127 34.4614L59.0455 33.2553C58.9849 32.887 58.9108 32.5218 58.8232 32.162V32.161Z" fill="#231F20"/>
<path d="M50.8945 24.5516L44.7618 25.7577C45.9044 25.5331 47.1608 25.7907 48.4005 26.6051L54.5333 25.399C53.2936 24.5857 52.0372 24.327 50.8945 24.5516Z" fill="#231F20"/>
<path d="M58.9922 37.9201C59.01 37.8339 59.0246 37.7466 59.0402 37.6593L52.9075 38.8655C52.8918 38.9528 52.8772 39.04 52.8595 39.1263C52.2532 42.1038 50.5961 43.9848 48.5904 44.3787L54.7232 43.1726C56.7288 42.7787 58.386 40.8966 58.9922 37.9201Z" fill="black"/>
<path d="M48.1428 27.2353C51.4257 29.3889 53.3437 34.7776 52.4285 39.2711C51.5133 43.7634 48.1104 45.6594 44.8275 43.5058C41.5446 41.3522 39.6266 35.9635 40.5418 31.4711C41.4569 26.9777 44.8598 25.0817 48.1428 27.2353Z" fill="#231F20"/>
<path d="M47.764 27.9709C50.7745 29.9467 52.5349 34.8883 51.6949 39.0092C50.8549 43.13 47.7347 44.8684 44.7242 42.8937C41.7136 40.9179 39.9532 35.9763 40.7932 31.8554C41.6333 27.7346 44.7545 25.9951 47.765 27.9709H47.764Z" fill="#6D6E71"/>
<path d="M47.6262 28.6512C50.3623 30.4471 51.9621 34.9384 51.1992 38.6845C50.4364 42.4296 47.5991 44.0104 44.863 42.2145C42.1269 40.4186 40.5272 35.9273 41.29 32.1823C42.0528 28.4361 44.8901 26.8564 47.6262 28.6512Z" fill="black"/>
<path d="M43.6681 28.3733C42.9878 29.1653 42.465 30.2533 42.1905 31.6031C41.3515 35.724 43.1109 40.6656 46.1215 42.6414C46.2738 42.7415 46.4272 42.8256 46.5806 42.9075C46.0171 42.8171 45.438 42.5924 44.863 42.2156C42.1269 40.4197 40.5272 35.9284 41.29 32.1833C41.6656 30.3385 42.5464 29.0238 43.6681 28.3744V28.3733Z" fill="#A7A9AC"/>
<path d="M42.0277 32.788C41.747 36.0838 42.9523 39.6564 45.0237 41.7365C44.7075 41.7078 44.3882 41.6599 44.0678 41.5875C42.0465 39.7171 40.8548 36.3074 41.1439 33.1861C41.4173 33.0265 41.7178 32.8987 42.0288 32.788H42.0277Z" fill="#E6E7E8"/>
<path d="M45.4421 27.9273C48.0791 27.9826 50.7442 31.2923 51.2848 35.5515C51.8608 40.0929 49.7821 43.5345 46.7841 42.9906C43.9666 42.4796 41.6145 38.6302 41.3922 34.5881C41.1825 30.7728 42.9471 27.8751 45.4421 27.9273ZM41.7762 34.6254C41.7888 34.8479 41.8086 35.0682 41.8357 35.2875L42.4744 33.2617L43.0139 33.3053L42.3397 31.7234L42.9272 29.8722C42.1185 30.9655 41.6625 32.6506 41.7762 34.6264V34.6254ZM47.3518 39.6756L47.7441 40.5613L49.3658 40.8104L49.948 38.7622L49.0642 36.9014L48.1031 36.7917L47.9476 36.4564L47.3372 36.3893L46.8509 38.033L47.4426 39.3605L47.3507 39.6745L47.3518 39.6756ZM44.9026 30.7771L44.5677 30.05L43.1944 29.9893L42.6392 31.7426L43.3217 33.3309L44.1711 33.4001L44.3047 33.7056L44.8671 33.7535L45.3409 32.2089L44.815 31.0592L44.9026 30.7781V30.7771ZM47.0116 35.1353C46.9364 34.3539 46.4606 33.6928 45.9534 33.6513C45.4515 33.6098 45.0988 34.191 45.1625 34.9554C45.2261 35.7293 45.6905 36.4096 46.2049 36.467C46.7246 36.5256 47.0878 35.9262 47.0126 35.1353H47.0116ZM45.823 33.2596L45.5381 32.6368L45.2606 33.547C45.4129 33.3735 45.6049 33.2691 45.8241 33.2596H45.823ZM46.9636 34.108L47.1431 33.5076L46.4063 33.4491C46.6192 33.5981 46.8123 33.827 46.9636 34.108ZM47.2537 34.965C47.2641 35.0299 47.2735 35.0959 47.2798 35.1619C47.3069 35.4429 47.2902 35.7048 47.238 35.9369L47.7295 35.9891L47.2537 34.965ZM46.3385 36.8811L46.6401 37.5571L46.925 36.598C46.7663 36.7768 46.566 36.8801 46.3385 36.8811ZM45.1959 35.9763L45.0132 36.5788L45.7437 36.6629C45.5308 36.5022 45.3419 36.2626 45.1959 35.9763ZM44.9277 35.1236C44.9183 35.0597 44.911 34.9958 44.9058 34.9309C44.8838 34.6584 44.9037 34.4061 44.9558 34.1836L44.4977 34.1431L44.9277 35.1247V35.1236ZM45.751 31.9427L45.6633 32.2302L46.0161 32.9956L47.2693 33.0903L47.6085 31.9566L47.8453 31.9715L48.0645 31.2391L47.1264 29.341L45.6832 29.2899L45.2188 30.7951L45.752 31.9438L45.751 31.9427ZM48.0593 32.4101L47.7191 33.5534L47.4801 33.5342L47.2578 34.2794L48.076 36.0253L49.0318 36.1264L49.1925 36.4628L49.827 36.532L50.3947 34.5551L49.3616 32.4974L48.0593 32.409V32.4101ZM46.4199 38.2981L46.5107 37.9904L46.1402 37.1515L44.8838 37.0014L44.5322 38.1597L44.3016 38.1288L44.072 38.8836L44.9705 41.0627L46.5065 41.315L47.0022 39.6255L46.4189 38.2981H46.4199ZM44.1075 37.6636L44.4581 36.5149L44.6866 36.5416L44.912 35.7996L44.1784 34.1144L43.3248 34.0388L43.1954 33.7344L42.6528 33.6875L42.0841 35.4983L42.9001 37.5092L44.1075 37.6636ZM43.1537 29.5965L44.6897 29.6582L45.0247 30.381L45.488 28.8854L47.0022 28.9333C46.5128 28.6767 46.0056 28.5255 45.4943 28.5106C44.5739 28.4851 43.7746 28.8939 43.1537 29.5975V29.5965ZM47.3392 29.1249L48.4015 31.2572L48.1834 31.9928L49.4858 32.0747L50.5794 34.2379C50.0169 31.9257 48.7741 30.0425 47.3392 29.1249ZM50.8152 35.5058C50.7849 35.2598 50.7463 35.0182 50.7004 34.7787L50.0607 37.0153L49.4221 36.9429L50.3164 38.8112L49.6986 40.9924C50.6399 39.748 51.0949 37.7658 50.8152 35.5058ZM49.4336 41.3022L47.6126 41.0126L47.2203 40.1216L46.7225 41.8228L45.0905 41.547C45.6049 41.9164 46.1528 42.1741 46.7194 42.2731C47.7723 42.4562 48.7094 42.0814 49.4325 41.3022H49.4336ZM44.7471 41.2798L43.7485 38.8388L43.9781 38.0873L42.7707 37.9265L41.9119 35.7921C42.2886 38.0458 43.354 40.0971 44.7482 41.2809L44.7471 41.2798Z" fill="#D1D3D4"/>
<g style="mix-blend-mode:multiply">
<path d="M46.0474 34.3209C44.2786 33.6471 42.6382 33.4608 41.2493 33.6811C41.2597 33.3671 41.2795 33.0562 41.3192 32.7486C41.7637 29.358 43.977 27.4759 46.3928 28.27C48.9118 29.0983 51.0844 32.6368 51.1564 36.5171C51.1627 36.8716 51.146 37.2112 51.1178 37.5454C49.611 36.1445 47.8694 35.015 46.0463 34.3209H46.0474Z" fill="#D1D3D4"/>
</g>
<path d="M46.4074 28.0209C49.0318 28.8779 51.3119 32.5687 51.4017 36.6427C51.5029 41.2607 48.821 44.2212 45.5642 42.7415C42.4796 41.3395 40.5772 36.6661 41.1094 32.6975C41.5842 29.1589 43.8935 27.2002 46.4063 28.0209H46.4074ZM45.6018 42.0931C48.5925 43.4345 51.0677 40.7327 50.9989 36.4915C50.9373 32.7145 48.8315 29.2611 46.3823 28.4521C44.0313 27.675 41.8764 29.5177 41.4496 32.8306C40.9748 36.5171 42.7561 40.8157 45.6007 42.0921L45.6018 42.0931Z" fill="black"/>
<path d="M46.0985 34.2879C46.3876 34.4859 46.5493 34.9916 46.4606 35.4174C46.3709 35.8432 46.0641 36.0295 45.775 35.8315C45.486 35.6335 45.3242 35.1278 45.4129 34.702C45.5026 34.2751 45.8094 34.0899 46.0985 34.2879Z" fill="#E6E7E8"/>
<path d="M16.5418 16.1545L11.3649 17.1637C11.821 18.8435 11.9295 20.6575 11.5883 22.331C11.0759 24.8433 9.67861 26.4306 7.98602 26.7638L13.1608 25.7461C14.8534 25.4128 16.2517 23.8256 16.7631 21.3133C17.1033 19.643 16.9958 17.8322 16.5418 16.1545Z" fill="#231F20"/>
<path d="M13.0617 10.7881H13.0638C13.0429 10.7732 13.0221 10.7594 13.0001 10.7455L7.82532 11.7632C8.56309 12.2476 9.22155 12.9172 9.77984 13.7124L14.916 12.6426C14.3818 11.8931 13.7567 11.2576 13.0617 10.7881Z" fill="#414042"/>
<path d="M14.916 12.6426L9.77983 13.7124C10.4779 14.7067 11.0206 15.8969 11.3649 17.1637L16.5418 16.1545C16.1912 14.8622 15.635 13.6496 14.916 12.6426Z" fill="#231F20"/>
<path d="M7.82531 11.7632C10.7075 13.6539 12.3918 18.3847 11.5882 22.3299C10.7847 26.274 7.79714 27.939 4.91494 26.0484C2.03273 24.1577 0.348491 19.4269 1.152 15.4817C1.95551 11.5365 4.94311 9.87155 7.82531 11.7632Z" fill="#414042"/>
<path d="M16.6212 16.4526C16.6107 16.4089 16.6003 16.3663 16.5888 16.3227C16.4771 15.8852 16.3415 15.4562 16.185 15.041L11.0101 16.0587C11.1677 16.4739 11.3023 16.9029 11.414 17.3404C11.4255 17.383 11.4359 17.4266 11.4463 17.4703C11.5204 17.7747 11.583 18.0824 11.6342 18.3932L16.809 17.3755C16.7579 17.0647 16.6952 16.757 16.6212 16.4526Z" fill="#231F20"/>
<path d="M9.92906 10.0312L4.75423 11.0489C5.71845 10.8595 6.77866 11.0777 7.82532 11.7633L13.0001 10.7456C11.9535 10.0589 10.8943 9.84069 9.92906 10.0312Z" fill="#231F20"/>
<path d="M16.7631 21.3133C16.7777 21.2409 16.7902 21.1664 16.8038 21.0929L11.629 22.1106C11.6154 22.1841 11.6039 22.2575 11.5883 22.3299C11.0759 24.8422 9.67861 26.4295 7.98602 26.7627L13.1608 25.745C14.8534 25.4118 16.2517 23.8245 16.7631 21.3122V21.3133Z" fill="black"/>
<path d="M7.60722 12.2966C10.3767 14.1138 11.9963 18.6615 11.2241 22.4534C10.4519 26.2443 7.58009 27.8443 4.80954 26.0271C2.04004 24.2099 0.420494 19.6622 1.1927 15.8713C1.9649 12.0794 4.83668 10.4794 7.60722 12.2966Z" fill="#231F20"/>
<path d="M7.28791 12.9172C9.82888 14.5843 11.3138 18.7541 10.6053 22.233C9.8967 25.7098 7.26286 27.1779 4.72293 25.5108C2.183 23.8437 0.697032 19.6739 1.40558 16.196C2.11413 12.7182 4.74797 11.2502 7.28894 12.9172H7.28791Z" fill="#6D6E71"/>
<path d="M7.17104 13.491C9.48035 15.0058 10.8296 18.7967 10.1858 21.9573C9.54191 25.1179 7.14808 26.4518 4.83877 24.9359C2.52946 23.4211 1.18018 19.6302 1.82403 16.4696C2.46789 13.309 4.86173 11.9751 7.17104 13.4899V13.491Z" fill="black"/>
<path d="M3.83177 13.2557C3.25783 13.9243 2.81642 14.8419 2.58476 15.981C1.87621 19.4578 3.36114 23.6287 5.90211 25.2957C6.03151 25.3809 6.15986 25.4511 6.28926 25.5203C5.81341 25.4437 5.32505 25.2542 4.83981 24.9359C2.53049 23.4211 1.18122 19.6302 1.82507 16.4696C2.1423 14.9132 2.88529 13.8029 3.83177 13.2557Z" fill="#A7A9AC"/>
<path d="M2.44702 16.9816C2.21014 19.7622 3.22652 22.7781 4.97442 24.5335C4.70832 24.509 4.43805 24.4686 4.16778 24.4079C2.46267 22.8302 1.45671 19.9517 1.69985 17.318C1.93047 17.1839 2.18405 17.0753 2.44597 16.9816H2.44702Z" fill="#E6E7E8"/>
<path d="M5.32817 12.88C7.554 12.9268 9.80279 15.7202 10.2588 19.3141C10.7451 23.1464 8.99093 26.0505 6.46143 25.5917C4.08429 25.1605 2.09848 21.9116 1.91169 18.5008C1.73429 15.2816 3.22339 12.8353 5.32922 12.88H5.32817ZM2.23414 18.5327C2.24457 18.7201 2.26231 18.9063 2.28423 19.0916L2.82372 17.3819L3.2787 17.4192L2.70998 16.0842L3.20566 14.5215C2.52319 15.4434 2.13813 16.8667 2.23518 18.5327H2.23414ZM6.93832 22.7941L7.26912 23.5414L8.63718 23.7522L9.12867 22.0233L8.3836 20.4531L7.57278 20.3605L7.4413 20.0773L6.9258 20.0209L6.5157 21.408L7.0145 22.5279L6.93728 22.793L6.93832 22.7941ZM4.87111 15.2848L4.58832 14.6716L3.42896 14.6205L2.96042 16.1002L3.53645 17.4405L4.25335 17.499L4.36605 17.7566L4.84085 17.7971L5.24052 16.493L4.79598 15.5232L4.87006 15.2858L4.87111 15.2848ZM6.65031 18.9628C6.58665 18.3038 6.18594 17.7449 5.75706 17.7098C5.33339 17.6747 5.03599 18.1654 5.08921 18.8105C5.14347 19.4631 5.53479 20.038 5.96889 20.0859C6.40717 20.1348 6.71396 19.6292 6.65031 18.9617V18.9628ZM5.64749 17.3798L5.40748 16.855L5.17269 17.6225C5.30104 17.4756 5.46278 17.3883 5.64749 17.3798ZM6.61066 18.0952L6.76197 17.5884L6.14003 17.5384C6.32056 17.664 6.48335 17.8578 6.61066 18.0941V18.0952ZM6.85484 18.818C6.86423 18.8733 6.87154 18.9287 6.87676 18.9841C6.89972 19.2215 6.8851 19.4418 6.84128 19.6377L7.25556 19.6813L6.8538 18.8169L6.85484 18.818ZM6.08263 20.435L6.33725 21.0056L6.57727 20.1955C6.4437 20.3467 6.27464 20.4329 6.08263 20.435ZM5.11842 19.6718L4.96398 20.1806L5.5807 20.2519C5.40122 20.1167 5.24156 19.9145 5.11842 19.6718ZM4.89198 18.9521C4.88363 18.8989 4.87737 18.8446 4.8732 18.7892C4.85441 18.5593 4.87215 18.3464 4.91598 18.158L4.52884 18.1239L4.89198 18.9521ZM5.58696 16.2684L5.51288 16.5111L5.81028 17.1573L6.86736 17.2371L7.15329 16.2812L7.35365 16.294L7.53835 15.6755L6.74632 14.0733L5.52853 14.0297L5.13617 15.2997L5.58592 16.2695L5.58696 16.2684ZM7.53522 16.6623L7.24825 17.6278L7.04685 17.6119L6.85901 18.241L7.54878 19.7143L8.35542 19.7995L8.49108 20.0837L9.02641 20.1423L9.50539 18.4741L8.63404 16.7379L7.53522 16.6634V16.6623ZM6.15255 21.6316L6.22977 21.3718L5.91672 20.6639L4.8565 20.5372L4.56014 21.5145L4.36605 21.4889L4.17195 22.1255L4.92955 23.964L6.2256 24.1769L6.64405 22.7504L6.15151 21.6305L6.15255 21.6316ZM4.20117 21.0961L4.49649 20.1274L4.68954 20.1497L4.8805 19.5238L4.2617 18.1016L3.54167 18.0377L3.4321 17.7811L2.97399 17.7417L2.49397 19.2694L3.18269 20.9662L4.20222 21.0972L4.20117 21.0961ZM3.39661 14.2884L4.69267 14.3405L4.97546 14.9505L5.36678 13.688L6.64405 13.7284C6.23081 13.5123 5.80298 13.3835 5.37096 13.3718C4.59458 13.3505 3.91942 13.6954 3.39557 14.2894L3.39661 14.2884ZM6.92893 13.8913L7.82531 15.6904L7.64062 16.311L8.73944 16.3802L9.66295 18.2059C9.18815 16.2546 8.13942 14.6652 6.92893 13.8913ZM9.86227 19.2757C9.83722 19.0682 9.80383 18.8638 9.76522 18.6626L9.22572 20.55L8.68622 20.4883L9.44069 22.0649L8.91893 23.9054C9.71305 22.8558 10.0971 21.1823 9.86122 19.2757H9.86227ZM8.69666 24.1673L7.16059 23.9235L6.8298 23.1709L6.4103 24.607L5.03285 24.3738C5.46696 24.6858 5.92924 24.9029 6.40717 24.986C7.29625 25.1403 8.0862 24.8241 8.69666 24.1673ZM4.74171 24.1482L3.89959 22.0883L4.09368 21.4538L3.07417 21.3186L2.34892 19.5174C2.66615 21.4187 3.56567 23.1496 4.74171 24.1492V24.1482Z" fill="#D1D3D4"/>
<g style="mix-blend-mode:multiply">
<path d="M5.8395 18.2751C4.34727 17.7066 2.96252 17.549 1.79064 17.7353C1.79899 17.4703 1.81568 17.2084 1.85012 16.9476C2.22474 14.0861 4.09369 12.4978 6.13168 13.1684C8.25733 13.8668 10.0908 16.8528 10.1524 20.1284C10.1576 20.4276 10.143 20.7139 10.119 20.996C8.84693 19.8144 7.37765 18.8606 5.8395 18.2751Z" fill="#D1D3D4"/>
</g>
<path d="M6.14316 12.9587C8.35751 13.6826 10.2818 16.7964 10.3579 20.2338C10.4435 24.1311 8.18011 26.6286 5.43252 25.3809C2.82894 24.1982 1.22401 20.2541 1.67376 16.905C2.07447 13.919 4.02377 12.2657 6.14421 12.9587H6.14316ZM5.46278 24.8337C7.98602 25.9664 10.0751 23.6862 10.0178 20.1072C9.96558 16.9199 8.18846 14.0063 6.12229 13.3228C4.13856 12.6671 2.31971 14.2213 1.95969 17.0178C1.55898 20.1284 3.06164 23.7564 5.46278 24.8337Z" fill="black"/>
<path d="M5.88333 18.2474C6.12751 18.4145 6.26421 18.8414 6.18804 19.2012C6.1129 19.561 5.85307 19.7175 5.60993 19.5504C5.36574 19.3833 5.22904 18.9564 5.30522 18.5966C5.38035 18.2367 5.64019 18.0803 5.88333 18.2474Z" fill="#E6E7E8"/>
<path d="M40.1776 37.1079L12.8781 25.8727C13.0263 24.3494 13.3289 21.6795 13.3289 21.6795L12.2092 16.2578L9.22575 11.5376L5.0621 9.79066L2.60566 11.0788L1.07481 13.771L0.526962 16.9199L0.434094 16.5974C-0.300545 14.0382 -0.096018 11.2927 1.01116 8.87622L2.51383 5.59636C2.87906 4.79901 3.60326 4.23268 4.45373 4.08151L23.2538 0.734587C23.2538 0.734587 42.4848 -2.32811 61.5374 4.05277C60.7871 10.9691 77.7266 12.9194 77.7266 12.9194C77.7266 12.9194 81.6982 14.4821 85.9161 17.4724C90.133 20.4627 93.994 26.735 93.922 27.4642C93.85 28.1934 93.2782 30.9644 93.2782 30.9644L94.8455 34.3539C94.9885 34.6637 95.0334 35.0108 94.9729 35.3472H94.9739C91.8851 43.7092 70.3301 46.6079 66.1216 45.8957L54.9601 43.0289V36.1551L52.1739 28.6363L48.4225 25.2713L43.593 24.4728L41.0218 26.603L39.5901 29.5411V35.0672L40.1776 37.1069V37.1079Z" fill="#FFBF11"/>
<path opacity="0.4" d="M77.7266 12.9194C77.7266 12.9194 81.6982 14.4821 85.9161 17.4724C90.133 20.4627 93.994 26.735 93.922 27.4642C93.85 28.1934 93.2781 30.9644 93.2781 30.9644C93.2781 30.9644 93.2781 33.3437 92.6948 33.9122C93.0465 32.706 75.5967 12.5979 75.5967 12.5979C76.8886 12.8236 77.7255 12.9204 77.7255 12.9204L77.7266 12.9194Z" fill="white"/>
<g style="mix-blend-mode:multiply">
<path d="M2.51379 5.59742C2.70789 5.1748 3.00425 4.81924 3.3653 4.55417C7.97558 5.1567 11.7239 6.82378 11.7239 6.82378L13.2005 8.60582C15.2896 11.1267 17.816 13.2313 20.6554 14.8164C25.9878 17.7928 34.4935 22.4981 35.5151 22.7962C36.2654 23.0155 40.0638 21.7966 41.7241 21.3899C44.5186 20.7044 55.246 19.973 73.566 43.3611C76.0225 42.8203 91.597 39.2157 94.065 34.2464C94.065 34.2464 94.5377 34.5275 94.9916 34.9586C94.9989 35.0885 94.9958 35.2184 94.9728 35.3472C92.9526 40.8147 83.0402 43.9444 75.243 45.2591C75.1595 45.274 75.0771 45.2868 74.9936 45.3007C74.8433 45.3251 74.692 45.3507 74.5438 45.3741C74.4322 45.3922 74.3216 45.4082 74.2109 45.4252C74.0565 45.4486 73.9021 45.472 73.7497 45.4944C73.662 45.5072 73.5775 45.5178 73.4909 45.5306C72.918 45.6104 72.3618 45.6807 71.8275 45.7403C71.7378 45.7499 71.647 45.7605 71.5583 45.7701C71.5312 45.7733 71.502 45.7765 71.4748 45.7797C69.0445 46.0331 67.1046 46.0661 66.1184 45.8989L54.9569 43.0321V36.1583L52.1708 28.6395L48.4193 25.2745L43.5899 24.476L41.0186 26.6062L39.5869 29.5443V35.0704L40.1744 37.1101L12.8749 25.8749C13.0231 24.3515 13.3257 21.6816 13.3257 21.6816L12.206 16.2599L9.22258 11.5397L5.05894 9.79279L3.72115 10.4943C2.83937 9.20303 2.47831 7.60409 2.33952 5.97108L2.50962 5.59955L2.51379 5.59742ZM17.1481 26.751L39.2697 35.7453C39.1487 35.1076 21.8106 26.3209 21.8106 26.3209L16.3175 25.5257C16.3269 26.0675 16.6545 26.5508 17.1481 26.751Z" fill="#D1D3D4"/>
</g>
<g style="mix-blend-mode:multiply">
<path d="M15.9032 18.1441C23.5595 22.0031 27.6971 27.1715 39.5901 33.035V35.0683L40.1776 37.1079L12.878 25.8727C13.0262 24.3494 13.3288 21.6795 13.3288 21.6795C13.3288 21.6795 16.4479 20.6937 15.9032 18.1452V18.1441ZM17.1481 26.751L39.2697 35.7453C39.1487 35.1076 21.8106 26.3209 21.8106 26.3209L16.3175 25.5257C16.3269 26.0675 16.6545 26.5508 17.1481 26.751ZM94.065 34.2464C94.065 34.2464 94.5377 34.5275 94.9916 34.9586C94.9989 35.0885 94.9958 35.2184 94.9728 35.3472C92.9526 40.8147 83.0402 43.9444 75.243 45.2591C75.1595 45.274 75.0771 45.2868 74.9936 45.3006C74.8433 45.3251 74.692 45.3507 74.5438 45.3741C74.4322 45.3922 74.3216 45.4082 74.2109 45.4252C74.0565 45.4486 73.9021 45.472 73.7497 45.4944C73.662 45.5072 73.5775 45.5178 73.4909 45.5306C72.918 45.6104 72.3618 45.6807 71.8275 45.7403C71.7378 45.7499 71.647 45.7605 71.5583 45.7701C71.5312 45.7733 71.502 45.7765 71.4748 45.7797C69.0445 46.0331 67.1046 46.0661 66.1184 45.8989L54.9569 43.0321V39.253C61.4696 41.3948 67.5731 42.7362 73.2499 43.4313C73.8019 43.3153 91.4238 39.5617 94.0629 34.2496L94.065 34.2464Z" fill="#D1D3D4"/>
</g>
<g style="mix-blend-mode:multiply">
<path d="M1.01113 8.87727L2.34371 5.96893C2.4825 7.60194 2.84251 9.20089 3.72533 10.4922L2.60563 11.0787L1.07478 13.771L0.526937 16.9199L0.434069 16.5973C-0.300569 14.0382 -0.0960424 11.2927 1.01113 8.8762V8.87727Z" fill="#BCBEC0"/>
</g>
<path d="M82.0791 37.4794C81.958 37.4848 81.8359 37.4869 81.7149 37.4922C69.656 27.4876 49.419 20.6778 49.419 20.6778C49.419 20.6778 64.3966 10.7743 74.0482 11.6834C82.7417 12.5021 90.9417 29.8946 92.483 33.3384C92.0249 33.81 87.5503 37.2133 82.0791 37.4794Z" fill="#FFBF11"/>
<path d="M23.2538 0.734587C23.2538 0.734587 42.4848 -2.32811 61.5374 4.05277C61.505 4.35297 61.5082 4.64253 61.5384 4.92357C55.0665 7.49338 39.445 9.65866 39.445 9.65866C39.445 9.65866 34.4424 2.4847 20.1253 3.40978C14.3911 3.78025 12.0213 3.23626 11.222 2.87751L23.2527 0.734587H23.2538Z" fill="#FFBF11"/>
<path d="M55.8753 6.62365C41.963 1.23386 27.2087 1.00711 16.7725 1.88962L23.2538 0.735655C23.2538 0.735655 42.4848 -2.32704 61.5374 4.05384C61.505 4.35404 61.5082 4.64359 61.5384 4.92463C60.0389 5.51971 58.0479 6.0935 55.8753 6.62365Z" fill="url(#paint0_linear_7_1752)" fill-opacity="0.2"/>
<path d="M64.1587 14.6524C63.5034 14.4257 62.8648 14.2287 62.2334 14.0456C66.2186 12.4818 70.4939 11.3492 74.0482 11.6834C82.7417 12.5021 90.9417 29.8946 92.483 33.3384C92.2388 33.5896 90.852 34.6744 88.7816 35.6729C78.3412 21.4613 64.1587 14.6524 64.1587 14.6524Z" fill="url(#paint1_linear_7_1752)" fill-opacity="0.2"/>
<path d="M4.05508 4.65531C4.63423 4.38492 6.14003 3.84519 9.62226 3.38212C10.2265 3.30121 10.8432 3.33847 11.4359 3.48218C14.6134 4.25185 16.2737 3.63335 21.9045 3.63335C21.9045 3.63335 16.0931 3.93142 11.6926 6.81101C11.3994 6.68327 8.14463 5.29191 4.05508 4.65531Z" fill="url(#paint2_linear_7_1752)" fill-opacity="0.2"/>
<path d="M39.5901 32.1237C39.0913 31.4254 38.678 30.6845 38.3619 29.9084C38.9431 23.8373 42.393 21.8541 48.0979 23.3199C53.6546 24.7475 58.3922 29.4943 60.6379 36.582C58.9317 37.3836 57.0116 37.9287 54.9611 38.1522V36.1551L52.1749 28.6363L48.4235 25.2712L43.5941 24.4728L41.0228 26.603L39.5911 29.5411V32.1226L39.5901 32.1237Z" fill="url(#paint3_linear_7_1752)" fill-opacity="0.2"/>
<path d="M7.91193 8.78893C11.9399 9.87902 16.8695 14.2724 20.0397 20.3786C18.1269 21.4123 15.7999 22.0329 13.284 22.068C13.3111 21.8275 13.3278 21.6784 13.3278 21.6784L12.2081 16.2567L9.22468 11.5365L5.06103 9.7896L2.60459 11.0777L2.67033 10.8999C3.22966 9.39252 4.67806 8.37908 6.25482 8.49511C6.78284 8.53344 7.33591 8.63137 7.91193 8.7868V8.78893Z" fill="url(#paint4_linear_7_1752)" fill-opacity="0.2"/>
<path style="mix-blend-mode:multiply" opacity="0.4" d="M24.1564 25.2766L38.2335 34.2081C38.774 34.5509 39.1497 35.1087 39.2708 35.7453C39.1497 35.1076 21.8116 26.3209 21.8116 26.3209L16.3185 25.5257L16.2799 23.3732C19.0317 23.1177 21.7981 23.7798 24.1564 25.2766Z" fill="url(#paint5_linear_7_1752)"/>
<path opacity="0.3" d="M21.8106 26.3209C21.8106 26.3209 39.1487 35.1076 39.2697 35.7453L17.1481 26.751C16.6545 26.5508 16.3269 26.0675 16.3175 25.5257L21.8106 26.3209Z" fill="white"/>
<path d="M21.8106 26.3209L16.3644 16.8475C16.089 16.3536 15.5975 16.0257 15.0444 15.9661C16.2789 21.111 16.3175 25.5267 16.3175 25.5267C16.3175 25.5267 18.1009 27.3407 21.8106 26.3219V26.3209Z" fill="black"/>
<path d="M35.5151 22.7962C34.4935 22.4981 25.9878 17.7939 20.6554 14.8164C19.4053 14.1191 18.2209 13.3143 17.1022 12.4243C33.3592 19.973 33.3592 17.4341 39.5588 21.9797C37.8818 22.446 36.0171 22.9431 35.5151 22.7962Z" fill="url(#paint6_linear_7_1752)" fill-opacity="0.2"/>
<path d="M44.8703 23.8171C50.9978 23.8171 55.8293 30.2821 55.8293 41.2032V43.2514L54.4832 42.9054V40.5656C54.4832 30.8409 49.9491 24.8614 44.3558 24.8614C41.842 24.8614 39.804 27.9241 39.804 31.4254V32.6124C39.804 34.1932 40.0565 35.7634 40.5522 37.2612L39.6777 36.9014L39.5076 36.0721C39.2113 34.6243 39.0746 33.1478 39.1017 31.6692L39.1194 30.6834C39.1194 27.3503 41.1752 23.816 44.8692 23.816L44.8703 23.8171ZM4.58519 9.45001C9.76209 9.45001 14.9839 15.4381 13.4092 26.0899L12.4596 25.6992C12.8634 23.5882 12.9135 21.4134 12.5285 19.2981C11.4985 13.6411 8.38047 10.3155 4.95146 10.3155C2.18405 10.3155 0.699119 14.5854 0.699119 17.5214L0.434067 16.5963C0.667816 13.2632 1.89812 9.54901 4.58623 9.44894L4.58519 9.45001Z" fill="#FFBF11"/>
<path d="M37.6356 0.382216L37.2568 0.67603C37.1138 0.786742 36.9468 0.858067 36.7694 0.88468L26.4949 2.39527C26.3624 2.41443 26.232 2.42401 26.0974 2.42188C25.5547 2.41549 24.0124 2.41656 23.3122 2.5954C22.7424 2.74124 21.7302 2.99354 21.1156 3.14684C20.7702 3.23306 20.4164 3.26926 20.0606 3.25542L13.6325 3.02335C14.8524 2.55921 27.2244 -0.143669 37.6345 0.382216H37.6356Z" fill="#231F20"/>
<path d="M77.7266 12.9194C77.7266 12.9194 77.2413 14.5066 74.9216 16.7666L63.3604 20.2935C59.4796 20.7768 52.0914 20.7672 49.7007 20.7384C49.4837 20.7363 49.2781 20.6352 49.1372 20.467C41.4058 11.2619 39.4461 9.65866 39.4461 9.65866C39.2436 9.43404 39.3365 9.0689 39.6193 8.9699C51.8723 4.6766 60.2079 4.11665 61.5374 4.05277C61.6616 4.04639 69.3294 7.75419 77.7266 12.9194Z" fill="black"/>
<path d="M74.6701 13.1472C72.1145 14.2628 65.0655 16.9252 50.7088 19.7388C49.9637 19.8847 49.1957 19.6153 48.6958 19.033C41.147 10.2346 39.5671 9.30204 39.8405 9.20623C52.0935 4.91292 60.2674 4.37107 61.5979 4.3072C61.7169 4.30187 66.9501 7.16337 74.7484 11.9293C75.219 12.2168 75.1752 12.9268 74.6711 13.1461L74.6701 13.1472Z" fill="#384D52"/>
<path d="M66.6851 11.5365L54.7242 7.79677L53.6265 6.62258L58.1418 5.36536C58.1418 5.36536 68.6865 9.05294 66.6851 11.5365Z" fill="#607175"/>
<path d="M52.1541 5.42284C57.379 4.31252 60.7349 4.0911 61.5374 4.05277C61.6616 4.04639 69.3294 7.75419 77.7266 12.9194C77.7266 12.9194 77.2413 14.5066 74.9216 16.7666L70.2988 18.1771C66.4659 12.914 60.5001 8.05759 52.1541 5.42284Z" fill="url(#paint7_linear_7_1752)" fill-opacity="0.2"/>
<path d="M74.6701 13.1472C73.9887 13.4442 72.9848 13.853 71.6115 14.3437C62.9201 12.5116 52.6675 11.3662 41.6197 11.1533C40.0784 9.55008 39.6934 9.2584 39.8395 9.2073C52.0925 4.91399 60.2664 4.37214 61.5969 4.30933C61.7158 4.30401 66.9491 7.1655 74.7473 11.9315C75.2179 12.2189 75.1741 12.9289 74.6701 13.1482V13.1472Z" fill="url(#paint8_linear_7_1752)" fill-opacity="0.2"/>
<path d="M13.6878 7.67435C13.5647 7.47741 13.6607 7.21553 13.8809 7.14953C13.8809 7.14953 19.7058 5.06622 22.1643 4.37427C22.5108 4.27633 31.0269 4.30827 37.6001 9.30523C39.9417 11.0852 43.0368 14.7163 46.3156 19.5291C46.3949 19.6462 46.4095 19.7963 46.3542 19.9262C46.2989 20.0561 46.1809 20.1476 46.0432 20.1678L40.6409 20.9481C40.6221 20.9513 40.6033 20.9524 40.5845 20.9524C40.5292 20.9524 40.4739 20.9407 40.4228 20.9173C39.7038 20.5937 23.355 13.3303 19.9583 7.65413C19.7319 7.27515 19.3166 7.06011 18.8866 7.12931C17.7993 7.30283 16.0493 7.82019 14.8889 8.14595C14.4308 8.27476 13.9456 8.0842 13.6899 7.67542L13.6878 7.67435Z" fill="black"/>
<path d="M37.3601 9.6331C38.4745 10.4805 39.9063 11.8772 41.603 13.903L39.3615 19.973C36.639 18.6828 29.9375 15.3721 25.1154 11.8953L29.0912 5.75284C31.7167 6.4416 34.7106 7.61898 37.3601 9.6331Z" fill="#384D52"/>
<path d="M20.4644 7.56045L21.006 6.82804C21.9974 5.48884 23.6127 4.79476 25.2438 5.00661C26.1339 5.12158 27.1722 5.2951 28.2971 5.55804L24.5049 11.446C22.7497 10.1303 21.2951 8.80277 20.4634 7.56151L20.4644 7.56045Z" fill="#384D52"/>
<path d="M37.3601 9.63311C38.4745 10.4805 39.9063 11.8772 41.603 13.903L40.2663 17.5224C36.9322 14.2138 32.5108 11.1224 27.2984 8.52173L29.0902 5.75285C31.7157 6.44161 34.7095 7.61899 37.359 9.63311H37.3601ZM25.2448 5.0066C26.1349 5.12157 27.1732 5.2951 28.2981 5.55804L26.6076 8.18214C25.0497 7.42738 23.4228 6.71733 21.7375 6.05731C22.7028 5.23761 23.9665 4.8416 25.2438 5.0066H25.2448Z" fill="url(#paint9_linear_7_1752)" fill-opacity="0.2"/>
<g style="mix-blend-mode:multiply">
<path d="M37.0397 20.9514C37.0397 20.9514 37.2067 21.3101 37.0397 21.555C36.8727 21.7998 35.2595 22.7004 35.2595 22.7004C35.2595 22.7004 34.4413 24.3153 33.9415 24.5591C33.4417 24.8029 31.7532 23.8906 31.7532 23.8906L33.0242 21.589C33.0242 21.589 35.4348 20.3286 35.8407 20.4052C36.2477 20.4819 36.9677 20.6022 37.0397 20.9524V20.9514Z" fill="#939598"/>
</g>
<path d="M38.3347 18.1771L37.4279 20.5425C37.4279 20.5425 36.8727 21.8796 35.9085 21.4815C34.9433 21.0833 35.3429 20.4744 35.3429 20.4744L36.8258 17.9121C36.8258 17.9121 38.3712 17.7322 38.3347 18.1771Z" fill="#FFBF11"/>
<g style="mix-blend-mode:multiply">
<path d="M35.3419 20.4744L36.8247 17.9121C36.8247 17.9121 38.3702 17.7322 38.3337 18.1771L37.9434 19.1959C36.4313 19.3811 35.9795 20.0252 35.4264 21.1706C35.1123 20.8268 35.3409 20.4744 35.3409 20.4744H35.3419Z" fill="#A7A9AC"/>
</g>
<path d="M38.3139 18.9287C38.3139 18.9287 32.3407 19.3705 32.1466 19.3024C31.9526 19.2342 30.6617 17.4682 30.6617 17.4682C30.6617 17.4682 30.9518 16.2461 31.4371 16.1098C31.9212 15.9735 35.8282 15.7361 35.8282 15.7361C35.8282 15.7361 39.9616 17.7396 38.3149 18.9287H38.3139Z" fill="#FFBF11"/>
<g style="mix-blend-mode:multiply">
<path d="M38.3483 18.5891C38.4412 18.5891 38.533 18.5881 38.6259 18.587C38.5643 18.7062 38.4631 18.8212 38.3139 18.9287C38.3139 18.9287 32.3407 19.3705 32.1466 19.3024C31.9526 19.2342 30.6617 17.4682 30.6617 17.4682C30.6617 17.4682 30.7233 17.2116 30.836 16.921C32.2124 17.91 35.0591 18.5891 38.3493 18.5891H38.3483Z" fill="#BCBEC0"/>
</g>
<g style="mix-blend-mode:multiply">
<path d="M31.4057 16.1226C32.8938 16.9912 32.9815 17.7918 32.7456 18.8095C32.7018 19 32.5327 19.1746 32.2698 19.3087C32.204 19.3087 32.1592 19.3066 32.1456 19.3024C31.9515 19.2342 30.6607 17.4681 30.6607 17.4681C30.6607 17.4681 30.9393 16.2993 31.4057 16.1226Z" fill="#D1D3D4"/>
</g>
<path opacity="0.8" d="M32.1853 16.6825C32.8896 16.7592 34.1304 17.0487 35.5256 17.4799C36.7538 17.8599 37.8276 18.2655 38.4975 18.587C38.4474 18.587 38.3984 18.5881 38.3483 18.5881C37.2839 18.5881 36.2665 18.5157 35.3294 18.3869C35.3116 18.3815 35.2939 18.3762 35.2762 18.3709C34.2859 18.0643 33.3989 17.7417 32.7394 17.4596C32.6413 17.1956 32.466 16.9391 32.1853 16.6825Z" fill="white"/>
<path d="M73.3333 32.475L60.1255 28.6363C60.1255 28.6363 63.062 30.7728 65.3995 33.1648C65.869 33.6449 66.4837 33.9473 67.1453 34.0058L71.7441 34.4167C72.1197 34.4561 72.4787 34.2539 72.6446 33.9079L73.3333 32.475Z" fill="black"/>
<path d="M64.0366 30.6248L63.2216 29.5369L63.8665 29.7242L64.3549 30.3757C65.3515 31.7053 66.8583 32.5751 68.4893 32.7603L69.7217 32.9008C70.112 32.9445 70.495 32.756 70.7026 32.4197L71.0741 31.8192L71.4759 31.9363L71.0418 32.6379C70.7798 33.0605 70.3176 33.316 69.8323 33.316C69.7812 33.316 69.729 33.3128 69.6768 33.3075L68.4444 33.167C66.7049 32.969 65.0979 32.0428 64.0356 30.6248H64.0366Z" fill="white"/>
<path d="M90.5462 26.2368L89.5611 24.8752L87.9531 19.6238L90.2144 22.7121C90.8259 23.6148 91.1201 25.0818 90.9031 26.1569C90.8687 26.3294 90.6495 26.3784 90.5473 26.2368H90.5462Z" fill="black"/>
<path d="M88.5374 21.5315L88.3141 20.8012C88.7242 21.2558 89.8731 22.5982 89.9973 23.5041C90.0735 24.063 90.109 24.41 90.1246 24.6017C90.134 24.7102 90.0787 24.8135 89.9848 24.8646C89.9451 24.8859 89.9013 24.8965 89.8585 24.8965C89.798 24.8965 89.7385 24.8763 89.6895 24.8359L89.5048 24.6847L89.3503 24.1812L89.821 24.574C89.8032 24.377 89.7688 24.0492 89.6999 23.5456C89.6196 22.9559 89.0143 22.1149 88.5385 21.5294L88.5374 21.5315Z" fill="white"/>
<path d="M67.09 37.9414C70.6171 37.0419 76.5745 38.0628 82.0791 37.7956C87.5837 37.5284 92.0823 34.0825 92.4924 33.6449C92.9035 33.2074 93.2792 30.9644 93.2792 30.9644L94.281 33.6151C94.3999 33.9302 94.4594 34.2688 94.4229 34.6041C93.826 40.0982 80.8905 44.9217 67.785 45.5678C65.7824 45.6668 61.0355 43.46 60.5346 42.5605C60.0337 41.661 63.5618 38.841 67.0889 37.9414H67.09Z" fill="#FFBF11"/>
<g style="mix-blend-mode:multiply">
<path d="M67.09 37.9414C70.6171 37.0419 76.5745 38.0628 82.0791 37.7956C87.5837 37.5284 92.0823 34.0825 92.4924 33.6449C92.9035 33.2074 93.2792 30.9644 93.2792 30.9644L94.281 33.6151C94.3999 33.9302 94.4594 34.2688 94.4229 34.6041C93.826 40.0982 80.8905 44.9217 67.785 45.5678C65.7824 45.6668 61.0355 43.46 60.5346 42.5605C60.0337 41.661 63.5618 38.841 67.0889 37.9414H67.09Z" fill="#808285"/>
</g>
<path d="M93.2792 30.9644L94.281 33.6151C94.3989 33.927 94.4594 34.2613 94.4239 34.5934C94.3008 35.757 93.6204 36.8897 92.5049 37.9595L92.7397 33.8898C92.7679 33.4065 92.8388 32.9253 92.9609 32.4569C93.1498 31.732 93.2782 30.9644 93.2782 30.9644H93.2792Z" fill="#414042"/>
<g style="mix-blend-mode:multiply">
<path d="M82.0979 37.7945C87.1496 37.5422 91.3466 34.619 92.3119 33.8089L91.9936 38.4215C90.0735 40.0503 87.1412 41.5162 83.6287 42.6946L82.0979 37.7956V37.7945Z" fill="black"/>
</g>
<g style="mix-blend-mode:multiply">
<path d="M67.09 38.4577C69.7802 37.7722 73.8833 38.2012 78.121 38.3247C79.6446 38.3694 81.0074 38.7867 81.6179 40.2121L82.796 42.964C78.3579 44.3606 73.0881 45.306 67.787 45.5678C65.7845 45.6668 61.5885 43.4324 61.0876 42.5328C60.5867 41.6333 63.5639 39.3573 67.091 38.4577H67.09Z" fill="black"/>
</g>
<path d="M82.7949 42.964C78.3569 44.3606 73.0871 45.306 67.786 45.5678C65.7835 45.6668 61.0365 43.46 60.5356 42.5605C76.6215 41.7355 82.7949 42.964 82.7949 42.964Z" fill="#414042"/>
<path style="mix-blend-mode:multiply" opacity="0.4" d="M82.7949 42.964C78.3569 44.3606 73.0871 45.306 67.786 45.5678C65.7835 45.6668 61.0365 43.46 60.5356 42.5605C76.6215 41.7355 82.7949 42.964 82.7949 42.964Z" fill="url(#paint10_linear_7_1752)"/>
<g style="mix-blend-mode:multiply">
<path d="M93.2792 30.9644C93.2792 30.9644 93.9241 32.6688 92.5059 37.9595L92.7407 33.8898C92.7689 33.4065 92.8399 32.9253 92.962 32.4569C93.1508 31.732 93.2792 30.9644 93.2792 30.9644Z" fill="black"/>
</g>
</g>
<defs>
<linearGradient id="paint0_linear_7_1752" x1="40.9456" y1="-2.64959" x2="39.0678" y2="3.45615" gradientUnits="userSpaceOnUse">
<stop stop-color="white"/>
<stop offset="1" stop-color="white"/>
</linearGradient>
<linearGradient id="paint1_linear_7_1752" x1="84.4281" y1="14.5055" x2="75.1479" y2="26.0921" gradientUnits="userSpaceOnUse">
<stop stop-color="white" stop-opacity="0.24"/>
<stop offset="1" stop-color="white"/>
</linearGradient>
<linearGradient id="paint2_linear_7_1752" x1="12.9803" y1="6.81101" x2="12.9803" y2="3.3406" gradientUnits="userSpaceOnUse">
<stop stop-color="white"/>
<stop offset="1" stop-color="white"/>
</linearGradient>
<linearGradient id="paint3_linear_7_1752" x1="48.9703" y1="33.4736" x2="52.908" y2="25.5128" gradientUnits="userSpaceOnUse">
<stop stop-color="white"/>
<stop offset="0.89" stop-color="white"/>
<stop offset="1" stop-color="white"/>
</linearGradient>
<linearGradient id="paint4_linear_7_1752" x1="10.335" y1="17.5629" x2="13.9482" y2="10.9129" gradientUnits="userSpaceOnUse">
<stop offset="0.27" stop-color="white"/>
<stop offset="1" stop-color="white"/>
</linearGradient>
<linearGradient id="paint5_linear_7_1752" x1="29.6766" y1="26.4422" x2="26.3393" y2="31.6999" gradientUnits="userSpaceOnUse">
<stop/>
<stop offset="1"/>
</linearGradient>
<linearGradient id="paint6_linear_7_1752" x1="28.3305" y1="22.8228" x2="28.3305" y2="12.4243" gradientUnits="userSpaceOnUse">
<stop stop-color="white"/>
<stop offset="1" stop-color="white"/>
</linearGradient>
<linearGradient id="paint7_linear_7_1752" x1="69.8991" y1="2.93713" x2="58.3956" y2="17.3733" gradientUnits="userSpaceOnUse">
<stop stop-color="white"/>
<stop offset="1" stop-color="white"/>
</linearGradient>
<linearGradient id="paint8_linear_7_1752" x1="56.6558" y1="17.5139" x2="57.9441" y2="7.11524" gradientUnits="userSpaceOnUse">
<stop stop-color="white"/>
<stop offset="1" stop-color="white"/>
</linearGradient>
<linearGradient id="paint9_linear_7_1752" x1="30.1399" y1="13.3069" x2="32.9876" y2="8.49439" gradientUnits="userSpaceOnUse">
<stop stop-color="white"/>
<stop offset="1" stop-color="white"/>
</linearGradient>
<linearGradient id="paint10_linear_7_1752" x1="71.6908" y1="42.1326" x2="71.5421" y2="45.6325" gradientUnits="userSpaceOnUse">
<stop/>
<stop offset="1"/>
</linearGradient>
<clipPath id="clip0_7_1752">
<rect width="95" height="46" fill="white" transform="matrix(-1 0 0 1 95 0)"/>
</clipPath>
</defs>
</svg>
