<svg width="29" height="29" viewBox="0 0 29 29" fill="none" xmlns="http://www.w3.org/2000/svg">
<path d="M4.30149 12.0196C4.30241 12.013 4.30332 12.0064 4.30423 11.9998C3.90186 14.2553 3.59641 15.9142 4.64918 18.1968C6.28781 21.7469 10.1831 23.8495 14.0059 23.9854C17.5581 24.1429 21.3789 22.5245 23.0958 19.2882C23.3949 18.7262 23.626 18.1271 23.774 17.5081C23.8833 17.1135 24.0904 15.6176 24.17 15.2012C24.1698 15.2029 24.1698 15.2029 24.1695 15.2045L4.30149 12.0196Z" fill="#FBAC34"/>
<path d="M23.5344 10.7848C25.6043 15.2793 23.1204 20.1842 17.985 21.7385C12.8503 23.2938 7.00906 20.9108 4.93919 16.4162C2.86932 11.9217 5.35489 7.01706 10.4896 5.46176C15.6243 3.90646 21.4645 6.29026 23.5344 10.7848Z" fill="url(#paint0_linear_3_365)"/>
<path d="M20.8379 11.6015C19.3675 8.41017 15.2217 6.71895 11.5747 7.82287C7.92944 8.92702 6.16502 12.4092 7.63543 15.6005C9.10585 18.7919 13.2517 20.4831 16.8977 19.3799C20.5432 18.2741 22.3067 14.7926 20.8379 11.6015Z" fill="url(#paint1_linear_3_365)"/>
<defs>
<linearGradient id="paint0_linear_3_365" x1="4.46282" y1="15.2809" x2="24.0129" y2="11.9333" gradientUnits="userSpaceOnUse">
<stop offset="8e-08" stop-color="#FDC16E"/>
<stop offset="0.385" stop-color="#FFD862"/>
<stop offset="0.7703" stop-color="#FFEA54"/>
<stop offset="1" stop-color="#FFF34D"/>
</linearGradient>
<linearGradient id="paint1_linear_3_365" x1="7.29702" y1="14.7937" x2="21.1773" y2="12.417" gradientUnits="userSpaceOnUse">
<stop stop-color="#FFDBAC"/>
<stop offset="0.0476" stop-color="#FFDDAE"/>
<stop offset="0.6446" stop-color="#FFF1CA"/>
<stop offset="1" stop-color="#FFFCD5"/>
</linearGradient>
</defs>
</svg>
