<svg width="46" height="40" viewBox="0 0 46 40" fill="none" xmlns="http://www.w3.org/2000/svg">
<path d="M5.54286 2.26335C5.5459 2.2588 5.54894 2.25425 5.55198 2.25122L1.00049 8.30227C0.277839 9.26401 -0.0758938 10.5291 0.0136791 12.0916C0.415996 16.8183 3.66186 21.1644 6.70882 24.6321C12.4354 30.8727 19.7302 36.0379 27.7795 38.7851C31.1756 39.8363 35.3066 40.754 38.6299 39.0702C39.2326 38.7335 39.7761 38.289 40.1921 37.7369L44.7435 31.6858C44.742 31.6873 44.7405 31.6888 44.7405 31.6903L5.54286 2.26335Z" fill="#FBAC34"/>
<path d="M24.4093 3.98807C35.7773 10.0224 45.3236 20.7274 45.7304 27.8965C46.1388 35.0655 37.253 35.9848 25.8849 29.9504C14.5169 23.916 4.97213 13.211 4.56526 6.042C4.15687 -1.12855 13.0412 -2.04781 24.4093 3.98807Z" fill="url(#paint0_linear_1512_20689)"/>
<path d="M24.6233 7.75299C16.5512 3.46765 10.2432 4.11994 10.5331 9.21077C10.8231 14.3001 17.6002 21.8999 25.6708 26.1853C33.7429 30.4706 40.0509 29.8183 39.761 24.729C39.4725 19.6367 32.6954 12.0383 24.6233 7.75299Z" fill="url(#paint1_linear_1512_20689)"/>
<defs>
<linearGradient id="paint0_linear_1512_20689" x1="19.6934" y1="26.4152" x2="30.5887" y2="7.51416" gradientUnits="userSpaceOnUse">
<stop offset="8e-08" stop-color="#FDC16E"/>
<stop offset="0.385" stop-color="#FFD862"/>
<stop offset="0.7703" stop-color="#FFEA54"/>
<stop offset="1" stop-color="#FFF34D"/>
</linearGradient>
<linearGradient id="paint1_linear_1512_20689" x1="16.7419" y1="21.8216" x2="33.5473" y2="12.1037" gradientUnits="userSpaceOnUse">
<stop stop-color="#FFDBAC"/>
<stop offset="0.0476" stop-color="#FFDDAE"/>
<stop offset="0.6446" stop-color="#FFF1CA"/>
<stop offset="1" stop-color="#FFFCD5"/>
</linearGradient>
</defs>
</svg>
