<svg width="293" height="331" viewBox="0 0 293 331" fill="none" xmlns="http://www.w3.org/2000/svg">
<path d="M147 266.5C188.421 266.5 222 232.921 222 191.5C222 150.079 188.421 116.5 147 116.5C105.579 116.5 72 150.079 72 191.5C72 232.921 105.579 266.5 147 266.5Z" fill="url(#paint0_linear_12_815)"/>
<path d="M147 264.537C187.337 264.537 220.037 231.837 220.037 191.5C220.037 151.163 187.337 118.463 147 118.463C106.663 118.463 73.9628 151.163 73.9628 191.5C73.9628 231.837 106.663 264.537 147 264.537Z" fill="url(#paint1_linear_12_815)"/>
<path style="mix-blend-mode:multiply" d="M190.491 148.009C179.361 136.878 163.985 129.995 147.001 129.995C130.017 129.995 114.64 136.879 103.51 148.01C92.3799 159.14 85.4956 174.516 85.4956 191.5C85.4956 208.484 92.3799 223.861 103.51 234.99C114.641 246.121 130.017 253.005 147.001 253.005C163.985 253.005 179.362 246.121 190.491 234.99C201.622 223.86 208.505 208.484 208.505 191.5C208.505 174.516 201.621 159.139 190.491 148.01V148.009Z" fill="url(#paint2_linear_12_815)"/>
<path d="M147 133.923V132.505C130.709 132.505 115.96 139.109 105.285 149.785L106.288 150.788C116.707 140.368 131.102 133.924 147.001 133.924L147 133.923Z" fill="#FAA41A"/>
<path d="M204.577 191.5H205.995C205.995 175.209 199.391 160.46 188.715 149.785L187.712 150.788C198.132 161.207 204.576 175.602 204.576 191.501L204.577 191.5Z" fill="#FAA41A"/>
<path d="M89.424 191.5H88.0062C88.0062 207.791 94.6095 222.54 105.286 233.215L106.289 232.212C95.8692 221.793 89.4249 207.398 89.4249 191.499L89.424 191.5Z" fill="#FAA41A"/>
<path d="M147 249.076V250.494C163.291 250.494 178.04 243.891 188.715 233.214L187.712 232.211C177.293 242.631 162.898 249.075 146.999 249.075L147 249.076Z" fill="#FAA41A"/>
<path d="M106.288 150.787L105.285 149.784C94.6086 160.46 88.0053 175.208 88.0053 191.499H89.4231C89.4231 175.6 95.8674 161.205 106.287 150.786L106.288 150.787Z" fill="#FDBB5F"/>
<path d="M187.713 150.787L188.716 149.784C178.04 139.108 163.292 132.504 147.001 132.504V133.922C162.9 133.922 177.295 140.367 187.714 150.786L187.713 150.787Z" fill="#FDBB5F"/>
<path d="M205.995 191.5H204.577C204.577 207.399 198.133 221.794 187.713 232.213L188.716 233.216C199.392 222.54 205.996 207.792 205.996 191.501L205.995 191.5Z" fill="#FDBB5F"/>
<path d="M106.288 232.212L105.285 233.215C115.961 243.891 130.709 250.495 147 250.495V249.077C131.101 249.077 116.706 242.633 106.287 232.213L106.288 232.212Z" fill="#FDBB5F"/>
<path d="M147 191.5L106.288 150.787C116.707 140.367 131.102 133.923 147.001 133.923V191.5H147ZM89.4231 191.5C89.4231 207.399 95.8674 221.794 106.287 232.213L147 191.5H89.424H89.4231ZM147 191.5H204.577C204.577 175.601 198.133 161.206 187.713 150.787L147 191.5ZM147 249.077C162.899 249.077 177.294 242.633 187.713 232.213L147 191.5V249.077Z" fill="url(#paint3_radial_12_815)"/>
<path d="M147 191.5H89.424C89.424 175.601 95.8683 161.206 106.288 150.787L147.001 191.5H147ZM187.713 150.787C177.294 140.367 162.899 133.923 147 133.923V191.5L187.713 150.787ZM187.713 232.212C198.133 221.793 204.577 207.398 204.577 191.499H147L187.713 232.212ZM106.288 232.212C116.707 242.632 131.102 249.076 147.001 249.076V191.5L106.288 232.213V232.212Z" fill="url(#paint4_radial_12_815)"/>
<path d="M147 206.535C155.284 206.535 162 199.819 162 191.535C162 183.251 155.284 176.535 147 176.535C138.716 176.535 132 183.251 132 191.535C132 199.819 138.716 206.535 147 206.535Z" fill="url(#paint5_linear_12_815)"/>
<path d="M147 203.879C153.817 203.879 159.344 198.353 159.344 191.535C159.344 184.718 153.817 179.191 147 179.191C140.183 179.191 134.656 184.718 134.656 191.535C134.656 198.353 140.183 203.879 147 203.879Z" fill="url(#paint6_linear_12_815)"/>
<path d="M147 126.396C145.82 126.396 144.861 125.436 144.861 124.257C144.861 123.078 145.821 122.118 147 122.118C148.179 122.118 149.139 123.078 149.139 124.257C149.139 125.436 148.179 126.396 147 126.396Z" fill="url(#paint7_radial_12_815)"/>
<path d="M147 260.882C145.82 260.882 144.861 259.922 144.861 258.743C144.861 257.564 145.821 256.604 147 256.604C148.179 256.604 149.139 257.564 149.139 258.743C149.139 259.922 148.179 260.882 147 260.882Z" fill="url(#paint8_radial_12_815)"/>
<path d="M214.243 193.639C213.063 193.639 212.104 192.679 212.104 191.5C212.104 190.321 213.064 189.361 214.243 189.361C215.422 189.361 216.382 190.321 216.382 191.5C216.382 192.679 215.422 193.639 214.243 193.639Z" fill="url(#paint9_radial_12_815)"/>
<path d="M79.7571 193.639C78.5772 193.639 77.6182 192.679 77.6182 191.5C77.6182 190.321 78.5781 189.361 79.7571 189.361C80.936 189.361 81.8959 190.321 81.8959 191.5C81.8959 192.679 80.936 193.639 79.7571 193.639Z" fill="url(#paint10_radial_12_815)"/>
<path d="M194.548 146.091C193.977 146.091 193.439 145.868 193.035 145.464C192.631 145.06 192.408 144.523 192.408 143.951C192.408 143.379 192.631 142.842 193.035 142.438C193.439 142.034 193.976 141.811 194.548 141.811C195.12 141.811 195.657 142.034 196.061 142.438C196.465 142.842 196.688 143.379 196.688 143.951C196.688 144.523 196.465 145.059 196.061 145.464C195.657 145.868 195.12 146.091 194.548 146.091Z" fill="url(#paint11_radial_12_815)"/>
<path d="M99.4519 241.187C98.8808 241.187 98.343 240.964 97.9389 240.56C97.1057 239.726 97.1057 238.369 97.9389 237.535C98.343 237.131 98.8799 236.908 99.4519 236.908C100.024 236.908 100.561 237.131 100.965 237.535C101.798 238.369 101.798 239.726 100.965 240.56C100.561 240.964 100.024 241.187 99.4519 241.187Z" fill="url(#paint12_radial_12_815)"/>
<path d="M194.548 241.187C193.977 241.187 193.439 240.964 193.035 240.56C192.631 240.156 192.408 239.619 192.408 239.047C192.408 238.475 192.631 237.938 193.035 237.534C193.439 237.13 193.976 236.907 194.548 236.907C195.12 236.907 195.657 237.13 196.061 237.534C196.465 237.938 196.688 238.475 196.688 239.047C196.688 239.619 196.465 240.155 196.061 240.56C195.657 240.964 195.12 241.187 194.548 241.187Z" fill="url(#paint13_radial_12_815)"/>
<path d="M99.4519 146.091C98.8808 146.091 98.343 145.868 97.9389 145.464C97.1057 144.63 97.1057 143.273 97.9389 142.439C98.343 142.035 98.8799 141.812 99.4519 141.812C100.024 141.812 100.561 142.035 100.965 142.439C101.798 143.273 101.798 144.63 100.965 145.464C100.561 145.868 100.024 146.091 99.4519 146.091Z" fill="url(#paint14_radial_12_815)"/>
<path d="M121.268 131.515C120.399 131.515 119.624 130.996 119.29 130.193C118.839 129.104 119.359 127.85 120.449 127.398C120.711 127.289 120.986 127.235 121.266 127.235C122.135 127.235 122.911 127.754 123.244 128.556C123.462 129.084 123.462 129.665 123.244 130.193C123.026 130.721 122.614 131.132 122.086 131.351C121.824 131.459 121.55 131.514 121.269 131.514L121.268 131.515Z" fill="url(#paint15_radial_12_815)"/>
<path d="M172.734 255.764C171.866 255.764 171.089 255.245 170.757 254.442C170.539 253.915 170.54 253.334 170.759 252.806C170.978 252.277 171.388 251.866 171.915 251.648C172.177 251.539 172.452 251.484 172.732 251.484C173.601 251.484 174.377 252.003 174.71 252.806C174.928 253.333 174.927 253.914 174.708 254.442C174.489 254.971 174.078 255.382 173.551 255.6C173.289 255.709 173.014 255.764 172.734 255.764Z" fill="url(#paint16_radial_12_815)"/>
<path d="M209.126 167.907C208.257 167.907 207.481 167.388 207.149 166.586C206.697 165.496 207.217 164.243 208.307 163.791C208.569 163.683 208.844 163.628 209.124 163.628C209.993 163.628 210.769 164.147 211.102 164.95C211.32 165.478 211.32 166.059 211.102 166.586C210.883 167.114 210.472 167.526 209.944 167.744C209.682 167.853 209.407 167.907 209.127 167.907H209.126Z" fill="url(#paint17_radial_12_815)"/>
<path d="M84.877 219.372C84.0078 219.372 83.232 218.853 82.8989 218.05C82.4472 216.961 82.9671 215.707 84.0572 215.255C84.3194 215.147 84.5941 215.092 84.8743 215.092C85.7435 215.092 86.5193 215.611 86.8515 216.413C87.0697 216.941 87.0697 217.522 86.8515 218.05C86.6333 218.578 86.222 218.99 85.6941 219.208C85.4319 219.316 85.1562 219.371 84.877 219.371V219.372Z" fill="url(#paint18_radial_12_815)"/>
<path d="M172.731 131.515C172.451 131.515 172.177 131.46 171.914 131.351C171.386 131.133 170.975 130.722 170.756 130.194C170.538 129.666 170.538 129.085 170.756 128.557C171.088 127.754 171.865 127.236 172.734 127.236C173.014 127.236 173.289 127.291 173.551 127.4C174.641 127.851 175.16 129.105 174.71 130.195C174.377 130.998 173.601 131.516 172.732 131.516L172.731 131.515Z" fill="url(#paint19_radial_12_815)"/>
<path d="M121.266 255.764C120.986 255.764 120.711 255.709 120.449 255.6C119.921 255.382 119.509 254.971 119.29 254.443C119.072 253.915 119.072 253.334 119.29 252.806C119.623 252.003 120.399 251.485 121.268 251.485C121.549 251.485 121.823 251.54 122.086 251.649C122.614 251.868 123.025 252.278 123.243 252.806C123.461 253.334 123.461 253.916 123.243 254.443C122.911 255.246 122.134 255.765 121.266 255.765V255.764Z" fill="url(#paint20_radial_12_815)"/>
<path d="M209.123 219.372C208.843 219.372 208.568 219.317 208.306 219.209C207.216 218.757 206.697 217.504 207.148 216.413C207.48 215.611 208.257 215.092 209.125 215.092C209.405 215.092 209.68 215.147 209.942 215.255C211.032 215.707 211.551 216.96 211.1 218.05C210.768 218.853 209.991 219.371 209.123 219.371V219.372Z" fill="url(#paint21_radial_12_815)"/>
<path d="M84.8743 167.907C84.5941 167.907 84.3194 167.853 84.0572 167.744C83.5292 167.526 83.118 167.114 82.8989 166.586C82.6807 166.059 82.6807 165.478 82.8989 164.95C83.2311 164.147 84.0078 163.629 84.877 163.629C85.1571 163.629 85.4319 163.684 85.6941 163.792C86.2221 164.011 86.6333 164.422 86.8515 164.95C87.0697 165.478 87.0697 166.059 86.8515 166.586C86.5193 167.389 85.7426 167.908 84.8743 167.908V167.907Z" fill="url(#paint22_radial_12_815)"/>
<path d="M167.472 151.407C166.001 151.407 164.803 150.211 164.803 148.742V116.875C164.803 115.142 166.211 113.732 167.941 113.732C167.982 113.732 168.023 113.732 168.065 113.735C176.879 114.079 185.306 117.569 191.793 123.562C192.418 124.139 192.785 124.957 192.802 125.808C192.819 126.659 192.484 127.492 191.882 128.093L169.349 150.626C168.844 151.13 168.179 151.408 167.473 151.408L167.472 151.407Z" fill="url(#paint23_linear_12_815)"/>
<path d="M167.736 150.465C166.292 150.465 165.118 149.292 165.118 147.851V116.584C165.118 114.884 166.499 113.5 168.197 113.5C168.237 113.5 168.278 113.5 168.318 113.503C176.966 113.84 185.234 117.265 191.599 123.144C192.212 123.71 192.571 124.513 192.589 125.347C192.606 126.182 192.276 126.999 191.685 127.589L169.577 149.698C169.082 150.193 168.429 150.465 167.736 150.465Z" fill="url(#paint24_linear_12_815)"/>
<path d="M190.41 124.432C184.539 119.008 176.79 115.588 168.249 115.254C167.497 115.224 166.869 115.831 166.869 116.584V147.851C166.869 148.616 167.795 149.001 168.337 148.459L190.446 126.351C190.98 125.816 190.964 124.944 190.409 124.432H190.41Z" fill="url(#paint25_linear_12_815)"/>
<path d="M147.499 217.602C163.238 217.602 175.998 204.819 175.998 189.051C175.998 173.283 163.238 160.5 147.499 160.5C131.759 160.5 119 173.283 119 189.051C119 204.819 131.759 217.602 147.499 217.602Z" fill="url(#paint26_linear_12_815)"/>
<path d="M147.453 212.492C160.405 212.492 170.906 201.972 170.906 188.996C170.906 176.019 160.405 165.5 147.453 165.5C134.5 165.5 124 176.019 124 188.996C124 201.972 134.5 212.492 147.453 212.492Z" fill="url(#paint27_linear_12_815)"/>
<defs>
<linearGradient id="paint0_linear_12_815" x1="127.584" y1="263.962" x2="166.416" y2="119.037" gradientUnits="userSpaceOnUse">
<stop stop-color="#5B57A6"/>
<stop offset="0.4" stop-color="#EE4599"/>
<stop offset="0.7" stop-color="#FAD3E4"/>
<stop offset="1" stop-color="#FFFCD5"/>
</linearGradient>
<linearGradient id="paint1_linear_12_815" x1="128.092" y1="262.066" x2="165.908" y2="120.934" gradientUnits="userSpaceOnUse">
<stop stop-color="#9B95C9"/>
<stop offset="0.4" stop-color="#F06DA9"/>
<stop offset="0.7" stop-color="#F8BFD8"/>
<stop offset="1" stop-color="#FFF78F"/>
</linearGradient>
<linearGradient id="paint2_linear_12_815" x1="131.077" y1="250.924" x2="162.923" y2="132.075" gradientUnits="userSpaceOnUse">
<stop stop-color="#6D68AF"/>
<stop offset="0.4" stop-color="#EE4599"/>
<stop offset="0.7" stop-color="#F5A2C6"/>
<stop offset="1" stop-color="#FFF32A"/>
</linearGradient>
<radialGradient id="paint3_radial_12_815" cx="0" cy="0" r="1" gradientUnits="userSpaceOnUse" gradientTransform="translate(147 191.5) scale(57.5769 57.5769)">
<stop stop-color="#FFF34D"/>
<stop offset="0.29" stop-color="#FEE953"/>
<stop offset="0.78" stop-color="#FDCF64"/>
<stop offset="1" stop-color="#FDC16E"/>
</radialGradient>
<radialGradient id="paint4_radial_12_815" cx="0" cy="0" r="1" gradientUnits="userSpaceOnUse" gradientTransform="translate(147 191.5) scale(57.5769 57.5769)">
<stop stop-color="#FFFEF2"/>
<stop offset="0.46" stop-color="#FFF8E8"/>
<stop offset="1" stop-color="#FFEED7"/>
</radialGradient>
<linearGradient id="paint5_linear_12_815" x1="143.117" y1="206.027" x2="150.883" y2="177.043" gradientUnits="userSpaceOnUse">
<stop stop-color="#FBAC34"/>
<stop offset="0.14" stop-color="#FBB03B"/>
<stop offset="0.35" stop-color="#FBBC50"/>
<stop offset="0.6" stop-color="#FCD172"/>
<stop offset="0.89" stop-color="#FEEDA2"/>
<stop offset="1" stop-color="#FFF9B6"/>
</linearGradient>
<linearGradient id="paint6_linear_12_815" x1="143.805" y1="203.461" x2="150.195" y2="179.609" gradientUnits="userSpaceOnUse">
<stop stop-color="#FDC16E"/>
<stop offset="0.41" stop-color="#FEDA48"/>
<stop offset="0.78" stop-color="#FEEC2E"/>
<stop offset="1" stop-color="#FFF325"/>
</linearGradient>
<radialGradient id="paint7_radial_12_815" cx="0" cy="0" r="1" gradientUnits="userSpaceOnUse" gradientTransform="translate(147 124.257) scale(2.13883)">
<stop offset="0.49" stop-color="white"/>
<stop offset="1" stop-color="#FFFAC2"/>
</radialGradient>
<radialGradient id="paint8_radial_12_815" cx="0" cy="0" r="1" gradientUnits="userSpaceOnUse" gradientTransform="translate(72.0449 258.742) scale(2.13883)">
<stop offset="0.49" stop-color="white"/>
<stop offset="1" stop-color="#FFFAC2"/>
</radialGradient>
<radialGradient id="paint9_radial_12_815" cx="0" cy="0" r="1" gradientUnits="userSpaceOnUse" gradientTransform="translate(214.243 191.5) scale(2.13883)">
<stop offset="0.49" stop-color="white"/>
<stop offset="1" stop-color="#FFFAC2"/>
</radialGradient>
<radialGradient id="paint10_radial_12_815" cx="0" cy="0" r="1" gradientUnits="userSpaceOnUse" gradientTransform="translate(79.7571 191.5) scale(2.13883)">
<stop offset="0.49" stop-color="white"/>
<stop offset="1" stop-color="#FFFAC2"/>
</radialGradient>
<radialGradient id="paint11_radial_12_815" cx="0" cy="0" r="1" gradientUnits="userSpaceOnUse" gradientTransform="translate(194.548 143.952) scale(2.13883 2.13883)">
<stop offset="0.49" stop-color="white"/>
<stop offset="1" stop-color="#FFFAC2"/>
</radialGradient>
<radialGradient id="paint12_radial_12_815" cx="0" cy="0" r="1" gradientUnits="userSpaceOnUse" gradientTransform="translate(99.4519 239.047) scale(2.13883 2.13883)">
<stop offset="0.49" stop-color="white"/>
<stop offset="1" stop-color="#FFFAC2"/>
</radialGradient>
<radialGradient id="paint13_radial_12_815" cx="0" cy="0" r="1" gradientUnits="userSpaceOnUse" gradientTransform="translate(194.548 239.047) scale(2.13883)">
<stop offset="0.49" stop-color="white"/>
<stop offset="1" stop-color="#FFFAC2"/>
</radialGradient>
<radialGradient id="paint14_radial_12_815" cx="0" cy="0" r="1" gradientUnits="userSpaceOnUse" gradientTransform="translate(99.4519 143.952) scale(2.13883 2.13883)">
<stop offset="0.49" stop-color="white"/>
<stop offset="1" stop-color="#FFFAC2"/>
</radialGradient>
<radialGradient id="paint15_radial_12_815" cx="0" cy="0" r="1" gradientUnits="userSpaceOnUse" gradientTransform="translate(121.268 129.375) scale(2.13973 2.13973)">
<stop offset="0.49" stop-color="white"/>
<stop offset="1" stop-color="#FFFAC2"/>
</radialGradient>
<radialGradient id="paint16_radial_12_815" cx="0" cy="0" r="1" gradientUnits="userSpaceOnUse" gradientTransform="translate(172.733 253.624) scale(2.13973 2.13973)">
<stop offset="0.49" stop-color="white"/>
<stop offset="1" stop-color="#FFFAC2"/>
</radialGradient>
<radialGradient id="paint17_radial_12_815" cx="0" cy="0" r="1" gradientUnits="userSpaceOnUse" gradientTransform="translate(209.125 165.767) scale(2.13973)">
<stop offset="0.49" stop-color="white"/>
<stop offset="1" stop-color="#FFFAC2"/>
</radialGradient>
<radialGradient id="paint18_radial_12_815" cx="0" cy="0" r="1" gradientUnits="userSpaceOnUse" gradientTransform="translate(84.8761 217.232) scale(2.13973 2.13973)">
<stop offset="0.49" stop-color="white"/>
<stop offset="1" stop-color="#FFFAC2"/>
</radialGradient>
<radialGradient id="paint19_radial_12_815" cx="0" cy="0" r="1" gradientUnits="userSpaceOnUse" gradientTransform="translate(172.732 129.375) scale(2.13973)">
<stop offset="0.49" stop-color="white"/>
<stop offset="1" stop-color="#FFFAC2"/>
</radialGradient>
<radialGradient id="paint20_radial_12_815" cx="0" cy="0" r="1" gradientUnits="userSpaceOnUse" gradientTransform="translate(121.268 253.624) scale(2.13973)">
<stop offset="0.49" stop-color="white"/>
<stop offset="1" stop-color="#FFFAC2"/>
</radialGradient>
<radialGradient id="paint21_radial_12_815" cx="0" cy="0" r="1" gradientUnits="userSpaceOnUse" gradientTransform="translate(209.125 217.232) scale(2.13973 2.13973)">
<stop offset="0.49" stop-color="white"/>
<stop offset="1" stop-color="#FFFAC2"/>
</radialGradient>
<radialGradient id="paint22_radial_12_815" cx="0" cy="0" r="1" gradientUnits="userSpaceOnUse" gradientTransform="translate(84.8761 165.767) scale(2.13973 2.13973)">
<stop offset="0.49" stop-color="white"/>
<stop offset="1" stop-color="#FFFAC2"/>
</radialGradient>
<linearGradient id="paint23_linear_12_815" x1="170.511" y1="152.316" x2="180.229" y2="116.048" gradientUnits="userSpaceOnUse">
<stop stop-color="#D88F16"/>
<stop offset="0.18" stop-color="#E1A62A"/>
<stop offset="0.54" stop-color="#F1D14E"/>
<stop offset="0.83" stop-color="#FBEB64"/>
<stop offset="1" stop-color="#FFF56D"/>
</linearGradient>
<linearGradient id="paint24_linear_12_815" x1="170.717" y1="151.356" x2="180.252" y2="115.772" gradientUnits="userSpaceOnUse">
<stop stop-color="#FBAC34"/>
<stop offset="0.23" stop-color="#FCC254"/>
<stop offset="0.57" stop-color="#FDDF7F"/>
<stop offset="0.84" stop-color="#FEF199"/>
<stop offset="1" stop-color="#FFF8A3"/>
</linearGradient>
<linearGradient id="paint25_linear_12_815" x1="171.172" y1="149.664" x2="179.801" y2="117.459" gradientUnits="userSpaceOnUse">
<stop stop-color="#FBAC34"/>
<stop offset="0.4" stop-color="#FCCE1A"/>
<stop offset="0.77" stop-color="#FEE807"/>
<stop offset="1" stop-color="#FFF200"/>
</linearGradient>
<linearGradient id="paint26_linear_12_815" x1="140.119" y1="216.634" x2="154.925" y2="161.478" gradientUnits="userSpaceOnUse">
<stop offset="9e-08" stop-color="#FBAC34"/>
<stop offset="0.1326" stop-color="#FBB03B"/>
<stop offset="0.3339" stop-color="#FDBB50"/>
<stop offset="0.5788" stop-color="#FFCE70"/>
<stop offset="0.8556" stop-color="#FFE79A"/>
<stop offset="1" stop-color="#FFF9B6"/>
</linearGradient>
<linearGradient id="paint27_linear_12_815" x1="141.379" y1="211.694" x2="153.564" y2="166.305" gradientUnits="userSpaceOnUse">
<stop offset="8e-08" stop-color="#FDC16E"/>
<stop offset="0.385" stop-color="#FFD856"/>
<stop offset="0.7703" stop-color="#FFE937"/>
<stop offset="1" stop-color="#FFF325"/>
</linearGradient>
</defs>
</svg>
