<svg width="162" height="45" viewBox="0 0 162 45" fill="none" xmlns="http://www.w3.org/2000/svg">
<g filter="url(#filter0_i_198_43787)">
<rect x="0.5" y="0.482422" width="161" height="44" rx="20" fill="#6B6B6B"/>
<path d="M25.377 29.7224C24.2704 29.7224 23.2504 29.5491 22.317 29.2024C21.397 28.8424 20.5904 28.3358 19.897 27.6824C19.217 27.0291 18.6837 26.2624 18.297 25.3824C17.9237 24.5024 17.737 23.5358 17.737 22.4824C17.737 21.4291 17.9237 20.4624 18.297 19.5824C18.6837 18.7024 19.2237 17.9358 19.917 17.2824C20.6104 16.6291 21.4237 16.1291 22.357 15.7824C23.2904 15.4224 24.317 15.2424 25.437 15.2424C26.677 15.2424 27.7904 15.4491 28.777 15.8624C29.777 16.2758 30.617 16.8758 31.297 17.6624L29.217 19.5824C28.7104 19.0491 28.157 18.6558 27.557 18.4024C26.957 18.1358 26.3037 18.0024 25.597 18.0024C24.917 18.0024 24.297 18.1091 23.737 18.3224C23.177 18.5358 22.6904 18.8424 22.277 19.2424C21.877 19.6424 21.5637 20.1158 21.337 20.6624C21.1237 21.2091 21.017 21.8158 21.017 22.4824C21.017 23.1358 21.1237 23.7358 21.337 24.2824C21.5637 24.8291 21.877 25.3091 22.277 25.7224C22.6904 26.1224 23.1704 26.4291 23.717 26.6424C24.277 26.8558 24.8904 26.9624 25.557 26.9624C26.197 26.9624 26.817 26.8624 27.417 26.6624C28.0304 26.4491 28.6237 26.0958 29.197 25.6024L31.037 27.9424C30.277 28.5158 29.3904 28.9558 28.377 29.2624C27.377 29.5691 26.377 29.7224 25.377 29.7224ZM28.077 27.5224V22.2624H31.037V27.9424L28.077 27.5224ZM32.2067 29.4824L38.4467 15.4824H41.6467L47.9067 29.4824H44.5067L39.3867 17.1224H40.6667L35.5267 29.4824H32.2067ZM35.3267 26.4824L36.1867 24.0224H43.3867L44.2667 26.4824H35.3267ZM49.3592 29.4824V15.4824H52.0392L57.9992 25.3624H56.5792L62.4392 15.4824H65.0992L65.1392 29.4824H62.0992L62.0792 20.1424H62.6392L57.9592 28.0024H56.4992L51.7192 20.1424H52.3992V29.4824H49.3592ZM71.4408 21.1224H78.1808V23.6424H71.4408V21.1224ZM71.6808 26.8824H79.3008V29.4824H68.4608V15.4824H79.0408V18.0824H71.6808V26.8824ZM94.3428 29.7224C93.2361 29.7224 92.2095 29.5424 91.2628 29.1824C90.3295 28.8224 89.5161 28.3158 88.8228 27.6624C88.1428 27.0091 87.6095 26.2424 87.2228 25.3624C86.8495 24.4824 86.6628 23.5224 86.6628 22.4824C86.6628 21.4424 86.8495 20.4824 87.2228 19.6024C87.6095 18.7224 88.1495 17.9558 88.8428 17.3024C89.5361 16.6491 90.3495 16.1424 91.2828 15.7824C92.2161 15.4224 93.2295 15.2424 94.3228 15.2424C95.4295 15.2424 96.4428 15.4224 97.3628 15.7824C98.2961 16.1424 99.1028 16.6491 99.7828 17.3024C100.476 17.9558 101.016 18.7224 101.403 19.6024C101.789 20.4691 101.983 21.4291 101.983 22.4824C101.983 23.5224 101.789 24.4891 101.403 25.3824C101.016 26.2624 100.476 27.0291 99.7828 27.6824C99.1028 28.3224 98.2961 28.8224 97.3628 29.1824C96.4428 29.5424 95.4361 29.7224 94.3428 29.7224ZM94.3228 26.9624C94.9495 26.9624 95.5228 26.8558 96.0428 26.6424C96.5761 26.4291 97.0428 26.1224 97.4428 25.7224C97.8428 25.3224 98.1495 24.8491 98.3628 24.3024C98.5895 23.7558 98.7028 23.1491 98.7028 22.4824C98.7028 21.8158 98.5895 21.2091 98.3628 20.6624C98.1495 20.1158 97.8428 19.6424 97.4428 19.2424C97.0561 18.8424 96.5961 18.5358 96.0628 18.3224C95.5295 18.1091 94.9495 18.0024 94.3228 18.0024C93.6961 18.0024 93.1161 18.1091 92.5828 18.3224C92.0628 18.5358 91.6028 18.8424 91.2028 19.2424C90.8028 19.6424 90.4895 20.1158 90.2628 20.6624C90.0495 21.2091 89.9428 21.8158 89.9428 22.4824C89.9428 23.1358 90.0495 23.7424 90.2628 24.3024C90.4895 24.8491 90.7961 25.3224 91.1828 25.7224C91.5828 26.1224 92.0495 26.4291 92.5828 26.6424C93.1161 26.8558 93.6961 26.9624 94.3228 26.9624ZM108.149 29.4824L102.109 15.4824H105.609L110.889 27.8824H108.829L114.189 15.4824H117.409L111.349 29.4824H108.149ZM121.558 21.1224H128.298V23.6424H121.558V21.1224ZM121.798 26.8824H129.418V29.4824H118.578V15.4824H129.158V18.0824H121.798V26.8824ZM131.996 29.4824V15.4824H138.056C139.309 15.4824 140.389 15.6891 141.296 16.1024C142.203 16.5024 142.903 17.0824 143.396 17.8424C143.889 18.6024 144.136 19.5091 144.136 20.5624C144.136 21.6024 143.889 22.5024 143.396 23.2624C142.903 24.0091 142.203 24.5824 141.296 24.9824C140.389 25.3824 139.309 25.5824 138.056 25.5824H133.796L135.236 24.1624V29.4824H131.996ZM140.896 29.4824L137.396 24.4024H140.856L144.396 29.4824H140.896ZM135.236 24.5224L133.796 23.0024H137.876C138.876 23.0024 139.623 22.7891 140.116 22.3624C140.609 21.9224 140.856 21.3224 140.856 20.5624C140.856 19.7891 140.609 19.1891 140.116 18.7624C139.623 18.3358 138.876 18.1224 137.876 18.1224H133.796L135.236 16.5824V24.5224Z" fill="white"/>
</g>
<defs>
<filter id="filter0_i_198_43787" x="0.5" y="0.482422" width="163" height="47" filterUnits="userSpaceOnUse" color-interpolation-filters="sRGB">
<feFlood flood-opacity="0" result="BackgroundImageFix"/>
<feBlend mode="normal" in="SourceGraphic" in2="BackgroundImageFix" result="shape"/>
<feColorMatrix in="SourceAlpha" type="matrix" values="0 0 0 0 0 0 0 0 0 0 0 0 0 0 0 0 0 0 127 0" result="hardAlpha"/>
<feOffset dx="2" dy="3"/>
<feGaussianBlur stdDeviation="2.5"/>
<feComposite in2="hardAlpha" operator="arithmetic" k2="-1" k3="1"/>
<feColorMatrix type="matrix" values="0 0 0 0 0 0 0 0 0 0 0 0 0 0 0 0 0 0 0.5 0"/>
<feBlend mode="normal" in2="shape" result="effect1_innerShadow_198_43787"/>
</filter>
</defs>
</svg>
