<svg width="28" height="30" viewBox="0 0 28 30" fill="none" xmlns="http://www.w3.org/2000/svg">
<g clip-path="url(#clip0_5_1092)">
<path d="M14.4928 28.2353L0.829227 27.6602L0.722366 10.1705L14.4928 10.7448V28.2353Z" fill="url(#paint0_linear_5_1092)"/>
<path d="M26.7776 27.327V27.54L14.4936 28.2329V10.744L14.8757 10.7214L26.67 10.0511L26.6894 12.9904L26.7776 27.327Z" fill="url(#paint1_linear_5_1092)"/>
<path d="M14.4936 10.744V28.2329L0.830844 27.6618L0.742603 13.1461L0.723984 10.1697L0.967657 10.181L14.4936 10.744Z" fill="url(#paint2_linear_5_1092)"/>
<path d="M14.4928 10.7448L0.722366 10.1705L14.4928 9.47763L26.6708 10.0519L14.4928 10.7448Z" fill="#541625"/>
<g style="mix-blend-mode:multiply">
<path d="M14.4936 10.744V13.7059L0.742603 13.1461L0.723984 10.1697L14.4936 10.744Z" fill="url(#paint3_linear_5_1092)"/>
</g>
<g style="mix-blend-mode:multiply">
<path d="M26.6894 12.9904L14.4936 13.7059V10.744L26.67 10.0511L26.6894 12.9904Z" fill="url(#paint4_linear_5_1092)"/>
</g>
<path d="M14.4928 13.1356L0.324876 12.5605L0.294113 7.52322L14.4928 8.09834V13.1356Z" fill="url(#paint5_linear_5_1092)"/>
<path d="M14.4928 8.09834L0.294113 7.52323L14.4928 6.77792L27.1751 7.35223L14.4928 8.09834Z" fill="url(#paint6_linear_5_1092)"/>
<path d="M27.1751 7.35223L27.2059 12.3895L14.4928 13.1356V8.09835L27.1751 7.35223Z" fill="url(#paint7_linear_5_1092)"/>
<path d="M8.34586 1.95439C8.34586 1.95439 8.65187 5.39538 14.5195 7.48046V6.98762C14.5195 6.98762 10.0775 5.34214 10.2515 -0.000823975L8.34586 1.95439Z" fill="url(#paint8_linear_5_1092)"/>
<path d="M14.5195 6.98839C14.5195 6.98839 14.5292 2.73192 10.2515 -6.10352e-05L8.34586 1.95435C9.87914 1.68414 13.6549 5.88333 14.5195 7.48042V6.98839Z" fill="url(#paint9_linear_5_1092)"/>
<path d="M6.39162 5.80676C6.39162 5.80676 8.39686 8.62585 14.5187 7.48128V6.91101C14.5187 6.91101 9.59985 7.86442 7.04978 3.1619L6.39162 5.80676Z" fill="url(#paint10_linear_5_1092)"/>
<path d="M14.5194 6.91101C14.5194 6.91101 12.1264 3.37403 7.05053 3.1619L6.39237 5.80676C7.57998 4.80334 12.9643 6.53513 14.5194 7.48047V6.91101Z" fill="url(#paint11_linear_5_1092)"/>
<path d="M20.6332 1.95439C20.6332 1.95439 20.3272 5.39538 14.4596 7.48046V6.98762C14.4596 6.98762 18.9024 5.34214 18.7275 -0.000823975L20.6332 1.95439Z" fill="url(#paint12_linear_5_1092)"/>
<path d="M14.4596 6.98839C14.4596 6.98839 14.4499 2.73192 18.7275 -6.10352e-05L20.6332 1.95435C19.1007 1.68414 15.3258 5.88333 14.4596 7.48042V6.98839Z" fill="url(#paint13_linear_5_1092)"/>
<path d="M22.5874 5.80676C22.5874 5.80676 20.5829 8.62585 14.4603 7.48128V6.91101C14.4603 6.91101 19.3799 7.86442 21.93 3.1619L22.5874 5.80676Z" fill="url(#paint14_linear_5_1092)"/>
<path d="M14.4596 6.91101C14.4596 6.91101 16.8526 3.37403 21.9293 3.1619L22.5866 5.80676C21.399 4.80334 16.0155 6.53513 14.4596 7.48128V6.91101Z" fill="url(#paint15_linear_5_1092)"/>
</g>
<defs>
<linearGradient id="paint0_linear_5_1092" x1="1.78041" y1="30.2392" x2="20.0074" y2="20.6152" gradientUnits="userSpaceOnUse">
<stop offset="8e-08" stop-color="#FDC16E"/>
<stop offset="0.385" stop-color="#FFD862"/>
<stop offset="0.7703" stop-color="#FFEA54"/>
<stop offset="1" stop-color="#FFF34D"/>
</linearGradient>
<linearGradient id="paint1_linear_5_1092" x1="15.4374" y1="30.2498" x2="32.4944" y2="22.2673" gradientUnits="userSpaceOnUse">
<stop offset="8e-08" stop-color="#FDC16E"/>
<stop offset="0.385" stop-color="#FFD862"/>
<stop offset="0.7703" stop-color="#FFEA54"/>
<stop offset="1" stop-color="#FFF34D"/>
</linearGradient>
<linearGradient id="paint2_linear_5_1092" x1="1.78196" y1="30.2367" x2="20.0076" y2="20.613" gradientUnits="userSpaceOnUse">
<stop offset="8e-08" stop-color="#FDC16E"/>
<stop offset="0.385" stop-color="#FFD862"/>
<stop offset="0.7703" stop-color="#FFEA54"/>
<stop offset="1" stop-color="#FFF34D"/>
</linearGradient>
<linearGradient id="paint3_linear_5_1092" x1="7.60877" y1="5.88152" x2="7.60877" y2="24.0307" gradientUnits="userSpaceOnUse">
<stop stop-color="white"/>
<stop offset="1"/>
</linearGradient>
<linearGradient id="paint4_linear_5_1092" x1="20.5915" y1="6.26225" x2="20.5915" y2="24.9884" gradientUnits="userSpaceOnUse">
<stop stop-color="white"/>
<stop offset="1"/>
</linearGradient>
<linearGradient id="paint5_linear_5_1092" x1="1.38506" y1="13.7582" x2="7.28888" y2="3.41247" gradientUnits="userSpaceOnUse">
<stop offset="8e-08" stop-color="#FDC16E"/>
<stop offset="0.385" stop-color="#FFD862"/>
<stop offset="0.7703" stop-color="#FFEA54"/>
<stop offset="1" stop-color="#FFF34D"/>
</linearGradient>
<linearGradient id="paint6_linear_5_1092" x1="2.3595" y1="8.24482" x2="2.58718" y2="5.03431" gradientUnits="userSpaceOnUse">
<stop offset="8e-08" stop-color="#FDC16E"/>
<stop offset="0.385" stop-color="#FFD862"/>
<stop offset="0.7703" stop-color="#FFEA54"/>
<stop offset="1" stop-color="#FFF34D"/>
</linearGradient>
<linearGradient id="paint7_linear_5_1092" x1="15.4696" y1="13.7772" x2="21.9542" y2="3.90336" gradientUnits="userSpaceOnUse">
<stop offset="8e-08" stop-color="#FDC16E"/>
<stop offset="0.385" stop-color="#FFD862"/>
<stop offset="0.7703" stop-color="#FFEA54"/>
<stop offset="1" stop-color="#FFF34D"/>
</linearGradient>
<linearGradient id="paint8_linear_5_1092" x1="12.4222" y1="3.71449" x2="3.47953" y2="10.0428" gradientUnits="userSpaceOnUse">
<stop stop-color="#573100"/>
<stop offset="0.0536" stop-color="#653B03"/>
<stop offset="0.3243" stop-color="#A76B11"/>
<stop offset="0.5521" stop-color="#D68E1B"/>
<stop offset="0.7253" stop-color="#F4A421"/>
<stop offset="0.8237" stop-color="#FFAC23"/>
</linearGradient>
<linearGradient id="paint9_linear_5_1092" x1="9.40065" y1="0.521765" x2="14.0759" y2="7.06068" gradientUnits="userSpaceOnUse">
<stop stop-color="#EBC555"/>
<stop offset="0.00222023" stop-color="#E3BD51"/>
<stop offset="0.0128" stop-color="#BF9941"/>
<stop offset="0.0227" stop-color="#A67F35"/>
<stop offset="0.0316" stop-color="#966F2E"/>
<stop offset="0.0386" stop-color="#916A2C"/>
<stop offset="0.0493" stop-color="#A78336"/>
<stop offset="0.0671" stop-color="#C7A645"/>
<stop offset="0.0852" stop-color="#DFC151"/>
<stop offset="0.1034" stop-color="#F1D459"/>
<stop offset="0.1219" stop-color="#FCE05E"/>
<stop offset="0.1409" stop-color="#FFE460"/>
<stop offset="0.1855" stop-color="#F7D75B"/>
<stop offset="0.2955" stop-color="#E6BC52"/>
<stop offset="0.4073" stop-color="#DAA84B"/>
<stop offset="0.5209" stop-color="#D29D47"/>
<stop offset="0.639" stop-color="#D09946"/>
<stop offset="0.714" stop-color="#D6A249"/>
<stop offset="0.8355" stop-color="#E4BA51"/>
<stop offset="0.9874" stop-color="#FDE05F"/>
<stop offset="1" stop-color="#FFE460"/>
</linearGradient>
<linearGradient id="paint10_linear_5_1092" x1="10.8034" y1="5.2805" x2="6.27246" y2="15.2335" gradientUnits="userSpaceOnUse">
<stop stop-color="#573100"/>
<stop offset="0.0536" stop-color="#653B03"/>
<stop offset="0.3243" stop-color="#A76B11"/>
<stop offset="0.5521" stop-color="#D68E1B"/>
<stop offset="0.7253" stop-color="#F4A421"/>
<stop offset="0.8237" stop-color="#FFAC23"/>
</linearGradient>
<linearGradient id="paint11_linear_5_1092" x1="6.6687" y1="4.07097" x2="14.5396" y2="7.53463" gradientUnits="userSpaceOnUse">
<stop stop-color="#EBC555"/>
<stop offset="0.00222023" stop-color="#E3BD51"/>
<stop offset="0.0128" stop-color="#BF9941"/>
<stop offset="0.0227" stop-color="#A67F35"/>
<stop offset="0.0316" stop-color="#966F2E"/>
<stop offset="0.0386" stop-color="#916A2C"/>
<stop offset="0.0493" stop-color="#A78336"/>
<stop offset="0.0671" stop-color="#C7A645"/>
<stop offset="0.0852" stop-color="#DFC151"/>
<stop offset="0.1034" stop-color="#F1D459"/>
<stop offset="0.1219" stop-color="#FCE05E"/>
<stop offset="0.1409" stop-color="#FFE460"/>
<stop offset="0.1855" stop-color="#F7D75B"/>
<stop offset="0.2955" stop-color="#E6BC52"/>
<stop offset="0.4073" stop-color="#DAA84B"/>
<stop offset="0.5209" stop-color="#D29D47"/>
<stop offset="0.639" stop-color="#D09946"/>
<stop offset="0.714" stop-color="#D6A249"/>
<stop offset="0.8355" stop-color="#E4BA51"/>
<stop offset="0.9874" stop-color="#FDE05F"/>
<stop offset="1" stop-color="#FFE460"/>
</linearGradient>
<linearGradient id="paint12_linear_5_1092" x1="16.5568" y1="3.71451" x2="25.4994" y2="10.0428" gradientUnits="userSpaceOnUse">
<stop stop-color="#573100"/>
<stop offset="0.0536" stop-color="#653B03"/>
<stop offset="0.3243" stop-color="#A76B11"/>
<stop offset="0.5521" stop-color="#D68E1B"/>
<stop offset="0.7253" stop-color="#F4A421"/>
<stop offset="0.8237" stop-color="#FFAC23"/>
</linearGradient>
<linearGradient id="paint13_linear_5_1092" x1="19.5783" y1="0.521766" x2="14.9031" y2="7.0607" gradientUnits="userSpaceOnUse">
<stop stop-color="#EBC555"/>
<stop offset="0.00222023" stop-color="#E3BD51"/>
<stop offset="0.0128" stop-color="#BF9941"/>
<stop offset="0.0227" stop-color="#A67F35"/>
<stop offset="0.0316" stop-color="#966F2E"/>
<stop offset="0.0386" stop-color="#916A2C"/>
<stop offset="0.0493" stop-color="#A78336"/>
<stop offset="0.0671" stop-color="#C7A645"/>
<stop offset="0.0852" stop-color="#DFC151"/>
<stop offset="0.1034" stop-color="#F1D459"/>
<stop offset="0.1219" stop-color="#FCE05E"/>
<stop offset="0.1409" stop-color="#FFE460"/>
<stop offset="0.1855" stop-color="#F7D75B"/>
<stop offset="0.2955" stop-color="#E6BC52"/>
<stop offset="0.4073" stop-color="#DAA84B"/>
<stop offset="0.5209" stop-color="#D29D47"/>
<stop offset="0.639" stop-color="#D09946"/>
<stop offset="0.714" stop-color="#D6A249"/>
<stop offset="0.8355" stop-color="#E4BA51"/>
<stop offset="0.9874" stop-color="#FDE05F"/>
<stop offset="1" stop-color="#FFE460"/>
</linearGradient>
<linearGradient id="paint14_linear_5_1092" x1="18.176" y1="5.28066" x2="22.7066" y2="15.2329" gradientUnits="userSpaceOnUse">
<stop stop-color="#573100"/>
<stop offset="0.0536" stop-color="#653B03"/>
<stop offset="0.3243" stop-color="#A76B11"/>
<stop offset="0.5521" stop-color="#D68E1B"/>
<stop offset="0.7253" stop-color="#F4A421"/>
<stop offset="0.8237" stop-color="#FFAC23"/>
</linearGradient>
<linearGradient id="paint15_linear_5_1092" x1="22.633" y1="3.76833" x2="14.2805" y2="8.02055" gradientUnits="userSpaceOnUse">
<stop stop-color="#EBC555"/>
<stop offset="0.00222023" stop-color="#E3BD51"/>
<stop offset="0.0128" stop-color="#BF9941"/>
<stop offset="0.0227" stop-color="#A67F35"/>
<stop offset="0.0316" stop-color="#966F2E"/>
<stop offset="0.0386" stop-color="#916A2C"/>
<stop offset="0.0493" stop-color="#A78336"/>
<stop offset="0.0671" stop-color="#C7A645"/>
<stop offset="0.0852" stop-color="#DFC151"/>
<stop offset="0.1034" stop-color="#F1D459"/>
<stop offset="0.1219" stop-color="#FCE05E"/>
<stop offset="0.1409" stop-color="#FFE460"/>
<stop offset="0.1855" stop-color="#F7D75B"/>
<stop offset="0.2955" stop-color="#E6BC52"/>
<stop offset="0.4073" stop-color="#DAA84B"/>
<stop offset="0.5209" stop-color="#D29D47"/>
<stop offset="0.639" stop-color="#D09946"/>
<stop offset="0.714" stop-color="#D6A249"/>
<stop offset="0.8355" stop-color="#E4BA51"/>
<stop offset="0.9874" stop-color="#FDE05F"/>
<stop offset="1" stop-color="#FFE460"/>
</linearGradient>
<clipPath id="clip0_5_1092">
<rect width="26.9118" height="30" fill="white" transform="translate(0.294113)"/>
</clipPath>
</defs>
</svg>
