<svg width="30" height="30" viewBox="0 0 30 30" fill="none" xmlns="http://www.w3.org/2000/svg">
<g clip-path="url(#clip0_5_1144)">
<path d="M16.25 10V20C16.25 20.9946 15.8549 21.9484 15.1517 22.6517C14.4484 23.3549 13.4946 23.75 12.5 23.75H9.7875C9.49262 24.5844 8.91225 25.2876 8.14899 25.7354C7.38573 26.1833 6.48872 26.3469 5.61651 26.1973C4.74431 26.0477 3.95307 25.5945 3.38266 24.918C2.81225 24.2414 2.49939 23.3849 2.49939 22.5C2.49939 21.6151 2.81225 20.7586 3.38266 20.082C3.95307 19.4055 4.74431 18.9523 5.61651 18.8027C6.48872 18.6531 7.38573 18.8167 8.14899 19.2646C8.91225 19.7124 9.49262 20.4156 9.7875 21.25H12.5C12.8315 21.25 13.1495 21.1183 13.3839 20.8839C13.6183 20.6495 13.75 20.3315 13.75 20V10C13.75 9.00544 14.1451 8.05161 14.8483 7.34835C15.5516 6.64509 16.5054 6.25 17.5 6.25H21.25V2.5L27.5 7.5L21.25 12.5V8.75H17.5C17.1685 8.75 16.8505 8.8817 16.6161 9.11612C16.3817 9.35054 16.25 9.66848 16.25 10Z" fill="url(#paint0_linear_5_1144)"/>
</g>
<defs>
<linearGradient id="paint0_linear_5_1144" x1="4.4203" y1="28.886" x2="32.0499" y2="8.74107" gradientUnits="userSpaceOnUse">
<stop offset="8e-08" stop-color="#FDC16E"/>
<stop offset="0.385" stop-color="#FFD862"/>
<stop offset="0.7703" stop-color="#FFEA54"/>
<stop offset="1" stop-color="#FFF34D"/>
</linearGradient>
<clipPath id="clip0_5_1144">
<rect width="30" height="30" fill="white"/>
</clipPath>
</defs>
</svg>
