<svg width="28" height="30" viewBox="0 0 28 30" fill="none" xmlns="http://www.w3.org/2000/svg">
<g clip-path="url(#clip0_5_1122)">
<path d="M7.27326 2.23953C7.27326 3.96744 5.65465 4.65116 6.94768 4.65116H27.5058C27.5058 4.65116 27.5058 3.53256 27.5058 2.23953V2.21628C27.5058 0.92093 26.6337 0 25.3407 0H6.94768C5.65465 0 7.27326 0.425581 7.27326 2.21628V2.23953Z" fill="#AD8228"/>
<path d="M23.4314 0H5.53372C4.49186 0 3.31977 0.716279 3.31977 1.75581V25.7791V27.6744H5.53372H23.4337C24.4733 27.6744 25.1826 26.8209 25.1826 25.7791V1.75581V0H23.4314Z" fill="url(#paint0_linear_5_1122)"/>
<path d="M21.2267 25.3186C21.2267 27.0465 23.3244 27.6744 22.0314 27.6744H3.63837C2.34302 27.6744 0.994186 26.614 0.994186 25.3186V25.2977C0.994186 24.0023 2.34302 22.7907 3.63837 22.7907H22.0314C23.3267 22.7907 21.2267 23.507 21.2267 25.2977V25.3186Z" fill="#AD8228"/>
<path d="M20.9942 5.58139H7.73837C7.48256 5.58139 7.27325 5.37208 7.27325 5.11627C7.27325 4.86046 7.48256 4.65115 7.73837 4.65115H20.9942C21.25 4.65115 21.4593 4.86046 21.4593 5.11627C21.4593 5.37208 21.25 5.58139 20.9942 5.58139Z" fill="#200249"/>
<path d="M20.9942 8.3721H7.73837C7.48256 8.3721 7.27325 8.16279 7.27325 7.90698C7.27325 7.65117 7.48256 7.44186 7.73837 7.44186H20.9942C21.25 7.44186 21.4593 7.65117 21.4593 7.90698C21.4593 8.16279 21.25 8.3721 20.9942 8.3721Z" fill="#200249"/>
<path d="M20.9942 12.093H7.73837C7.48256 12.093 7.27325 11.8837 7.27325 11.6279C7.27325 11.3721 7.48256 11.1628 7.73837 11.1628H20.9942C21.25 11.1628 21.4593 11.3721 21.4593 11.6279C21.4593 11.8837 21.25 12.093 20.9942 12.093Z" fill="#200249"/>
<path d="M20.9942 14.8837H7.73837C7.48256 14.8837 7.27325 14.6744 7.27325 14.4186C7.27325 14.1628 7.48256 13.9535 7.73837 13.9535H20.9942C21.25 13.9535 21.4593 14.1628 21.4593 14.4186C21.4593 14.6744 21.25 14.8837 20.9942 14.8837Z" fill="#200249"/>
<path d="M20.9942 17.907H7.73837C7.48256 17.907 7.27325 17.6977 7.27325 17.4419C7.27325 17.186 7.48256 16.9767 7.73837 16.9767H20.9942C21.25 16.9767 21.4593 17.186 21.4593 17.4419C21.4593 17.6977 21.25 17.907 20.9942 17.907Z" fill="#200249"/>
</g>
<defs>
<linearGradient id="paint0_linear_5_1122" x1="4.99959" y1="30.7444" x2="33.4782" y2="15.1606" gradientUnits="userSpaceOnUse">
<stop offset="8e-08" stop-color="#FDC16E"/>
<stop offset="0.385" stop-color="#FFD862"/>
<stop offset="0.7703" stop-color="#FFEA54"/>
<stop offset="1" stop-color="#FFF34D"/>
</linearGradient>
<clipPath id="clip0_5_1122">
<rect width="26.5116" height="30" fill="white" transform="translate(0.994186)"/>
</clipPath>
</defs>
</svg>
