<svg width="56" height="57" viewBox="0 0 56 57" fill="none" xmlns="http://www.w3.org/2000/svg">
<g clip-path="url(#clip0_1127_15534)">
<rect y="0.482422" width="56" height="56" rx="12" fill="url(#paint0_linear_1127_15534)"/>
<path d="M30.1122 32.5672L69.4401 38.6343L69.4401 26.5L30.1122 32.5672Z" fill="white" fill-opacity="0.1"/>
<path d="M25.888 32.5672L-13.4399 26.5L-13.4399 38.6343L25.888 32.5672Z" fill="white" fill-opacity="0.1"/>
<path d="M28.0001 35.6154L23.796 92.3721L32.2041 92.3721L28.0001 35.6154Z" fill="white" fill-opacity="0.1"/>
<path d="M28.0001 29.519L32.2041 -27.2376L23.796 -27.2376L28.0001 29.519Z" fill="white" fill-opacity="0.1"/>
<path d="M29.4935 34.7225L54.3299 79.1455L60.2753 70.5655L29.4935 34.7225Z" fill="white" fill-opacity="0.1"/>
<path d="M26.5066 30.4116L1.67025 -14.0114L-4.27515 -5.43122L26.5066 30.4116Z" fill="white" fill-opacity="0.1"/>
<path d="M26.5066 34.7225L-4.27515 70.5655L1.67025 79.1455L26.5066 34.7225Z" fill="white" fill-opacity="0.1"/>
<path d="M29.4935 30.4116L60.2753 -5.43122L54.3299 -14.0114L29.4935 30.4116Z" fill="white" fill-opacity="0.1"/>
<path d="M29.9514 31.4009L67.8944 15.2863L64.6768 4.07575L29.9514 31.4009Z" fill="white" fill-opacity="0.1"/>
<path d="M26.0487 33.734L-11.8943 49.8486L-8.6767 61.0591L26.0487 33.734Z" fill="white" fill-opacity="0.1"/>
<path d="M28.8085 35.3836L39.9746 90.1416L47.7426 85.4981L28.8085 35.3836Z" fill="white" fill-opacity="0.1"/>
<path d="M27.1918 29.7515L16.0256 -25.0067L8.25769 -20.3632L27.1918 29.7515Z" fill="white" fill-opacity="0.1"/>
<path d="M29.9514 33.734L64.6768 61.0591L67.8944 49.8486L29.9514 33.734Z" fill="white" fill-opacity="0.1"/>
<path d="M26.0487 31.4009L-8.6767 4.07576L-11.8943 15.2863L26.0487 31.4009Z" fill="white" fill-opacity="0.1"/>
<path d="M27.1918 35.3836L8.25769 85.4981L16.0256 90.1416L27.1918 35.3836Z" fill="white" fill-opacity="0.1"/>
<path d="M28.8085 29.7515L47.7426 -20.3632L39.9746 -25.0067L28.8085 29.7515Z" fill="white" fill-opacity="0.1"/>
<path d="M28 49.4824C39.598 49.4824 49 40.0804 49 28.4824C49 16.8844 39.598 7.48242 28 7.48242C16.402 7.48242 7 16.8844 7 28.4824C7 40.0804 16.402 49.4824 28 49.4824Z" fill="url(#paint1_linear_1127_15534)"/>
<path d="M28 48.933C39.2944 48.933 48.4504 39.7771 48.4504 28.4826C48.4504 17.1882 39.2944 8.03223 28 8.03223C16.7055 8.03223 7.54956 17.1882 7.54956 28.4826C7.54956 39.7771 16.7055 48.933 28 48.933Z" fill="url(#paint2_linear_1127_15534)"/>
<path style="mix-blend-mode:multiply" d="M40.1776 16.3046C37.0611 13.1881 32.7558 11.2607 28.0003 11.2607C23.2448 11.2607 18.9393 13.1883 15.823 16.3049C12.7064 19.4214 10.7788 23.7267 10.7788 28.4822C10.7788 33.2377 12.7064 37.5432 15.823 40.6595C18.9395 43.7761 23.2448 45.7037 28.0003 45.7037C32.7558 45.7037 37.0613 43.7761 40.1776 40.6595C43.2942 37.543 45.2215 33.2377 45.2215 28.4822C45.2215 23.7267 43.2939 19.4212 40.1776 16.3049V16.3046Z" fill="url(#paint3_linear_1127_15534)"/>
<path d="M28 12.3609V11.9639C23.4385 11.9639 19.3088 13.8128 16.3197 16.8021L16.6005 17.0829C19.518 14.1655 23.5484 12.3611 28.0002 12.3611L28 12.3609Z" fill="#FAA41A"/>
<path d="M44.1215 28.4825H44.5185C44.5185 23.9211 42.6696 19.7913 39.6802 16.8022L39.3994 17.0831C42.3168 20.0005 44.1213 24.031 44.1213 28.4828L44.1215 28.4825Z" fill="#FAA41A"/>
<path d="M11.8787 28.4827H11.4817C11.4817 33.0441 13.3306 37.1739 16.3199 40.1629L16.6008 39.8821C13.6833 36.9647 11.8789 32.9342 11.8789 28.4824L11.8787 28.4827Z" fill="#FAA41A"/>
<path d="M27.9999 44.6039V45.0009C32.5613 45.0009 36.6911 43.152 39.6802 40.1627L39.3993 39.8818C36.4819 42.7993 32.4515 44.6037 27.9996 44.6037L27.9999 44.6039Z" fill="#FAA41A"/>
<path d="M16.6005 17.0831L16.3197 16.8022C13.3304 19.7916 11.4814 23.9211 11.4814 28.4825H11.8784C11.8784 24.0307 13.6828 20.0003 16.6003 17.0828L16.6005 17.0831Z" fill="#FDBB5F"/>
<path d="M39.3997 17.0829L39.6805 16.8021C36.6912 13.8128 32.5617 11.9639 28.0002 11.9639V12.3609C32.4521 12.3609 36.4825 14.1653 39.3999 17.0827L39.3997 17.0829Z" fill="#FDBB5F"/>
<path d="M44.5185 28.4824H44.1215C44.1215 32.9342 42.3171 36.9647 39.3997 39.8821L39.6805 40.1629C42.6698 37.1736 44.5187 33.0441 44.5187 28.4827L44.5185 28.4824Z" fill="#FDBB5F"/>
<path d="M16.6005 39.8818L16.3197 40.1627C19.309 43.152 23.4385 45.0009 28 45.0009V44.6039C23.5482 44.6039 19.5177 42.7995 16.6003 39.8821L16.6005 39.8818Z" fill="#FDBB5F"/>
<path d="M27.9999 28.4829L16.6005 17.0832C19.5179 14.1657 23.5484 12.3613 28.0002 12.3613V28.4829H27.9999ZM11.8784 28.4829C11.8784 32.9347 13.6828 36.9651 16.6003 39.8825L27.9999 28.4829H11.8787H11.8784ZM27.9999 28.4829H44.1215C44.1215 24.031 42.3171 20.0006 39.3996 17.0832L27.9999 28.4829ZM27.9999 44.6044C32.4518 44.6044 36.4822 42.8 39.3996 39.8825L27.9999 28.4829V44.6044Z" fill="url(#paint4_radial_1127_15534)"/>
<path d="M27.9999 28.4829H11.8787C11.8787 24.031 13.6831 20.0006 16.6005 17.0832L28.0002 28.4829H27.9999ZM39.3996 17.0832C36.4822 14.1657 32.4518 12.3613 27.9999 12.3613V28.4829L39.3996 17.0832ZM39.3996 39.8823C42.3171 36.9649 44.1215 32.9344 44.1215 28.4826H27.9999L39.3996 39.8823ZM16.6005 39.8823C19.5179 42.7997 23.5484 44.6041 28.0002 44.6041V28.4829L16.6005 39.8825V39.8823Z" fill="url(#paint5_radial_1127_15534)"/>
<path d="M28.0001 32.6925C30.3196 32.6925 32.2 30.8121 32.2 28.4925C32.2 26.1729 30.3196 24.2925 28.0001 24.2925C25.6805 24.2925 23.8 26.1729 23.8 28.4925C23.8 30.8121 25.6805 32.6925 28.0001 32.6925Z" fill="url(#paint6_linear_1127_15534)"/>
<path d="M28 31.9488C29.9089 31.9488 31.4564 30.4014 31.4564 28.4925C31.4564 26.5836 29.9089 25.0361 28 25.0361C26.0912 25.0361 24.5437 26.5836 24.5437 28.4925C24.5437 30.4014 26.0912 31.9488 28 31.9488Z" fill="url(#paint7_linear_1127_15534)"/>
<path d="M28 10.2534C27.6696 10.2534 27.4011 9.98465 27.4011 9.65454C27.4011 9.32443 27.6699 9.05566 28 9.05566C28.3301 9.05566 28.5989 9.32443 28.5989 9.65454C28.5989 9.98465 28.3301 10.2534 28 10.2534Z" fill="url(#paint8_radial_1127_15534)"/>
<path d="M28 47.9092C27.6696 47.9092 27.4011 47.6404 27.4011 47.3103C27.4011 46.9802 27.6699 46.7114 28 46.7114C28.3301 46.7114 28.5989 46.9802 28.5989 47.3103C28.5989 47.6404 28.3301 47.9092 28 47.9092Z" fill="url(#paint9_radial_1127_15534)"/>
<path d="M46.828 29.0815C46.4976 29.0815 46.2291 28.8128 46.2291 28.4827C46.2291 28.1526 46.4979 27.8838 46.828 27.8838C47.1581 27.8838 47.4269 28.1526 47.4269 28.4827C47.4269 28.8128 47.1581 29.0815 46.828 29.0815Z" fill="url(#paint10_radial_1127_15534)"/>
<path d="M9.17199 29.0815C8.84163 29.0815 8.57312 28.8128 8.57312 28.4827C8.57312 28.1526 8.84188 27.8838 9.17199 27.8838C9.5021 27.8838 9.77086 28.1526 9.77086 28.4827C9.77086 28.8128 9.5021 29.0815 9.17199 29.0815Z" fill="url(#paint11_radial_1127_15534)"/>
<path d="M41.3135 15.7676C41.1536 15.7676 41.003 15.7052 40.8898 15.5921C40.7767 15.479 40.7144 15.3286 40.7144 15.1685C40.7144 15.0083 40.7767 14.858 40.8898 14.7448C41.003 14.6317 41.1533 14.5693 41.3135 14.5693C41.4736 14.5693 41.624 14.6317 41.7371 14.7448C41.8503 14.858 41.9126 15.0083 41.9126 15.1685C41.9126 15.3286 41.8503 15.4787 41.7371 15.5921C41.624 15.7052 41.4736 15.7676 41.3135 15.7676Z" fill="url(#paint12_radial_1127_15534)"/>
<path d="M14.6865 42.3948C14.5266 42.3948 14.376 42.3324 14.2629 42.2193C14.0296 41.9857 14.0296 41.6058 14.2629 41.3723C14.376 41.2591 14.5264 41.1968 14.6865 41.1968C14.8467 41.1968 14.997 41.2591 15.1101 41.3723C15.3435 41.6058 15.3435 41.9857 15.1101 42.2193C14.997 42.3324 14.8467 42.3948 14.6865 42.3948Z" fill="url(#paint13_radial_1127_15534)"/>
<path d="M41.3135 42.3945C41.1536 42.3945 41.003 42.3322 40.8898 42.219C40.7767 42.1059 40.7144 41.9556 40.7144 41.7954C40.7144 41.6353 40.7767 41.4849 40.8898 41.3718C41.003 41.2586 41.1533 41.1963 41.3135 41.1963C41.4736 41.1963 41.624 41.2586 41.7371 41.3718C41.8503 41.4849 41.9126 41.6353 41.9126 41.7954C41.9126 41.9556 41.8503 42.1057 41.7371 42.219C41.624 42.3322 41.4736 42.3945 41.3135 42.3945Z" fill="url(#paint14_radial_1127_15534)"/>
<path d="M14.6865 15.7678C14.5266 15.7678 14.376 15.7055 14.2629 15.5923C14.0296 15.3588 14.0296 14.9789 14.2629 14.7453C14.376 14.6322 14.5264 14.5698 14.6865 14.5698C14.8467 14.5698 14.997 14.6322 15.1101 14.7453C15.3435 14.9789 15.3435 15.3588 15.1101 15.5923C14.997 15.7055 14.8467 15.7678 14.6865 15.7678Z" fill="url(#paint15_radial_1127_15534)"/>
<path d="M20.7952 11.6868C20.5518 11.6868 20.3346 11.5415 20.2413 11.3167C20.1148 11.0117 20.2604 10.6605 20.5656 10.534C20.639 10.5036 20.716 10.4883 20.7944 10.4883C21.0378 10.4883 21.255 10.6336 21.3483 10.8584C21.4094 11.0062 21.4094 11.1689 21.3483 11.3167C21.2872 11.4645 21.172 11.5797 21.0242 11.6408C20.9508 11.6712 20.8739 11.6865 20.7954 11.6865L20.7952 11.6868Z" fill="url(#paint16_radial_1127_15534)"/>
<path d="M35.2056 46.4761C34.9625 46.4761 34.745 46.3308 34.652 46.106C34.5909 45.9584 34.5911 45.7957 34.6525 45.6479C34.7138 45.4998 34.8287 45.3847 34.9763 45.3236C35.0497 45.2932 35.1267 45.2778 35.2051 45.2778C35.4482 45.2778 35.6657 45.4231 35.7587 45.6479C35.8198 45.7955 35.8196 45.9582 35.7582 46.106C35.6969 46.2541 35.582 46.3692 35.4344 46.4303C35.361 46.4607 35.284 46.4761 35.2056 46.4761Z" fill="url(#paint17_radial_1127_15534)"/>
<path d="M45.3953 21.8765C45.1519 21.8765 44.9347 21.7312 44.8416 21.5066C44.7152 21.2014 44.8607 20.8504 45.166 20.724C45.2394 20.6936 45.3163 20.6782 45.3948 20.6782C45.6381 20.6782 45.8553 20.8235 45.9486 21.0483C46.0097 21.1961 46.0097 21.3588 45.9486 21.5066C45.8873 21.6545 45.7721 21.7696 45.6243 21.8307C45.5509 21.8611 45.4739 21.8765 45.3955 21.8765H45.3953Z" fill="url(#paint18_radial_1127_15534)"/>
<path d="M10.6056 36.2864C10.3622 36.2864 10.145 36.1411 10.0517 35.9163C9.92526 35.6113 10.0708 35.2601 10.376 35.1336C10.4495 35.1032 10.5264 35.0879 10.6048 35.0879C10.8482 35.0879 11.0654 35.2332 11.1585 35.458C11.2195 35.6058 11.2195 35.7685 11.1585 35.9163C11.0974 36.0641 10.9822 36.1793 10.8344 36.2404C10.761 36.2708 10.6838 36.2861 10.6056 36.2861V36.2864Z" fill="url(#paint19_radial_1127_15534)"/>
<path d="M35.2048 11.6868C35.1263 11.6868 35.0494 11.6714 34.976 11.641C34.8281 11.5799 34.713 11.4648 34.6517 11.3169C34.5906 11.1691 34.5906 11.0064 34.6517 10.8586C34.7447 10.6338 34.9622 10.4888 35.2055 10.4888C35.284 10.4888 35.3609 10.5041 35.4343 10.5345C35.7395 10.661 35.8849 11.012 35.7586 11.3172C35.6656 11.5419 35.4481 11.687 35.205 11.687L35.2048 11.6868Z" fill="url(#paint20_radial_1127_15534)"/>
<path d="M20.7944 46.4763C20.7159 46.4763 20.639 46.461 20.5656 46.4306C20.4177 46.3695 20.3026 46.2543 20.2413 46.1065C20.1802 45.9586 20.1802 45.796 20.2413 45.6482C20.3343 45.4234 20.5518 45.2783 20.7951 45.2783C20.8736 45.2783 20.9505 45.2937 21.0239 45.3241C21.1717 45.3854 21.2869 45.5003 21.348 45.6482C21.4091 45.796 21.4091 45.9589 21.348 46.1065C21.255 46.3312 21.0375 46.4766 20.7944 46.4766V46.4763Z" fill="url(#paint21_radial_1127_15534)"/>
<path d="M45.3944 36.2864C45.316 36.2864 45.239 36.2711 45.1656 36.2406C44.8604 36.1142 44.7151 35.7632 44.8413 35.458C44.9343 35.2332 45.1518 35.0879 45.3949 35.0879C45.4733 35.0879 45.5503 35.1032 45.6237 35.1336C45.9289 35.2601 46.0742 35.6111 45.948 35.9163C45.855 36.1411 45.6375 36.2861 45.3944 36.2861V36.2864Z" fill="url(#paint22_radial_1127_15534)"/>
<path d="M10.6048 21.8767C10.5264 21.8767 10.4494 21.8614 10.376 21.8309C10.2282 21.7699 10.113 21.6547 10.0517 21.5069C9.99059 21.359 9.99059 21.1964 10.0517 21.0485C10.1447 20.8238 10.3622 20.6787 10.6055 20.6787C10.684 20.6787 10.7609 20.694 10.8343 20.7245C10.9822 20.7858 11.0973 20.9007 11.1584 21.0485C11.2195 21.1964 11.2195 21.3593 11.1584 21.5069C11.0654 21.7316 10.8479 21.877 10.6048 21.877V21.8767Z" fill="url(#paint23_radial_1127_15534)"/>
<path d="M33.7323 17.2566C33.3202 17.2566 32.9849 16.9217 32.9849 16.5105V7.58763C32.9849 7.10245 33.3793 6.70752 33.8636 6.70752C33.8751 6.70752 33.8866 6.70752 33.8984 6.70832C36.3662 6.80472 38.7256 7.78202 40.5422 9.46C40.7171 9.62155 40.8199 9.85066 40.8247 10.0888C40.8295 10.327 40.7355 10.5604 40.567 10.7286L34.2578 17.0379C34.1165 17.1791 33.9301 17.2568 33.7325 17.2568L33.7323 17.2566Z" fill="url(#paint24_linear_1127_15534)"/>
<path d="M33.8062 16.9927C33.402 16.9927 33.073 16.6643 33.073 16.2608V7.50613C33.073 7.03003 33.4599 6.64258 33.9352 6.64258C33.9464 6.64258 33.9579 6.64258 33.9691 6.64338C36.3905 6.73791 38.7056 7.69679 40.4877 9.34299C40.6594 9.50134 40.7601 9.72617 40.7649 9.95982C40.7697 10.1935 40.6773 10.4223 40.512 10.5876L34.3216 16.778C34.183 16.9166 34.0001 16.9927 33.8062 16.9927Z" fill="url(#paint25_linear_1127_15534)"/>
<path d="M40.1547 9.70343C38.5109 8.18486 36.3413 7.22705 33.9499 7.13359C33.7392 7.12531 33.5635 7.29514 33.5635 7.50609V16.2607C33.5635 16.4752 33.8228 16.5828 33.9744 16.4311L40.1648 10.2407C40.3144 10.0911 40.3098 9.84682 40.1544 9.70343H40.1547Z" fill="url(#paint26_linear_1127_15534)"/>
</g>
<defs>
<linearGradient id="paint0_linear_1127_15534" x1="28" y1="-3.72633" x2="28" y2="34.9796" gradientUnits="userSpaceOnUse">
<stop stop-color="#200249"/>
<stop offset="1" stop-color="#901576"/>
</linearGradient>
<linearGradient id="paint1_linear_1127_15534" x1="22.5634" y1="48.7719" x2="33.4366" y2="8.19267" gradientUnits="userSpaceOnUse">
<stop stop-color="#5B57A6"/>
<stop offset="0.4" stop-color="#EE4599"/>
<stop offset="0.7" stop-color="#FAD3E4"/>
<stop offset="1" stop-color="#FFFCD5"/>
</linearGradient>
<linearGradient id="paint2_linear_1127_15534" x1="22.7057" y1="48.2411" x2="33.2943" y2="8.72412" gradientUnits="userSpaceOnUse">
<stop stop-color="#9B95C9"/>
<stop offset="0.4" stop-color="#F06DA9"/>
<stop offset="0.7" stop-color="#F8BFD8"/>
<stop offset="1" stop-color="#FFF78F"/>
</linearGradient>
<linearGradient id="paint3_linear_1127_15534" x1="23.5417" y1="45.1209" x2="32.4584" y2="11.8433" gradientUnits="userSpaceOnUse">
<stop stop-color="#6D68AF"/>
<stop offset="0.4" stop-color="#EE4599"/>
<stop offset="0.7" stop-color="#F5A2C6"/>
<stop offset="1" stop-color="#FFF32A"/>
</linearGradient>
<radialGradient id="paint4_radial_1127_15534" cx="0" cy="0" r="1" gradientUnits="userSpaceOnUse" gradientTransform="translate(27.9999 28.4829) scale(16.1215 16.1215)">
<stop stop-color="#FFF34D"/>
<stop offset="0.29" stop-color="#FEE953"/>
<stop offset="0.78" stop-color="#FDCF64"/>
<stop offset="1" stop-color="#FDC16E"/>
</radialGradient>
<radialGradient id="paint5_radial_1127_15534" cx="0" cy="0" r="1" gradientUnits="userSpaceOnUse" gradientTransform="translate(27.9999 28.4829) scale(16.1215)">
<stop stop-color="#FFFEF2"/>
<stop offset="0.46" stop-color="#FFF8E8"/>
<stop offset="1" stop-color="#FFEED7"/>
</radialGradient>
<linearGradient id="paint6_linear_1127_15534" x1="26.9128" y1="32.5503" x2="29.0873" y2="24.4347" gradientUnits="userSpaceOnUse">
<stop stop-color="#FBAC34"/>
<stop offset="0.14" stop-color="#FBB03B"/>
<stop offset="0.35" stop-color="#FBBC50"/>
<stop offset="0.6" stop-color="#FCD172"/>
<stop offset="0.89" stop-color="#FEEDA2"/>
<stop offset="1" stop-color="#FFF9B6"/>
</linearGradient>
<linearGradient id="paint7_linear_1127_15534" x1="27.1053" y1="31.8318" x2="28.8947" y2="25.1532" gradientUnits="userSpaceOnUse">
<stop stop-color="#FDC16E"/>
<stop offset="0.41" stop-color="#FEDA48"/>
<stop offset="0.78" stop-color="#FEEC2E"/>
<stop offset="1" stop-color="#FFF325"/>
</linearGradient>
<radialGradient id="paint8_radial_1127_15534" cx="0" cy="0" r="1" gradientUnits="userSpaceOnUse" gradientTransform="translate(28 9.65454) scale(0.598872)">
<stop offset="0.49" stop-color="white"/>
<stop offset="1" stop-color="#FFFAC2"/>
</radialGradient>
<radialGradient id="paint9_radial_1127_15534" cx="0" cy="0" r="1" gradientUnits="userSpaceOnUse" gradientTransform="translate(7.01256 47.31) scale(0.598872)">
<stop offset="0.49" stop-color="white"/>
<stop offset="1" stop-color="#FFFAC2"/>
</radialGradient>
<radialGradient id="paint10_radial_1127_15534" cx="0" cy="0" r="1" gradientUnits="userSpaceOnUse" gradientTransform="translate(46.828 28.4827) scale(0.598872)">
<stop offset="0.49" stop-color="white"/>
<stop offset="1" stop-color="#FFFAC2"/>
</radialGradient>
<radialGradient id="paint11_radial_1127_15534" cx="0" cy="0" r="1" gradientUnits="userSpaceOnUse" gradientTransform="translate(9.17199 28.4827) scale(0.598872)">
<stop offset="0.49" stop-color="white"/>
<stop offset="1" stop-color="#FFFAC2"/>
</radialGradient>
<radialGradient id="paint12_radial_1127_15534" cx="0" cy="0" r="1" gradientUnits="userSpaceOnUse" gradientTransform="translate(41.3135 15.1687) scale(0.598873)">
<stop offset="0.49" stop-color="white"/>
<stop offset="1" stop-color="#FFFAC2"/>
</radialGradient>
<radialGradient id="paint13_radial_1127_15534" cx="0" cy="0" r="1" gradientUnits="userSpaceOnUse" gradientTransform="translate(14.6865 41.7956) scale(0.598872)">
<stop offset="0.49" stop-color="white"/>
<stop offset="1" stop-color="#FFFAC2"/>
</radialGradient>
<radialGradient id="paint14_radial_1127_15534" cx="0" cy="0" r="1" gradientUnits="userSpaceOnUse" gradientTransform="translate(41.3135 41.7954) scale(0.598873)">
<stop offset="0.49" stop-color="white"/>
<stop offset="1" stop-color="#FFFAC2"/>
</radialGradient>
<radialGradient id="paint15_radial_1127_15534" cx="0" cy="0" r="1" gradientUnits="userSpaceOnUse" gradientTransform="translate(14.6865 15.1689) scale(0.598872)">
<stop offset="0.49" stop-color="white"/>
<stop offset="1" stop-color="#FFFAC2"/>
</radialGradient>
<radialGradient id="paint16_radial_1127_15534" cx="0" cy="0" r="1" gradientUnits="userSpaceOnUse" gradientTransform="translate(20.7949 11.0877) scale(0.599124)">
<stop offset="0.49" stop-color="white"/>
<stop offset="1" stop-color="#FFFAC2"/>
</radialGradient>
<radialGradient id="paint17_radial_1127_15534" cx="0" cy="0" r="1" gradientUnits="userSpaceOnUse" gradientTransform="translate(35.2054 45.877) scale(0.599124)">
<stop offset="0.49" stop-color="white"/>
<stop offset="1" stop-color="#FFFAC2"/>
</radialGradient>
<radialGradient id="paint18_radial_1127_15534" cx="0" cy="0" r="1" gradientUnits="userSpaceOnUse" gradientTransform="translate(45.395 21.2771) scale(0.599124)">
<stop offset="0.49" stop-color="white"/>
<stop offset="1" stop-color="#FFFAC2"/>
</radialGradient>
<radialGradient id="paint19_radial_1127_15534" cx="0" cy="0" r="1" gradientUnits="userSpaceOnUse" gradientTransform="translate(10.6053 35.6873) scale(0.599124)">
<stop offset="0.49" stop-color="white"/>
<stop offset="1" stop-color="#FFFAC2"/>
</radialGradient>
<radialGradient id="paint20_radial_1127_15534" cx="0" cy="0" r="1" gradientUnits="userSpaceOnUse" gradientTransform="translate(35.205 11.0876) scale(0.599124)">
<stop offset="0.49" stop-color="white"/>
<stop offset="1" stop-color="#FFFAC2"/>
</radialGradient>
<radialGradient id="paint21_radial_1127_15534" cx="0" cy="0" r="1" gradientUnits="userSpaceOnUse" gradientTransform="translate(20.7949 45.8772) scale(0.599124)">
<stop offset="0.49" stop-color="white"/>
<stop offset="1" stop-color="#FFFAC2"/>
</radialGradient>
<radialGradient id="paint22_radial_1127_15534" cx="0" cy="0" r="1" gradientUnits="userSpaceOnUse" gradientTransform="translate(45.3949 35.6873) scale(0.599124)">
<stop offset="0.49" stop-color="white"/>
<stop offset="1" stop-color="#FFFAC2"/>
</radialGradient>
<radialGradient id="paint23_radial_1127_15534" cx="0" cy="0" r="1" gradientUnits="userSpaceOnUse" gradientTransform="translate(10.6053 21.2773) scale(0.599124)">
<stop offset="0.49" stop-color="white"/>
<stop offset="1" stop-color="#FFFAC2"/>
</radialGradient>
<linearGradient id="paint24_linear_1127_15534" x1="34.5833" y1="17.511" x2="37.3042" y2="7.35612" gradientUnits="userSpaceOnUse">
<stop stop-color="#D88F16"/>
<stop offset="0.18" stop-color="#E1A62A"/>
<stop offset="0.54" stop-color="#F1D14E"/>
<stop offset="0.83" stop-color="#FBEB64"/>
<stop offset="1" stop-color="#FFF56D"/>
</linearGradient>
<linearGradient id="paint25_linear_1127_15534" x1="34.641" y1="17.2424" x2="37.3107" y2="7.27863" gradientUnits="userSpaceOnUse">
<stop stop-color="#FBAC34"/>
<stop offset="0.23" stop-color="#FCC254"/>
<stop offset="0.57" stop-color="#FDDF7F"/>
<stop offset="0.84" stop-color="#FEF199"/>
<stop offset="1" stop-color="#FFF8A3"/>
</linearGradient>
<linearGradient id="paint26_linear_1127_15534" x1="34.7683" y1="16.7684" x2="37.1843" y2="7.75095" gradientUnits="userSpaceOnUse">
<stop stop-color="#FBAC34"/>
<stop offset="0.4" stop-color="#FCCE1A"/>
<stop offset="0.77" stop-color="#FEE807"/>
<stop offset="1" stop-color="#FFF200"/>
</linearGradient>
<clipPath id="clip0_1127_15534">
<rect y="0.482422" width="56" height="56" rx="12" fill="white"/>
</clipPath>
</defs>
</svg>
