<svg width="336" height="47" viewBox="0 0 336 47" fill="none" xmlns="http://www.w3.org/2000/svg">
<g filter="url(#filter0_i_0_910)">
<rect y="0.482422" width="336" height="46" rx="10" fill="url(#paint0_linear_0_910)"/>
<g clip-path="url(#clip0_0_910)">
<path d="M133.388 13.4548L104.085 15.6554L119.424 23.666L133.388 13.4548Z" fill="url(#paint1_linear_0_910)"/>
<path d="M103.167 16.327L104.588 35.1491L132.057 33.0864C134.134 32.9307 135.683 31.0087 135.516 28.7931L134.397 13.982L119.515 24.8657L103.167 16.327Z" fill="url(#paint2_linear_0_910)"/>
<path d="M128.131 13.8497C128.112 14.1011 128.111 14.3562 128.131 14.6151C128.191 15.4124 128.434 16.1535 128.817 16.7979L133.388 13.4548L128.131 13.8497Z" fill="#292949"/>
<path d="M133.545 19.2592C133.973 19.2273 134.386 19.142 134.776 19.0116L134.397 13.982L129.424 17.6186C130.435 18.7292 131.93 19.3802 133.545 19.2592Z" fill="#292949"/>
<path d="M137.933 17.0814C139.905 15.1143 139.905 11.925 137.933 9.95791C135.961 7.99082 132.764 7.99082 130.792 9.95791C128.819 11.925 128.819 15.1143 130.792 17.0814C132.764 19.0485 135.961 19.0485 137.933 17.0814Z" fill="url(#paint3_linear_0_910)"/>
</g>
<path d="M165.667 30.4824V16.4824H168.907V30.4824H165.667ZM172.23 30.4824V16.4824H174.91L183.17 26.5624H181.87V16.4824H185.07V30.4824H182.41L174.13 20.4024H175.43V30.4824H172.23ZM188.382 30.4824V16.4824H195.222C196.982 16.4824 198.302 16.8158 199.182 17.4824C200.075 18.1491 200.522 19.0291 200.522 20.1224C200.522 20.8558 200.342 21.4958 199.982 22.0424C199.622 22.5758 199.129 22.9891 198.502 23.2824C197.875 23.5758 197.155 23.7224 196.342 23.7224L196.722 22.9024C197.602 22.9024 198.382 23.0491 199.062 23.3424C199.742 23.6224 200.269 24.0424 200.642 24.6024C201.029 25.1624 201.222 25.8491 201.222 26.6624C201.222 27.8624 200.749 28.8024 199.802 29.4824C198.855 30.1491 197.462 30.4824 195.622 30.4824H188.382ZM191.602 28.0424H195.382C196.222 28.0424 196.855 27.9091 197.282 27.6424C197.722 27.3624 197.942 26.9224 197.942 26.3224C197.942 25.7358 197.722 25.3024 197.282 25.0224C196.855 24.7291 196.222 24.5824 195.382 24.5824H191.362V22.2224H194.822C195.609 22.2224 196.209 22.0891 196.622 21.8224C197.049 21.5424 197.262 21.1224 197.262 20.5624C197.262 20.0158 197.049 19.6091 196.622 19.3424C196.209 19.0624 195.609 18.9224 194.822 18.9224H191.602V28.0424ZM210.475 30.7224C209.368 30.7224 208.342 30.5424 207.395 30.1824C206.462 29.8224 205.648 29.3158 204.955 28.6624C204.275 28.0091 203.742 27.2424 203.355 26.3624C202.982 25.4824 202.795 24.5224 202.795 23.4824C202.795 22.4424 202.982 21.4824 203.355 20.6024C203.742 19.7224 204.282 18.9558 204.975 18.3024C205.668 17.6491 206.482 17.1424 207.415 16.7824C208.348 16.4224 209.362 16.2424 210.455 16.2424C211.562 16.2424 212.575 16.4224 213.495 16.7824C214.428 17.1424 215.235 17.6491 215.915 18.3024C216.608 18.9558 217.148 19.7224 217.535 20.6024C217.922 21.4691 218.115 22.4291 218.115 23.4824C218.115 24.5224 217.922 25.4891 217.535 26.3824C217.148 27.2624 216.608 28.0291 215.915 28.6824C215.235 29.3224 214.428 29.8224 213.495 30.1824C212.575 30.5424 211.568 30.7224 210.475 30.7224ZM210.455 27.9624C211.082 27.9624 211.655 27.8558 212.175 27.6424C212.708 27.4291 213.175 27.1224 213.575 26.7224C213.975 26.3224 214.282 25.8491 214.495 25.3024C214.722 24.7558 214.835 24.1491 214.835 23.4824C214.835 22.8158 214.722 22.2091 214.495 21.6624C214.282 21.1158 213.975 20.6424 213.575 20.2424C213.188 19.8424 212.728 19.5358 212.195 19.3224C211.662 19.1091 211.082 19.0024 210.455 19.0024C209.828 19.0024 209.248 19.1091 208.715 19.3224C208.195 19.5358 207.735 19.8424 207.335 20.2424C206.935 20.6424 206.622 21.1158 206.395 21.6624C206.182 22.2091 206.075 22.8158 206.075 23.4824C206.075 24.1358 206.182 24.7424 206.395 25.3024C206.622 25.8491 206.928 26.3224 207.315 26.7224C207.715 27.1224 208.182 27.4291 208.715 27.6424C209.248 27.8558 209.828 27.9624 210.455 27.9624ZM218.442 30.4824L224.462 22.1824V24.5424L218.702 16.4824H222.382L226.362 22.1024L224.822 22.1224L228.742 16.4824H232.262L226.542 24.4024V22.0824L232.602 30.4824H228.862L224.742 24.5424H226.222L222.162 30.4824H218.442Z" fill="url(#paint4_linear_0_910)"/>
</g>
<defs>
<filter id="filter0_i_0_910" x="0" y="0.482422" width="338" height="49" filterUnits="userSpaceOnUse" color-interpolation-filters="sRGB">
<feFlood flood-opacity="0" result="BackgroundImageFix"/>
<feBlend mode="normal" in="SourceGraphic" in2="BackgroundImageFix" result="shape"/>
<feColorMatrix in="SourceAlpha" type="matrix" values="0 0 0 0 0 0 0 0 0 0 0 0 0 0 0 0 0 0 127 0" result="hardAlpha"/>
<feOffset dx="2" dy="3"/>
<feGaussianBlur stdDeviation="2.5"/>
<feComposite in2="hardAlpha" operator="arithmetic" k2="-1" k3="1"/>
<feColorMatrix type="matrix" values="0 0 0 0 0 0 0 0 0 0 0 0 0 0 0 0 0 0 0.5 0"/>
<feBlend mode="normal" in2="shape" result="effect1_innerShadow_0_910"/>
</filter>
<linearGradient id="paint0_linear_0_910" x1="168" y1="-2.97477" x2="168" y2="28.8194" gradientUnits="userSpaceOnUse">
<stop stop-color="#200249"/>
<stop offset="1" stop-color="#901576"/>
</linearGradient>
<linearGradient id="paint1_linear_0_910" x1="104.086" y1="18.5603" x2="133.388" y2="18.5603" gradientUnits="userSpaceOnUse">
<stop stop-color="#FCDF4F"/>
<stop offset="1" stop-color="#F5A2C6"/>
</linearGradient>
<linearGradient id="paint2_linear_0_910" x1="103.167" y1="24.5654" x2="135.528" y2="24.5654" gradientUnits="userSpaceOnUse">
<stop stop-color="#FCDF4F"/>
<stop offset="1" stop-color="#F5A2C6"/>
</linearGradient>
<linearGradient id="paint3_linear_0_910" x1="135.703" y1="20.886" x2="138.202" y2="7.09162" gradientUnits="userSpaceOnUse">
<stop offset="8e-08" stop-color="#FDC16E"/>
<stop offset="0.385" stop-color="#FFD862"/>
<stop offset="0.7703" stop-color="#FFEA54"/>
<stop offset="1" stop-color="#FFF34D"/>
</linearGradient>
<linearGradient id="paint4_linear_0_910" x1="169.135" y1="38.1448" x2="192.654" y2="-8.69275" gradientUnits="userSpaceOnUse">
<stop offset="8e-08" stop-color="#FDC16E"/>
<stop offset="0.385" stop-color="#FFD862"/>
<stop offset="0.7703" stop-color="#FFEA54"/>
<stop offset="1" stop-color="#FFF34D"/>
</linearGradient>
<clipPath id="clip0_0_910">
<rect width="36.6667" height="30" fill="white" transform="translate(103.167 8.48242)"/>
</clipPath>
</defs>
</svg>
