<svg width="34" height="30" viewBox="0 0 34 30" fill="none" xmlns="http://www.w3.org/2000/svg">
<g clip-path="url(#clip0_3_447)">
<path d="M33.2436 16.4226C33.2436 16.4483 33.2436 16.4755 33.2436 16.4999C33.2395 17.243 33.1635 17.9699 33.0212 18.6791C32.9683 18.9409 32.9086 19.1999 32.8367 19.4562C32.7987 19.5972 32.7567 19.7342 32.7133 19.8725C30.8866 25.7011 24.5454 30 17.0014 30C9.45728 30 3.11473 25.7011 1.28668 19.8739C1.24329 19.7356 1.20125 19.5959 1.16327 19.4562C1.10225 19.2352 1.04936 19.0114 1.00054 18.7863C0.883915 18.2316 0.807972 17.6648 0.775425 17.0871C0.761864 16.8674 0.756439 16.6463 0.756439 16.4226C0.756439 15.7472 0.814752 15.0841 0.930022 14.4359C1.11445 13.3862 1.44128 12.3773 1.89558 11.4199C2.02034 11.1568 2.15595 10.8964 2.30106 10.6401C2.38513 10.4896 2.47328 10.3404 2.5655 10.1926C4.0396 7.80852 6.33686 5.83537 9.1413 4.53757C9.97803 4.14972 10.8595 3.8229 11.7789 3.56117C13.4185 3.09602 15.1747 2.84378 17.0014 2.84378C18.828 2.84378 20.5856 3.09602 22.2238 3.56117C23.1554 3.82561 24.0504 4.15921 24.8967 4.5552C27.476 5.75536 29.6227 7.5278 31.0928 9.6664C31.4779 10.2265 31.8169 10.8123 32.1044 11.4199C32.8394 12.9672 33.2422 14.6556 33.2422 16.4212L33.2436 16.4226Z" fill="url(#paint0_radial_3_447)"/>
<path d="M25.2303 3.18005L17.0407 3.47975H16.9593L8.76974 3.18005C8.76974 3.18005 9.58613 3.50688 9.34067 4.45887C10.492 4.66771 14.4587 4.92266 16.9132 4.90368C19.3678 4.92266 23.1432 4.71382 24.658 4.45887C24.4125 3.50688 25.2289 3.18005 25.2289 3.18005H25.2303Z" fill="url(#paint1_radial_3_447)"/>
<g style="mix-blend-mode:multiply">
<path d="M25.2303 3.18005L17.0407 3.47975H16.9593L8.76974 3.18005C8.76974 3.18005 9.58613 3.50688 9.34067 4.45887C10.492 4.66771 14.4587 4.92266 16.9132 4.90368C19.3678 4.92266 23.1432 4.71382 24.658 4.45887C24.4125 3.50688 25.2289 3.18005 25.2289 3.18005H25.2303Z" fill="#AD8228"/>
</g>
<path d="M27.8434 1.14046V2.7461C27.8434 3.01325 27.0501 3.25735 25.713 3.45399C25.4119 3.49874 25.0824 3.53942 24.7271 3.57875C22.9438 3.77674 20.5299 3.90151 17.8556 3.91371C17.7119 3.91371 17.5668 3.91371 17.423 3.91371C17.103 3.91371 16.787 3.91371 16.4751 3.90829C11.1646 3.8554 7.00264 3.35364 7.00264 2.74339V1.16487H7.45829L27.065 1.1391H27.8448L27.8434 1.14046Z" fill="#FFF050"/>
<path d="M27.8434 1.16762C27.8434 1.33171 27.541 1.48901 26.9931 1.63005C25.3943 2.04638 21.7111 2.33794 17.423 2.33794C13.135 2.33794 9.27413 2.03146 7.74037 1.60157C7.26437 1.46732 7.00264 1.32221 7.00264 1.16897C7.00264 1.06455 7.12469 0.962842 7.35252 0.867913C8.53912 0.367507 12.5966 0 17.423 0C21.6582 0 25.3048 0.283427 26.9335 0.691618C27.518 0.838078 27.8434 0.999458 27.8434 1.17033V1.16762Z" fill="#FFECA5"/>
<path d="M27.0651 1.16759C27.0651 1.28829 26.7857 1.40356 26.2785 1.50798C24.799 1.81446 21.3897 2.02872 17.4217 2.02872C13.4537 2.02872 9.88038 1.80361 8.46188 1.48628C8.02114 1.38728 7.77975 1.28015 7.77975 1.16759C7.77975 1.09029 7.89231 1.01571 8.10387 0.945189C9.20096 0.576326 12.9574 0.306458 17.4217 0.306458C21.3409 0.306458 24.7149 0.515299 26.2229 0.815001C26.764 0.922134 27.0651 1.04147 27.0651 1.16759Z" fill="#AD8228"/>
</g>
<defs>
<radialGradient id="paint0_radial_3_447" cx="0" cy="0" r="1" gradientUnits="userSpaceOnUse" gradientTransform="translate(16.7564 12.5) rotate(45) scale(20.5061)">
<stop stop-color="#FFEDA7"/>
<stop offset="0.609375" stop-color="#FFDD8B"/>
<stop offset="1" stop-color="#F6A7BC"/>
</radialGradient>
<radialGradient id="paint1_radial_3_447" cx="0" cy="0" r="1" gradientUnits="userSpaceOnUse" gradientTransform="translate(17 4.04254) scale(5.85164 5.85164)">
<stop stop-color="#F8EF8D"/>
<stop offset="1" stop-color="#FFC42A"/>
</radialGradient>
<clipPath id="clip0_3_447">
<rect width="32.4871" height="30" fill="white" transform="translate(0.756439)"/>
</clipPath>
</defs>
</svg>
