<svg width="160" height="35" viewBox="0 0 160 35" fill="none" xmlns="http://www.w3.org/2000/svg">
<g filter="url(#filter0_b_7_1750)">
<rect width="160" height="35" rx="17.5" fill="#FFE263" fill-opacity="0.7"/>
<g filter="url(#filter1_d_7_1750)">
<path d="M29.8736 11.3636H32.3054V19.4773C32.3054 20.2273 32.1368 20.8788 31.7997 21.4318C31.4664 21.9848 31.0024 22.411 30.4077 22.7102C29.813 23.0095 29.1217 23.1591 28.3338 23.1591C27.633 23.1591 26.9967 23.036 26.4247 22.7898C25.8565 22.5398 25.4058 22.161 25.0724 21.6534C24.7391 21.142 24.5743 20.5 24.5781 19.7273H27.027C27.0346 20.0341 27.0971 20.2973 27.2145 20.517C27.3357 20.733 27.5005 20.8996 27.7088 21.017C27.9209 21.1307 28.1709 21.1875 28.4588 21.1875C28.7618 21.1875 29.0175 21.1231 29.2259 20.9943C29.438 20.8617 29.599 20.6686 29.7088 20.4148C29.8187 20.161 29.8736 19.8485 29.8736 19.4773V11.3636ZM36.7827 23.1648C36.2259 23.1648 35.7296 23.0682 35.294 22.875C34.8584 22.678 34.5137 22.3883 34.2599 22.0057C34.0099 21.6193 33.8849 21.1383 33.8849 20.5625C33.8849 20.0777 33.974 19.6705 34.152 19.3409C34.33 19.0114 34.5724 18.7462 34.8793 18.5455C35.1861 18.3447 35.5346 18.1932 35.9247 18.0909C36.3187 17.9886 36.7315 17.9167 37.1634 17.875C37.6709 17.822 38.08 17.7727 38.3906 17.7273C38.7012 17.678 38.9266 17.6061 39.0668 17.5114C39.2069 17.4167 39.277 17.2765 39.277 17.0909V17.0568C39.277 16.697 39.1634 16.4186 38.9361 16.2216C38.7126 16.0246 38.3944 15.9261 37.9815 15.9261C37.5459 15.9261 37.1993 16.0227 36.9418 16.2159C36.6842 16.4053 36.5137 16.6439 36.4304 16.9318L34.1918 16.75C34.3054 16.2197 34.5289 15.7614 34.8622 15.375C35.1955 14.9848 35.6255 14.6856 36.152 14.4773C36.6823 14.2652 37.2959 14.1591 37.9929 14.1591C38.4777 14.1591 38.9418 14.2159 39.3849 14.3295C39.8319 14.4432 40.2277 14.6193 40.5724 14.858C40.9209 15.0966 41.1955 15.4034 41.3963 15.7784C41.5971 16.1496 41.6974 16.5947 41.6974 17.1136V23H39.402V21.7898H39.3338C39.1937 22.0625 39.0062 22.303 38.7713 22.5114C38.5365 22.7159 38.2543 22.8769 37.9247 22.9943C37.5952 23.108 37.2145 23.1648 36.7827 23.1648ZM37.4759 21.4943C37.8319 21.4943 38.1463 21.4242 38.419 21.2841C38.6918 21.1402 38.9058 20.947 39.0611 20.7045C39.2164 20.4621 39.294 20.1875 39.294 19.8807V18.9545C39.2183 19.0038 39.1141 19.0492 38.9815 19.0909C38.8527 19.1288 38.7069 19.1648 38.544 19.1989C38.3812 19.2292 38.2183 19.2576 38.0554 19.2841C37.8925 19.3068 37.7448 19.3277 37.6122 19.3466C37.3281 19.3883 37.08 19.4545 36.8679 19.5455C36.6558 19.6364 36.491 19.7595 36.3736 19.9148C36.2562 20.0663 36.1974 20.2557 36.1974 20.483C36.1974 20.8125 36.3168 21.0644 36.5554 21.2386C36.7978 21.4091 37.1046 21.4943 37.4759 21.4943ZM47.5185 23.1705C46.6245 23.1705 45.8556 22.9811 45.2116 22.6023C44.5715 22.2197 44.0791 21.6894 43.7344 21.0114C43.3935 20.3333 43.223 19.553 43.223 18.6705C43.223 17.7765 43.3954 16.9924 43.7401 16.3182C44.0885 15.6402 44.5829 15.1117 45.223 14.733C45.8632 14.3504 46.6245 14.1591 47.5071 14.1591C48.2685 14.1591 48.9351 14.2973 49.5071 14.5739C50.0791 14.8504 50.5317 15.2386 50.8651 15.7386C51.1984 16.2386 51.3821 16.8258 51.4162 17.5H49.1321C49.0677 17.0644 48.8973 16.714 48.6207 16.4489C48.348 16.1799 47.9901 16.0455 47.5469 16.0455C47.1719 16.0455 46.8442 16.1477 46.5639 16.3523C46.2874 16.553 46.0715 16.8466 45.9162 17.233C45.7609 17.6193 45.6832 18.0871 45.6832 18.6364C45.6832 19.1932 45.759 19.6667 45.9105 20.0568C46.0658 20.447 46.2836 20.7443 46.5639 20.9489C46.8442 21.1534 47.1719 21.2557 47.5469 21.2557C47.8234 21.2557 48.0715 21.1989 48.2912 21.0852C48.5147 20.9716 48.6984 20.8068 48.8423 20.5909C48.9901 20.3712 49.0866 20.108 49.1321 19.8011H51.4162C51.3783 20.4678 51.1965 21.0549 50.8707 21.5625C50.5488 22.0663 50.1037 22.4602 49.5355 22.7443C48.9673 23.0284 48.295 23.1705 47.5185 23.1705ZM55.1591 20.4886L55.1648 17.5852H55.517L58.3125 14.2727H61.0909L57.3352 18.6591H56.7614L55.1591 20.4886ZM52.9659 23V11.3636H55.3864V23H52.9659ZM58.4205 23L55.8523 19.1989L57.4659 17.4886L61.2557 23H58.4205ZM62.2784 26.2727V14.2727H64.6648V15.7386H64.7727C64.8788 15.5038 65.0322 15.2652 65.233 15.0227C65.4375 14.7765 65.7027 14.572 66.0284 14.4091C66.358 14.2424 66.767 14.1591 67.2557 14.1591C67.892 14.1591 68.4792 14.3258 69.017 14.6591C69.5549 14.9886 69.9848 15.4867 70.3068 16.1534C70.6288 16.8163 70.7898 17.6477 70.7898 18.6477C70.7898 19.6212 70.6326 20.4432 70.3182 21.1136C70.0076 21.7803 69.5833 22.286 69.0455 22.6307C68.5114 22.9716 67.9129 23.142 67.25 23.142C66.7803 23.142 66.3807 23.0644 66.0511 22.9091C65.7254 22.7538 65.4583 22.5587 65.25 22.3239C65.0417 22.0852 64.8826 21.8447 64.7727 21.6023H64.6989V26.2727H62.2784ZM64.6477 18.6364C64.6477 19.1553 64.7197 19.608 64.8636 19.9943C65.0076 20.3807 65.2159 20.6818 65.4886 20.8977C65.7614 21.1098 66.0928 21.2159 66.483 21.2159C66.8769 21.2159 67.2102 21.108 67.483 20.892C67.7557 20.6723 67.9621 20.3693 68.1023 19.983C68.2462 19.5928 68.3182 19.1439 68.3182 18.6364C68.3182 18.1326 68.2481 17.6894 68.108 17.3068C67.9678 16.9242 67.7614 16.625 67.4886 16.4091C67.2159 16.1932 66.8807 16.0852 66.483 16.0852C66.089 16.0852 65.7557 16.1894 65.483 16.3977C65.214 16.6061 65.0076 16.9015 64.8636 17.2841C64.7197 17.6667 64.6477 18.1174 64.6477 18.6364ZM76.3466 23.1705C75.464 23.1705 74.7008 22.983 74.0568 22.608C73.4167 22.2292 72.9223 21.7027 72.5739 21.0284C72.2254 20.3504 72.0511 19.5644 72.0511 18.6705C72.0511 17.7689 72.2254 16.9811 72.5739 16.3068C72.9223 15.6288 73.4167 15.1023 74.0568 14.7273C74.7008 14.3485 75.464 14.1591 76.3466 14.1591C77.2292 14.1591 77.9905 14.3485 78.6307 14.7273C79.2746 15.1023 79.7708 15.6288 80.1193 16.3068C80.4678 16.9811 80.642 17.7689 80.642 18.6705C80.642 19.5644 80.4678 20.3504 80.1193 21.0284C79.7708 21.7027 79.2746 22.2292 78.6307 22.608C77.9905 22.983 77.2292 23.1705 76.3466 23.1705ZM76.358 21.2955C76.7595 21.2955 77.0947 21.1818 77.3636 20.9545C77.6326 20.7235 77.8352 20.4091 77.9716 20.0114C78.1117 19.6136 78.1818 19.161 78.1818 18.6534C78.1818 18.1458 78.1117 17.6932 77.9716 17.2955C77.8352 16.8977 77.6326 16.5833 77.3636 16.3523C77.0947 16.1212 76.7595 16.0057 76.358 16.0057C75.9527 16.0057 75.6117 16.1212 75.3352 16.3523C75.0625 16.5833 74.8561 16.8977 74.7159 17.2955C74.5795 17.6932 74.5114 18.1458 74.5114 18.6534C74.5114 19.161 74.5795 19.6136 74.7159 20.0114C74.8561 20.4091 75.0625 20.7235 75.3352 20.9545C75.6117 21.1818 75.9527 21.2955 76.358 21.2955ZM86.858 14.2727V16.0909H81.6023V14.2727H86.858ZM82.7955 12.1818H85.2159V20.3182C85.2159 20.5417 85.25 20.7159 85.3182 20.8409C85.3864 20.9621 85.4811 21.0473 85.6023 21.0966C85.7273 21.1458 85.8712 21.1705 86.0341 21.1705C86.1477 21.1705 86.2614 21.161 86.375 21.142C86.4886 21.1193 86.5758 21.1023 86.6364 21.0909L87.017 22.892C86.8958 22.9299 86.7254 22.9735 86.5057 23.0227C86.286 23.0758 86.0189 23.108 85.7045 23.1193C85.1212 23.142 84.6098 23.0644 84.1705 22.8864C83.7348 22.7083 83.3958 22.4318 83.1534 22.0568C82.911 21.6818 82.7917 21.2083 82.7955 20.6364V12.1818ZM92.1832 23V11.3636H100.024V13.392H94.6435V16.1648H99.6207V18.1932H94.6435V20.9716H100.047V23H92.1832ZM110.071 14.2727L107.02 23H104.293L101.241 14.2727H103.798L105.611 20.517H105.702L107.509 14.2727H110.071ZM115.006 23.1705C114.108 23.1705 113.335 22.9886 112.688 22.625C112.044 22.2576 111.547 21.7386 111.199 21.0682C110.85 20.3939 110.676 19.5966 110.676 18.6761C110.676 17.7784 110.85 16.9905 111.199 16.3125C111.547 15.6345 112.038 15.1061 112.67 14.7273C113.307 14.3485 114.053 14.1591 114.909 14.1591C115.485 14.1591 116.021 14.2519 116.517 14.4375C117.017 14.6193 117.453 14.8939 117.824 15.2614C118.199 15.6288 118.491 16.0909 118.699 16.6477C118.907 17.2008 119.011 17.8485 119.011 18.5909V19.2557H111.642V17.7557H116.733C116.733 17.4072 116.657 17.0985 116.506 16.8295C116.354 16.5606 116.144 16.3504 115.875 16.1989C115.61 16.0436 115.301 15.9659 114.949 15.9659C114.581 15.9659 114.256 16.0511 113.972 16.2216C113.691 16.3883 113.472 16.6136 113.312 16.8977C113.153 17.178 113.072 17.4905 113.068 17.8352V19.2614C113.068 19.6932 113.148 20.0663 113.307 20.3807C113.47 20.6951 113.699 20.9375 113.994 21.108C114.29 21.2784 114.64 21.3636 115.045 21.3636C115.314 21.3636 115.561 21.3258 115.784 21.25C116.008 21.1742 116.199 21.0606 116.358 20.9091C116.517 20.7576 116.638 20.572 116.722 20.3523L118.96 20.5C118.847 21.0379 118.614 21.5076 118.261 21.9091C117.913 22.3068 117.462 22.6174 116.909 22.8409C116.36 23.0606 115.725 23.1705 115.006 23.1705ZM123.011 17.9545V23H120.591V14.2727H122.898V15.8125H123C123.193 15.3049 123.517 14.9034 123.972 14.608C124.426 14.3087 124.977 14.1591 125.625 14.1591C126.231 14.1591 126.759 14.2917 127.21 14.5568C127.661 14.822 128.011 15.2008 128.261 15.6932C128.511 16.1818 128.636 16.7652 128.636 17.4432V23H126.216V17.875C126.22 17.3409 126.083 16.9242 125.807 16.625C125.53 16.322 125.15 16.1705 124.665 16.1705C124.339 16.1705 124.051 16.2405 123.801 16.3807C123.555 16.5208 123.362 16.7254 123.222 16.9943C123.085 17.2595 123.015 17.5795 123.011 17.9545ZM135.186 14.2727V16.0909H129.93V14.2727H135.186ZM131.124 12.1818H133.544V20.3182C133.544 20.5417 133.578 20.7159 133.646 20.8409C133.714 20.9621 133.809 21.0473 133.93 21.0966C134.055 21.1458 134.199 21.1705 134.362 21.1705C134.476 21.1705 134.589 21.161 134.703 21.142C134.817 21.1193 134.904 21.1023 134.964 21.0909L135.345 22.892C135.224 22.9299 135.054 22.9735 134.834 23.0227C134.614 23.0758 134.347 23.108 134.033 23.1193C133.449 23.142 132.938 23.0644 132.499 22.8864C132.063 22.7083 131.724 22.4318 131.482 22.0568C131.239 21.6818 131.12 21.2083 131.124 20.6364V12.1818Z" fill="#340B32"/>
</g>
<rect x="0.5" y="0.5" width="159" height="34" rx="17" stroke="white" style="mix-blend-mode:overlay"/>
</g>
<defs>
<filter id="filter0_b_7_1750" x="-60" y="-60" width="280" height="155" filterUnits="userSpaceOnUse" color-interpolation-filters="sRGB">
<feFlood flood-opacity="0" result="BackgroundImageFix"/>
<feGaussianBlur in="BackgroundImageFix" stdDeviation="30"/>
<feComposite in2="SourceAlpha" operator="in" result="effect1_backgroundBlur_7_1750"/>
<feBlend mode="normal" in="SourceGraphic" in2="effect1_backgroundBlur_7_1750" result="shape"/>
</filter>
<filter id="filter1_d_7_1750" x="20.5724" y="11.3636" width="118.773" height="22.9091" filterUnits="userSpaceOnUse" color-interpolation-filters="sRGB">
<feFlood flood-opacity="0" result="BackgroundImageFix"/>
<feColorMatrix in="SourceAlpha" type="matrix" values="0 0 0 0 0 0 0 0 0 0 0 0 0 0 0 0 0 0 127 0" result="hardAlpha"/>
<feOffset dy="4"/>
<feGaussianBlur stdDeviation="2"/>
<feComposite in2="hardAlpha" operator="out"/>
<feColorMatrix type="matrix" values="0 0 0 0 0 0 0 0 0 0 0 0 0 0 0 0 0 0 0.25 0"/>
<feBlend mode="normal" in2="BackgroundImageFix" result="effect1_dropShadow_7_1750"/>
<feBlend mode="normal" in="SourceGraphic" in2="effect1_dropShadow_7_1750" result="shape"/>
</filter>
</defs>
</svg>
