<svg width="30" height="30" viewBox="0 0 30 30" fill="none" xmlns="http://www.w3.org/2000/svg">
<g clip-path="url(#clip0_1_1669)">
<path d="M20 5C20.3315 5 20.6495 5.1317 20.8839 5.36612C21.1183 5.60054 21.25 5.91848 21.25 6.25V11.5L27.7662 6.9375C27.8599 6.87182 27.9699 6.83312 28.0841 6.82563C28.1982 6.81813 28.3123 6.84213 28.4138 6.89499C28.5152 6.94786 28.6003 7.02757 28.6596 7.12544C28.7188 7.22331 28.7501 7.33557 28.75 7.45V22.55C28.7501 22.6644 28.7188 22.7767 28.6596 22.8746C28.6003 22.9724 28.5152 23.0521 28.4138 23.105C28.3123 23.1579 28.1982 23.1819 28.0841 23.1744C27.9699 23.1669 27.8599 23.1282 27.7662 23.0625L21.25 18.5V23.75C21.25 24.0815 21.1183 24.3995 20.8839 24.6339C20.6495 24.8683 20.3315 25 20 25H2.5C2.16848 25 1.85054 24.8683 1.61612 24.6339C1.3817 24.3995 1.25 24.0815 1.25 23.75V6.25C1.25 5.91848 1.3817 5.60054 1.61612 5.36612C1.85054 5.1317 2.16848 5 2.5 5H20ZM18.75 7.5H3.75V22.5H18.75V7.5ZM9.25 11.0363C9.34513 11.036 9.43836 11.0629 9.51875 11.1137L14.9625 14.5788C15.0332 14.624 15.0914 14.6862 15.1317 14.7599C15.172 14.8335 15.1932 14.9161 15.1932 15C15.1932 15.0839 15.172 15.1665 15.1317 15.2401C15.0914 15.3138 15.0332 15.376 14.9625 15.4212L9.51875 18.8875C9.44293 18.9358 9.35548 18.9628 9.2656 18.9656C9.17573 18.9684 9.08677 18.947 9.00807 18.9035C8.92938 18.86 8.86388 18.796 8.81846 18.7184C8.77304 18.6408 8.74939 18.5524 8.75 18.4625V11.5375C8.75 11.2612 8.975 11.0363 9.25 11.0363ZM26.25 11.05L21.25 14.55V15.4475L26.25 18.9475V11.05Z" fill="white"/>
</g>
<defs>
<clipPath id="clip0_1_1669">
<rect width="30" height="30" fill="white"/>
</clipPath>
</defs>
</svg>
