<svg width="211" height="53" viewBox="0 0 211 53" fill="none" xmlns="http://www.w3.org/2000/svg">
<g clip-path="url(#clip0_4_6043)">
<path d="M176 52.7863H47.2198L61.0751 26.2863H189.855L176 52.7863Z" fill="url(#paint0_linear_4_6043)"/>
<path d="M142.085 26.2863H61.2581L75.1134 -0.213707H155.94L142.085 26.2863Z" fill="white"/>
<mask id="mask0_4_6043" style="mask-type:luminance" maskUnits="userSpaceOnUse" x="0" y="-1" width="75" height="54">
<path d="M74.0202 -0.213707H0V52.7863H74.0202V-0.213707Z" fill="white"/>
</mask>
<g mask="url(#mask0_4_6043)">
<path d="M35.5807 50.8244C32.8879 49.3798 31.867 46.016 33.3048 43.3061L61.7856 -10.3307C63.2234 -13.0363 66.5713 -14.0621 69.2684 -12.6174C71.9612 -11.1727 72.9822 -7.80895 71.5443 -5.09911L43.0636 48.5377C41.6257 51.2433 38.2735 52.2691 35.5807 50.8244Z" fill="url(#paint1_linear_4_6043)"/>
<path d="M21.6658 38.8567C18.973 37.412 17.952 34.0482 19.3899 31.3384L43.4209 -13.9125C44.8588 -16.6181 48.2067 -17.6439 50.9037 -16.1992C53.5965 -14.7545 54.6175 -11.3907 53.1796 -8.68088L29.1486 36.57C27.7108 39.2756 24.3586 40.3014 21.6658 38.8567Z" fill="url(#paint2_linear_4_6043)"/>
<path d="M7.50411 24.3244C4.81131 22.8798 3.79034 19.516 5.2282 16.8061L25.2987 -20.9948C26.7366 -23.7004 30.0845 -24.7262 32.7816 -23.2815C35.4744 -21.8368 36.4953 -18.4731 35.0575 -15.7632L14.987 22.0377C13.5491 24.7433 10.1969 25.7691 7.50411 24.3244Z" fill="url(#paint3_linear_4_6043)"/>
</g>
<path d="M78.4327 22.2742L82.0538 5.14136H86.6359L83.8116 18.5359H89.4015L88.6046 22.2742H78.4327ZM92.289 22.2742L95.9101 5.14136H100.492L96.871 22.2742H92.289ZM104.563 22.2742L103.344 5.14136H107.821L108.114 13.7781C108.13 14.1921 108.134 14.6804 108.126 15.2429C108.126 15.7976 108.11 16.3367 108.079 16.8601C108.048 17.3835 108.005 17.8054 107.95 18.1257H108.044C108.137 17.7039 108.255 17.2664 108.395 16.8132C108.536 16.3523 108.68 15.9226 108.829 15.5242C108.977 15.1257 109.106 14.8093 109.216 14.575L113.317 5.14136H118.169L109.673 22.2742H104.563ZM117.986 22.2742L121.607 5.14136H131.779L131.017 8.8562H125.427L124.876 11.5515H130.08L129.236 15.2664H124.033L123.365 18.5007H128.955L128.158 22.2742H117.986Z" fill="url(#paint4_linear_4_6043)"/>
<path d="M77.2656 48.2344C76.4141 48.2344 75.6016 48.1367 74.8281 47.9414C74.0625 47.7461 73.4023 47.4688 72.8477 47.1094V43.0078C73.4727 43.3906 74.207 43.7305 75.0508 44.0273C75.9023 44.3242 76.6875 44.4727 77.4062 44.4727C77.6953 44.4727 77.9492 44.4414 78.168 44.3789C78.3867 44.3164 78.5703 44.2266 78.7188 44.1094C78.8672 43.9922 78.9766 43.8477 79.0469 43.6758C79.125 43.4961 79.1641 43.2969 79.1641 43.0781C79.1641 42.7891 79.0781 42.5195 78.9062 42.2695C78.7344 42.0195 78.5 41.7734 78.2031 41.5312C77.9141 41.2812 77.5938 41.0117 77.2422 40.7227C76.7188 40.293 76.2578 39.8438 75.8594 39.375C75.4688 38.9062 75.1641 38.3945 74.9453 37.8398C74.7344 37.2773 74.6289 36.6484 74.6289 35.9531C74.6289 35.1797 74.7734 34.4688 75.0625 33.8203C75.3516 33.1719 75.7617 32.6094 76.293 32.1328C76.832 31.6484 77.4727 31.2773 78.2148 31.0195C78.9648 30.7539 79.793 30.6211 80.6992 30.6211C81.6211 30.6211 82.5117 30.7305 83.3711 30.9492C84.2383 31.168 85.0273 31.4766 85.7383 31.875L84.1562 35.3555C83.6094 35.082 83.0352 34.8438 82.4336 34.6406C81.8398 34.4297 81.2773 34.3242 80.7461 34.3242C80.418 34.3242 80.1523 34.3672 79.9492 34.4531C79.7461 34.5312 79.5898 34.6367 79.4805 34.7695C79.3711 34.8945 79.293 35.0312 79.2461 35.1797C79.207 35.3281 79.1875 35.4727 79.1875 35.6133C79.1875 35.8555 79.2383 36.0898 79.3398 36.3164C79.4492 36.5352 79.6406 36.7812 79.9141 37.0547C80.1875 37.3203 80.5742 37.6406 81.0742 38.0156C81.707 38.4844 82.2227 38.9609 82.6211 39.4453C83.0273 39.9297 83.3242 40.4414 83.5117 40.9805C83.6992 41.5117 83.793 42.0977 83.793 42.7383C83.793 43.5898 83.6484 44.3555 83.3594 45.0352C83.0703 45.7148 82.6484 46.293 82.0938 46.7695C81.5391 47.2461 80.8555 47.6094 80.043 47.8594C79.2383 48.1094 78.3125 48.2344 77.2656 48.2344ZM91.4969 48.2344C90.3406 48.2344 89.4617 47.9883 88.8602 47.4961C88.2664 46.9961 87.9695 46.1797 87.9695 45.0469C87.9695 44.7266 87.9969 44.3594 88.0516 43.9453C88.1141 43.5312 88.1805 43.1641 88.2508 42.8438L89.2352 38.1328H87.4305L87.9109 35.9062L90.4656 34.875L92.0711 32.0625H95.0945L94.5203 34.7227H97.8953L97.157 38.1328H93.7703L92.7859 42.6211C92.7391 42.8477 92.6961 43.0781 92.657 43.3125C92.618 43.5391 92.5984 43.7188 92.5984 43.8516C92.5984 44.1172 92.6648 44.3086 92.7977 44.4258C92.9383 44.5352 93.118 44.5898 93.3367 44.5898C93.6336 44.5898 93.9695 44.5391 94.3445 44.4375C94.7195 44.3281 95.0984 44.1953 95.4812 44.0391V47.4492C94.9891 47.6914 94.4148 47.8828 93.7586 48.0234C93.1102 48.1641 92.3562 48.2344 91.4969 48.2344ZM99.1305 48L101.931 34.7227H105.552L105.341 36.9375H105.435C105.802 36.3125 106.177 35.8242 106.56 35.4727C106.943 35.1133 107.365 34.8594 107.826 34.7109C108.295 34.5625 108.826 34.4883 109.42 34.4883C109.591 34.4883 109.771 34.5 109.959 34.5234C110.154 34.5391 110.287 34.5586 110.357 34.582L109.373 39.0703C109.201 39 108.99 38.9414 108.74 38.8945C108.49 38.8398 108.22 38.8125 107.931 38.8125C107.58 38.8125 107.248 38.8711 106.935 38.9883C106.63 39.0977 106.349 39.2812 106.091 39.5391C105.841 39.7891 105.615 40.1328 105.412 40.5703C105.216 41 105.048 41.5312 104.908 42.1641L103.666 48H99.1305ZM116.795 48.2344C115.678 48.2344 114.729 48.0234 113.948 47.6016C113.166 47.1797 112.569 46.5781 112.155 45.7969C111.748 45.0078 111.545 44.0703 111.545 42.9844C111.545 41.8984 111.698 40.8477 112.002 39.832C112.315 38.8164 112.784 37.9062 113.409 37.1016C114.041 36.2969 114.834 35.6602 115.787 35.1914C116.741 34.7227 117.862 34.4883 119.151 34.4883C120.643 34.4883 121.811 34.8242 122.655 35.4961C123.506 36.168 123.932 37.0625 123.932 38.1797C123.932 38.9141 123.791 39.582 123.51 40.1836C123.229 40.7773 122.795 41.2891 122.209 41.7188C121.631 42.1484 120.893 42.4805 119.995 42.7148C119.096 42.9414 118.03 43.0547 116.795 43.0547H116.104C116.104 43.0859 116.104 43.1172 116.104 43.1484C116.104 43.1719 116.104 43.2031 116.104 43.2422C116.104 43.8359 116.264 44.2734 116.584 44.5547C116.905 44.8359 117.385 44.9766 118.026 44.9766C118.698 44.9766 119.334 44.875 119.936 44.6719C120.537 44.4688 121.182 44.1875 121.87 43.8281V47.0391C121.159 47.3984 120.424 47.6875 119.666 47.9062C118.909 48.125 117.952 48.2344 116.795 48.2344ZM116.561 40.2188H116.901C117.58 40.2188 118.12 40.1289 118.518 39.9492C118.916 39.7695 119.202 39.543 119.373 39.2695C119.545 38.9961 119.631 38.7227 119.631 38.4492C119.631 38.1992 119.553 37.9883 119.397 37.8164C119.241 37.6445 118.991 37.5586 118.647 37.5586C118.295 37.5586 117.971 37.6953 117.674 37.9688C117.377 38.2422 117.131 38.5859 116.936 39C116.741 39.4062 116.616 39.8125 116.561 40.2188ZM130.417 48.2344C129.737 48.2344 129.109 48.0742 128.53 47.7539C127.96 47.4336 127.503 46.9062 127.159 46.1719C126.816 45.4297 126.644 44.4297 126.644 43.1719C126.644 42.5234 126.718 41.8125 126.866 41.0391C127.023 40.2656 127.253 39.4961 127.558 38.7305C127.87 37.957 128.261 37.25 128.73 36.6094C129.198 35.9688 129.749 35.457 130.382 35.0742C131.023 34.6836 131.745 34.4883 132.55 34.4883C133.058 34.4883 133.499 34.5664 133.874 34.7227C134.257 34.8789 134.589 35.0977 134.87 35.3789C135.159 35.6523 135.409 35.9805 135.62 36.3633H135.714L136.335 34.7227H139.968L137.155 48H133.534L133.652 46.5586H133.558C133.323 46.8867 133.062 47.1758 132.773 47.4258C132.484 47.6758 132.148 47.8711 131.765 48.0117C131.39 48.1602 130.941 48.2344 130.417 48.2344ZM132.28 44.5898C132.624 44.5898 132.941 44.4336 133.23 44.1211C133.519 43.8008 133.765 43.3906 133.968 42.8906C134.179 42.3906 134.331 41.8555 134.425 41.2852C134.472 41.043 134.507 40.8008 134.53 40.5586C134.554 40.3086 134.566 40.0625 134.566 39.8203C134.566 39.3125 134.484 38.9062 134.32 38.6016C134.163 38.2891 133.925 38.1328 133.605 38.1328C133.355 38.1328 133.112 38.2266 132.878 38.4141C132.652 38.5938 132.441 38.8438 132.245 39.1641C132.05 39.4766 131.878 39.8398 131.73 40.2539C131.589 40.6602 131.476 41.0898 131.39 41.543C131.312 41.9961 131.273 42.4531 131.273 42.9141C131.273 43.4531 131.355 43.8672 131.519 44.1562C131.691 44.4453 131.945 44.5898 132.28 44.5898ZM141.707 48L144.508 34.7227H148.129L147.941 36.9141H148.035C148.348 36.3281 148.684 35.8594 149.043 35.5078C149.402 35.1484 149.812 34.8906 150.273 34.7344C150.734 34.5703 151.27 34.4883 151.879 34.4883C152.793 34.4883 153.496 34.6992 153.988 35.1211C154.488 35.5352 154.84 36.1328 155.043 36.9141H155.137C155.473 36.3594 155.844 35.9062 156.25 35.5547C156.656 35.1953 157.102 34.9297 157.586 34.7578C158.07 34.5781 158.598 34.4883 159.168 34.4883C160.262 34.4883 161.094 34.8203 161.664 35.4844C162.242 36.1484 162.531 37.1211 162.531 38.4023C162.531 38.7617 162.508 39.1484 162.461 39.5625C162.422 39.9688 162.359 40.3828 162.273 40.8047L160.809 48H156.273L157.785 40.6055C157.824 40.4492 157.859 40.2344 157.891 39.9609C157.93 39.6875 157.949 39.3828 157.949 39.0469C157.949 38.7344 157.875 38.4961 157.727 38.332C157.578 38.168 157.379 38.0859 157.129 38.0859C156.84 38.0859 156.578 38.1602 156.344 38.3086C156.117 38.457 155.91 38.6836 155.723 38.9883C155.543 39.2852 155.379 39.6562 155.23 40.1016C155.082 40.5391 154.949 41.0508 154.832 41.6367L153.531 48H148.996L150.531 40.6055C150.57 40.4258 150.609 40.1953 150.648 39.9141C150.688 39.625 150.707 39.3828 150.707 39.1875C150.707 38.7969 150.625 38.5156 150.461 38.3438C150.305 38.1719 150.105 38.0859 149.863 38.0859C149.645 38.0859 149.43 38.1406 149.219 38.25C149.016 38.3516 148.82 38.5312 148.633 38.7891C148.453 39.0469 148.277 39.4023 148.105 39.8555C147.941 40.3008 147.781 40.8633 147.625 41.543L146.242 48H141.707Z" fill="url(#paint5_linear_4_6043)"/>
</g>
<defs>
<linearGradient id="paint0_linear_4_6043" x1="47" y1="63.4999" x2="182" y2="13.9999" gradientUnits="userSpaceOnUse">
<stop stop-color="#200249"/>
<stop offset="1" stop-color="#901576"/>
</linearGradient>
<linearGradient id="paint1_linear_4_6043" x1="32.6535" y1="19.1031" x2="72.1961" y2="19.1031" gradientUnits="userSpaceOnUse">
<stop stop-color="#6D68AF"/>
<stop offset="0.5151" stop-color="#EE4599"/>
<stop offset="1" stop-color="#F5A2C6"/>
</linearGradient>
<linearGradient id="paint2_linear_4_6043" x1="18.7385" y1="11.3284" x2="53.8314" y2="11.3284" gradientUnits="userSpaceOnUse">
<stop stop-color="#6D68AF"/>
<stop offset="0.5151" stop-color="#EE4599"/>
<stop offset="1" stop-color="#F5A2C6"/>
</linearGradient>
<linearGradient id="paint3_linear_4_6043" x1="4.5768" y1="0.521181" x2="35.7093" y2="0.521181" gradientUnits="userSpaceOnUse">
<stop stop-color="#6D68AF"/>
<stop offset="0.5151" stop-color="#EE4599"/>
<stop offset="1" stop-color="#F5A2C6"/>
</linearGradient>
<linearGradient id="paint4_linear_4_6043" x1="104.573" y1="3.99651" x2="104.573" y2="15.7465" gradientUnits="userSpaceOnUse">
<stop stop-color="#200249"/>
<stop offset="1" stop-color="#901576"/>
</linearGradient>
<linearGradient id="paint5_linear_4_6043" x1="79.0688" y1="49.8858" x2="89.4147" y2="11.1035" gradientUnits="userSpaceOnUse">
<stop offset="8e-08" stop-color="#FDC16E"/>
<stop offset="0.385" stop-color="#FFD862"/>
<stop offset="0.7703" stop-color="#FFEA54"/>
<stop offset="1" stop-color="#FFF34D"/>
</linearGradient>
<clipPath id="clip0_4_6043">
<rect width="211" height="53" fill="white"/>
</clipPath>
</defs>
</svg>
