<svg width="149" height="35" viewBox="0 0 149 35" fill="none" xmlns="http://www.w3.org/2000/svg">
<g filter="url(#filter0_b_7_1748)">
<rect width="149" height="35" rx="17.5" fill="white" fill-opacity="0.3" style="mix-blend-mode:overlay"/>
<g filter="url(#filter1_d_7_1748)">
<path d="M25.4489 23V11.3636H27.9091V20.9716H32.8977V23H25.4489ZM40.0781 19.2841V14.2727H42.4986V23H40.1747V21.4148H40.0838C39.8868 21.9261 39.5592 22.3371 39.1009 22.6477C38.6463 22.9583 38.0914 23.1136 37.4361 23.1136C36.8527 23.1136 36.3395 22.9811 35.8963 22.7159C35.4531 22.4508 35.1065 22.0739 34.8565 21.5852C34.6103 21.0966 34.4853 20.5114 34.4815 19.8295V14.2727H36.902V19.3977C36.9058 19.9129 37.044 20.3201 37.3168 20.6193C37.5895 20.9186 37.955 21.0682 38.4134 21.0682C38.705 21.0682 38.9777 21.0019 39.2315 20.8693C39.4853 20.733 39.6899 20.5322 39.8452 20.267C40.0043 20.0019 40.0819 19.6742 40.0781 19.2841ZM48.3778 23.1705C47.4839 23.1705 46.715 22.9811 46.071 22.6023C45.4309 22.2197 44.9384 21.6894 44.5938 21.0114C44.2528 20.3333 44.0824 19.553 44.0824 18.6705C44.0824 17.7765 44.2547 16.9924 44.5994 16.3182C44.9479 15.6402 45.4422 15.1117 46.0824 14.733C46.7225 14.3504 47.4839 14.1591 48.3665 14.1591C49.1278 14.1591 49.7945 14.2973 50.3665 14.5739C50.9384 14.8504 51.3911 15.2386 51.7244 15.7386C52.0578 16.2386 52.2415 16.8258 52.2756 17.5H49.9915C49.9271 17.0644 49.7566 16.714 49.4801 16.4489C49.2074 16.1799 48.8494 16.0455 48.4062 16.0455C48.0312 16.0455 47.7036 16.1477 47.4233 16.3523C47.1468 16.553 46.9309 16.8466 46.7756 17.233C46.6203 17.6193 46.5426 18.0871 46.5426 18.6364C46.5426 19.1932 46.6184 19.6667 46.7699 20.0568C46.9252 20.447 47.143 20.7443 47.4233 20.9489C47.7036 21.1534 48.0312 21.2557 48.4062 21.2557C48.6828 21.2557 48.9309 21.1989 49.1506 21.0852C49.3741 20.9716 49.5578 20.8068 49.7017 20.5909C49.8494 20.3712 49.946 20.108 49.9915 19.8011H52.2756C52.2377 20.4678 52.0559 21.0549 51.7301 21.5625C51.4081 22.0663 50.9631 22.4602 50.3949 22.7443C49.8267 23.0284 49.1544 23.1705 48.3778 23.1705ZM56.0185 20.4886L56.0241 17.5852H56.3764L59.1719 14.2727H61.9503L58.1946 18.6591H57.6207L56.0185 20.4886ZM53.8253 23V11.3636H56.2457V23H53.8253ZM59.2798 23L56.7116 19.1989L58.3253 17.4886L62.1151 23H59.2798ZM64.7727 26.2727C64.4659 26.2727 64.178 26.2481 63.9091 26.1989C63.6439 26.1534 63.4242 26.0947 63.25 26.0227L63.7955 24.2159C64.0795 24.303 64.3352 24.3504 64.5625 24.358C64.7936 24.3655 64.9924 24.3125 65.1591 24.1989C65.3295 24.0852 65.4678 23.892 65.5739 23.6193L65.7159 23.25L62.5852 14.2727H65.1307L66.9375 20.6818H67.0284L68.8523 14.2727H71.4148L68.0227 23.9432C67.8598 24.4129 67.6383 24.822 67.358 25.1705C67.0814 25.5227 66.7311 25.7936 66.3068 25.983C65.8826 26.1761 65.3712 26.2727 64.7727 26.2727ZM75.9588 13.392V11.3636H85.5156V13.392H81.9531V23H79.5213V13.392H75.9588ZM87.044 23V14.2727H89.4645V23H87.044ZM88.2599 13.1477C87.9001 13.1477 87.5914 13.0284 87.3338 12.7898C87.08 12.5473 86.9531 12.2576 86.9531 11.9205C86.9531 11.5871 87.08 11.3011 87.3338 11.0625C87.5914 10.8201 87.9001 10.6989 88.2599 10.6989C88.6198 10.6989 88.9266 10.8201 89.1804 11.0625C89.438 11.3011 89.5668 11.5871 89.5668 11.9205C89.5668 12.2576 89.438 12.5473 89.1804 12.7898C88.9266 13.0284 88.6198 13.1477 88.2599 13.1477ZM95.3466 23.1705C94.4527 23.1705 93.6837 22.9811 93.0398 22.6023C92.3996 22.2197 91.9072 21.6894 91.5625 21.0114C91.2216 20.3333 91.0511 19.553 91.0511 18.6705C91.0511 17.7765 91.2235 16.9924 91.5682 16.3182C91.9167 15.6402 92.411 15.1117 93.0511 14.733C93.6913 14.3504 94.4527 14.1591 95.3352 14.1591C96.0966 14.1591 96.7633 14.2973 97.3352 14.5739C97.9072 14.8504 98.3598 15.2386 98.6932 15.7386C99.0265 16.2386 99.2102 16.8258 99.2443 17.5H96.9602C96.8958 17.0644 96.7254 16.714 96.4489 16.4489C96.1761 16.1799 95.8182 16.0455 95.375 16.0455C95 16.0455 94.6723 16.1477 94.392 16.3523C94.1155 16.553 93.8996 16.8466 93.7443 17.233C93.589 17.6193 93.5114 18.0871 93.5114 18.6364C93.5114 19.1932 93.5871 19.6667 93.7386 20.0568C93.8939 20.447 94.1117 20.7443 94.392 20.9489C94.6723 21.1534 95 21.2557 95.375 21.2557C95.6515 21.2557 95.8996 21.1989 96.1193 21.0852C96.3428 20.9716 96.5265 20.8068 96.6705 20.5909C96.8182 20.3712 96.9148 20.108 96.9602 19.8011H99.2443C99.2064 20.4678 99.0246 21.0549 98.6989 21.5625C98.3769 22.0663 97.9318 22.4602 97.3636 22.7443C96.7955 23.0284 96.1231 23.1705 95.3466 23.1705ZM102.987 20.4886L102.993 17.5852H103.345L106.141 14.2727H108.919L105.163 18.6591H104.589L102.987 20.4886ZM100.794 23V11.3636H103.214V23H100.794ZM106.249 23L103.68 19.1989L105.294 17.4886L109.084 23H106.249ZM113.724 23.1705C112.827 23.1705 112.054 22.9886 111.406 22.625C110.762 22.2576 110.266 21.7386 109.918 21.0682C109.569 20.3939 109.395 19.5966 109.395 18.6761C109.395 17.7784 109.569 16.9905 109.918 16.3125C110.266 15.6345 110.757 15.1061 111.389 14.7273C112.026 14.3485 112.772 14.1591 113.628 14.1591C114.204 14.1591 114.74 14.2519 115.236 14.4375C115.736 14.6193 116.171 14.8939 116.543 15.2614C116.918 15.6288 117.209 16.0909 117.418 16.6477C117.626 17.2008 117.73 17.8485 117.73 18.5909V19.2557H110.361V17.7557H115.452C115.452 17.4072 115.376 17.0985 115.224 16.8295C115.073 16.5606 114.863 16.3504 114.594 16.1989C114.329 16.0436 114.02 15.9659 113.668 15.9659C113.3 15.9659 112.974 16.0511 112.69 16.2216C112.41 16.3883 112.19 16.6136 112.031 16.8977C111.872 17.178 111.791 17.4905 111.787 17.8352V19.2614C111.787 19.6932 111.866 20.0663 112.026 20.3807C112.188 20.6951 112.418 20.9375 112.713 21.108C113.009 21.2784 113.359 21.3636 113.764 21.3636C114.033 21.3636 114.279 21.3258 114.503 21.25C114.726 21.1742 114.918 21.0606 115.077 20.9091C115.236 20.7576 115.357 20.572 115.44 20.3523L117.679 20.5C117.565 21.0379 117.332 21.5076 116.98 21.9091C116.632 22.3068 116.181 22.6174 115.628 22.8409C115.079 23.0606 114.444 23.1705 113.724 23.1705ZM123.952 14.2727V16.0909H118.696V14.2727H123.952ZM119.889 12.1818H122.31V20.3182C122.31 20.5417 122.344 20.7159 122.412 20.8409C122.48 20.9621 122.575 21.0473 122.696 21.0966C122.821 21.1458 122.965 21.1705 123.128 21.1705C123.241 21.1705 123.355 21.161 123.469 21.142C123.582 21.1193 123.67 21.1023 123.73 21.0909L124.111 22.892C123.99 22.9299 123.819 22.9735 123.599 23.0227C123.38 23.0758 123.113 23.108 122.798 23.1193C122.215 23.142 121.704 23.0644 121.264 22.8864C120.829 22.7083 120.49 22.4318 120.247 22.0568C120.005 21.6818 119.885 21.2083 119.889 20.6364V12.1818Z" fill="white"/>
</g>
<rect x="0.5" y="0.5" width="148" height="34" rx="17" stroke="white" style="mix-blend-mode:overlay"/>
</g>
<defs>
<filter id="filter0_b_7_1748" x="-60" y="-60" width="269" height="155" filterUnits="userSpaceOnUse" color-interpolation-filters="sRGB">
<feFlood flood-opacity="0" result="BackgroundImageFix"/>
<feGaussianBlur in="BackgroundImageFix" stdDeviation="30"/>
<feComposite in2="SourceAlpha" operator="in" result="effect1_backgroundBlur_7_1748"/>
<feBlend mode="normal" in="SourceGraphic" in2="effect1_backgroundBlur_7_1748" result="shape"/>
</filter>
<filter id="filter1_d_7_1748" x="21.4489" y="10.6989" width="106.662" height="23.5739" filterUnits="userSpaceOnUse" color-interpolation-filters="sRGB">
<feFlood flood-opacity="0" result="BackgroundImageFix"/>
<feColorMatrix in="SourceAlpha" type="matrix" values="0 0 0 0 0 0 0 0 0 0 0 0 0 0 0 0 0 0 127 0" result="hardAlpha"/>
<feOffset dy="4"/>
<feGaussianBlur stdDeviation="2"/>
<feComposite in2="hardAlpha" operator="out"/>
<feColorMatrix type="matrix" values="0 0 0 0 0 0 0 0 0 0 0 0 0 0 0 0 0 0 0.25 0"/>
<feBlend mode="normal" in2="BackgroundImageFix" result="effect1_dropShadow_7_1748"/>
<feBlend mode="normal" in="SourceGraphic" in2="effect1_dropShadow_7_1748" result="shape"/>
</filter>
</defs>
</svg>
