<svg width="30" height="30" viewBox="0 0 30 30" fill="none" xmlns="http://www.w3.org/2000/svg">
<path d="M25.6153 19.0715C25.3532 18.4236 25.6153 12.6277 25.6153 12.6277C25.6153 12.6277 25.3991 1.41309 15 1.41309C14.1651 1.41309 13.3959 1.48565 12.6882 1.61911C20.845 3.11958 21.0284 12.6355 21.0284 12.6355C21.0284 12.6355 20.7663 18.4314 21.0284 19.0792C21.2905 19.7271 22.7321 20.6341 22.7321 22.3186C22.7321 23.7206 21.4635 23.9499 21.0363 23.9875H25.4843C25.4843 23.9875 27.319 23.9953 27.319 22.3108C27.319 20.6264 25.8774 19.7193 25.6153 19.0715Z" fill="#C7A140"/>
<path d="M22.7322 22.3187C22.7322 20.6342 21.2906 19.7272 21.0285 19.0793C20.7664 18.4314 21.0285 12.6356 21.0285 12.6356C21.0285 12.6356 20.845 3.11964 12.6882 1.61917C4.56814 3.14297 4.38467 12.6278 4.38467 12.6278C4.38467 12.6278 4.64677 18.4237 4.38467 19.0715C4.12256 19.7194 2.68097 20.6264 2.68097 22.3109C2.68097 23.9954 4.51572 23.9876 4.51572 23.9876H21.0363C21.4636 23.95 22.7322 23.7207 22.7322 22.3187Z" fill="url(#paint0_linear_3_524)"/>
<path d="M17.6626 24.9875C16.6977 24.9875 13.9407 24.9875 12.9757 24.9875C12.0107 24.9875 12.1486 26.0464 13.1328 26.9993C14.1171 27.9523 15.3192 27.9875 15.3192 27.9875C15.3192 27.9875 16.5212 27.9523 17.5055 26.9993C18.4897 26.0464 18.6276 24.9875 17.6626 24.9875Z" fill="url(#paint1_linear_3_524)"/>
<defs>
<linearGradient id="paint0_linear_3_524" x1="4.2216" y1="26.4689" x2="28.7174" y2="11.2591" gradientUnits="userSpaceOnUse">
<stop offset="8e-08" stop-color="#FDC16E"/>
<stop offset="0.385" stop-color="#FFD862"/>
<stop offset="0.7703" stop-color="#FFEA54"/>
<stop offset="1" stop-color="#FFF34D"/>
</linearGradient>
<linearGradient id="paint1_linear_3_524" x1="12.7802" y1="28.3203" x2="16.2592" y2="23.5007" gradientUnits="userSpaceOnUse">
<stop offset="8e-08" stop-color="#FDC16E"/>
<stop offset="0.385" stop-color="#FFD862"/>
<stop offset="0.7703" stop-color="#FFEA54"/>
<stop offset="1" stop-color="#FFF34D"/>
</linearGradient>
</defs>
</svg>
