<svg width="336" height="40" viewBox="0 0 336 40" fill="none" xmlns="http://www.w3.org/2000/svg">
<g filter="url(#filter0_i_1_2356)">
<rect width="336" height="40" rx="10" fill="url(#paint0_linear_1_2356)"/>
<path d="M141.681 27V13H147.741C148.995 13 150.075 13.2067 150.981 13.62C151.888 14.02 152.588 14.6 153.081 15.36C153.575 16.12 153.821 17.0267 153.821 18.08C153.821 19.12 153.575 20.02 153.081 20.78C152.588 21.5267 151.888 22.1 150.981 22.5C150.075 22.9 148.995 23.1 147.741 23.1H143.481L144.921 21.68V27H141.681ZM150.581 27L147.081 21.92H150.541L154.081 27H150.581ZM144.921 22.04L143.481 20.52H147.561C148.561 20.52 149.308 20.3067 149.801 19.88C150.295 19.44 150.541 18.84 150.541 18.08C150.541 17.3067 150.295 16.7067 149.801 16.28C149.308 15.8533 148.561 15.64 147.561 15.64H143.481L144.921 14.1V22.04ZM162.609 27.24C160.622 27.24 159.069 26.6867 157.949 25.58C156.829 24.4733 156.269 22.8933 156.269 20.84V13H159.509V20.72C159.509 22.0533 159.782 23.0133 160.329 23.6C160.875 24.1867 161.642 24.48 162.629 24.48C163.615 24.48 164.382 24.1867 164.929 23.6C165.475 23.0133 165.749 22.0533 165.749 20.72V13H168.949V20.84C168.949 22.8933 168.389 24.4733 167.269 25.58C166.149 26.6867 164.595 27.24 162.609 27.24ZM172.15 27V13H175.39V24.36H182.41V27H172.15ZM187.201 18.64H193.941V21.16H187.201V18.64ZM187.441 24.4H195.061V27H184.221V13H194.801V15.6H187.441V24.4Z" fill="#200249"/>
</g>
<defs>
<filter id="filter0_i_1_2356" x="0" y="0" width="338" height="43" filterUnits="userSpaceOnUse" color-interpolation-filters="sRGB">
<feFlood flood-opacity="0" result="BackgroundImageFix"/>
<feBlend mode="normal" in="SourceGraphic" in2="BackgroundImageFix" result="shape"/>
<feColorMatrix in="SourceAlpha" type="matrix" values="0 0 0 0 0 0 0 0 0 0 0 0 0 0 0 0 0 0 127 0" result="hardAlpha"/>
<feOffset dx="2" dy="3"/>
<feGaussianBlur stdDeviation="2.5"/>
<feComposite in2="hardAlpha" operator="arithmetic" k2="-1" k3="1"/>
<feColorMatrix type="matrix" values="0 0 0 0 0 0 0 0 0 0 0 0 0 0 0 0 0 0 0.5 0"/>
<feBlend mode="normal" in2="shape" result="effect1_innerShadow_1_2356"/>
</filter>
<linearGradient id="paint0_linear_1_2356" x1="141.657" y1="27.1036" x2="144.247" y2="-2.13611" gradientUnits="userSpaceOnUse">
<stop stop-color="#FFDBAC"/>
<stop offset="0.0476" stop-color="#FFDDAE"/>
<stop offset="0.6446" stop-color="#FFF1CA"/>
<stop offset="1" stop-color="#FFFCD5"/>
</linearGradient>
</defs>
</svg>
