<svg width="22" height="24" viewBox="0 0 22 24" fill="none" xmlns="http://www.w3.org/2000/svg">
<path d="M5.15977 21.2651C5.15028 20.6424 5.17116 19.8922 5.17858 19.1419C5.17927 19.0746 5.16426 19.0461 5.09318 19.0259C4.22291 18.7778 3.42235 18.3898 2.71772 17.8165C2.03414 17.2602 1.52085 16.5711 1.13748 15.7807C0.829676 15.146 0.62643 14.4779 0.483571 13.789C0.400582 13.389 0.33985 12.9857 0.29896 12.58C0.270836 12.3009 0.251512 12.0207 0.240815 11.7396C0.225115 11.329 0.205963 10.9185 0.212002 10.5075C0.220629 9.91851 0.229601 9.32931 0.248579 8.74045C0.260312 8.37657 0.281361 8.01235 0.315005 7.64986C0.405241 6.67642 0.569321 5.71713 0.898344 4.79182C1.15991 4.05596 1.51878 3.37273 2.00377 2.75937C2.42821 2.22278 2.95858 1.80991 3.55054 1.47433C4.34248 1.0254 5.19342 0.727773 6.07231 0.504169C6.54712 0.383394 7.02798 0.289536 7.51194 0.215173C7.80524 0.170142 8.10028 0.135462 8.39583 0.104061C8.72641 0.0688641 9.05767 0.0441917 9.38911 0.0241777C9.81648 -0.0015299 10.2451 -0.00256518 10.6731 0.00226578C11.0927 0.00709675 11.5125 0.00778694 11.9318 0.0234876C12.3072 0.0376354 12.6824 0.0554064 13.0574 0.0856C13.3341 0.107857 13.611 0.129769 13.8867 0.161343C14.2296 0.200508 14.571 0.250888 14.9114 0.309722C15.4309 0.39944 15.9444 0.513658 16.4511 0.658242C17.2581 0.888576 18.0348 1.19465 18.7686 1.6027C19.4905 2.00401 20.021 2.59839 20.4434 3.2975C20.8349 3.94537 21.089 4.64948 21.289 5.37551C21.4322 5.89518 21.5381 6.42279 21.6142 6.95592C21.6736 7.37208 21.7145 7.7903 21.7407 8.21059C21.7766 8.78444 21.7966 9.35829 21.7866 9.93283C21.7805 10.2833 21.7716 10.6338 21.7521 10.9836C21.7322 11.3383 21.6938 11.6918 21.6711 12.0464C21.6515 12.3549 21.6199 12.6623 21.5813 12.9686C21.4403 14.0818 21.1862 15.1629 20.6261 16.1496C19.8435 17.5287 18.6777 18.4226 17.1582 18.8575C16.4522 19.0597 15.7403 19.2411 15.0172 19.3722C14.6273 19.4429 14.2353 19.5014 13.8419 19.5518C13.4871 19.5972 13.1319 19.637 12.7758 19.6653C12.43 19.6928 12.0832 19.7092 11.7364 19.725C11.331 19.7437 10.926 19.7316 10.5209 19.7387C10.1415 19.7454 9.76317 19.7154 9.38428 19.7016C9.32424 19.6993 9.29077 19.7214 9.25488 19.764C8.6743 20.454 8.09286 21.1433 7.51038 21.8315C6.99071 22.4456 6.46103 23.051 5.91634 23.6431C5.78832 23.7822 5.6634 23.9259 5.47189 23.9851C5.41461 24.0027 5.35836 23.9947 5.30177 23.9997C5.27123 24.0025 5.2626 23.9825 5.25346 23.9614C5.20049 23.8379 5.15615 23.7159 5.15719 23.5751C5.16253 22.8474 5.15977 22.12 5.15977 21.2651Z" fill="#7A509A"/>
<path d="M14.9716 17.106C14.6874 17.1074 14.4209 17.0266 14.1634 16.921C12.4148 16.2034 10.7623 15.3144 9.26087 14.158C7.99326 13.1817 6.95063 11.9996 6.07415 10.666C5.37919 9.60832 4.79395 8.49133 4.28152 7.33604C4.15298 7.04635 4.03221 6.75166 3.95008 6.44317C3.85174 6.07343 3.89832 5.72232 4.06499 5.38208C4.21889 5.06773 4.44077 4.80599 4.69164 4.56669C4.96476 4.30616 5.25634 4.06858 5.58191 3.87655C5.77498 3.76268 5.97495 3.66364 6.20787 3.65829C6.50204 3.65156 6.74445 3.75698 6.93752 3.97938C7.26706 4.35947 7.58521 4.74854 7.88283 5.15417C8.16683 5.54116 8.42718 5.94351 8.66372 6.36087C8.85455 6.69749 8.90182 7.05222 8.7631 7.41972C8.67856 7.64349 8.50189 7.7936 8.31935 7.93559C8.1494 8.06776 7.96358 8.18146 7.81796 8.34209C7.60195 8.5807 7.52172 8.85641 7.63059 9.16853C8.00861 10.251 8.59074 11.2058 9.42357 12.0002C10.0956 12.6413 10.8794 13.0926 11.7681 13.3608C11.9136 13.4046 12.0646 13.4303 12.2181 13.4143C12.5088 13.3841 12.696 13.1963 12.8648 12.9826C12.9698 12.8495 13.0768 12.7179 13.1753 12.5802C13.4723 12.1654 14.0905 12.0467 14.5535 12.2964C15.1314 12.6078 15.6755 12.9703 16.1923 13.3741C16.4549 13.5792 16.7109 13.7926 16.9702 14.0019C17.2427 14.2219 17.3916 14.4976 17.357 14.8565C17.3403 15.0309 17.2827 15.1934 17.1952 15.3422C16.8807 15.8772 16.4916 16.3499 15.994 16.7255C15.7511 16.9089 15.4812 17.0404 15.1772 17.0898C15.1098 17.101 15.0403 17.101 14.9716 17.106Z" fill="#FEFEFE"/>
<path d="M17.8058 9.97737C17.8058 10.0378 17.8058 10.0981 17.8058 10.1585C17.8054 10.3526 17.6724 10.5031 17.4932 10.5124C17.2966 10.5226 17.1498 10.3939 17.1329 10.1873C17.1212 10.0443 17.1213 9.90042 17.1146 9.75687C17.0516 8.42491 16.7409 7.16782 15.9355 6.07844C15.0313 4.85517 13.8221 4.08739 12.3402 3.74405C11.947 3.65295 11.5495 3.61206 11.1482 3.59066C11.0078 3.58324 10.8677 3.57013 10.7277 3.55633C10.6014 3.54373 10.5005 3.4221 10.4796 3.26371C10.4615 3.12672 10.5431 2.98438 10.6667 2.93641C10.7769 2.89362 10.8928 2.89345 11.0067 2.90346C11.2355 2.92365 11.4651 2.92434 11.6939 2.94866C12.264 3.00905 12.8173 3.13724 13.3551 3.33359C14.4224 3.72334 15.3351 4.34378 16.0939 5.18833C16.774 5.94541 17.2188 6.83051 17.494 7.80499C17.6391 8.31914 17.7328 8.84279 17.7737 9.37574C17.789 9.57588 17.8047 9.7762 17.8058 9.97737Z" fill="#FEFEFE"/>
<path d="M16.02 9.24217C16.02 9.3312 16.027 9.42092 16.0186 9.50891C15.9993 9.70871 15.8626 9.82568 15.6671 9.81896C15.5006 9.81326 15.3657 9.67282 15.3549 9.48907C15.3466 9.35139 15.3421 9.21353 15.3383 9.07568C15.3152 8.2363 15.0414 7.48594 14.5253 6.82686C13.947 6.08824 13.1757 5.65984 12.2705 5.45556C11.9959 5.39362 11.717 5.36153 11.4375 5.33375C11.2898 5.31908 11.1597 5.26905 11.0979 5.12274C11.046 4.99989 11.0674 4.87929 11.1507 4.77456C11.2406 4.66138 11.3721 4.63602 11.5015 4.64965C12.1535 4.71797 12.7929 4.84116 13.394 5.11739C14.6918 5.71384 15.5141 6.70954 15.8813 8.08498C15.982 8.46335 16.0253 8.85052 16.02 9.24217Z" fill="#FEFEFE"/>
<path d="M14.2746 8.74372C14.2746 8.80963 14.2791 8.87605 14.2737 8.94162C14.2597 9.11139 14.1352 9.23061 13.9733 9.23406C13.7827 9.2382 13.6526 9.13071 13.6274 8.94955C13.5944 8.71422 13.5693 8.47733 13.5039 8.24785C13.3429 7.68384 12.965 7.35068 12.4014 7.21662C12.2228 7.17417 12.0415 7.14691 11.8588 7.12983C11.7264 7.11741 11.6136 7.00026 11.5948 6.85291C11.5739 6.69108 11.6445 6.55615 11.7783 6.51147C11.9726 6.44659 12.1695 6.45867 12.3643 6.50646C12.7095 6.59135 13.0558 6.67589 13.3501 6.89156C13.8196 7.23577 14.0874 7.70765 14.2164 8.26597C14.2525 8.4228 14.2758 8.58188 14.2746 8.74372Z" fill="#FEFEFE"/>
</svg>
