<svg width="84" height="38" viewBox="0 0 84 38" fill="none" xmlns="http://www.w3.org/2000/svg">
<g opacity="0.5">
<path d="M82.4914 35.4265C82.4914 34.6034 83.1668 33.9362 84 33.9362V32.8097C83.1668 32.8097 82.4914 32.1425 82.4914 31.3193C82.4914 30.4962 83.1668 29.829 84 29.829V28.7025C83.1668 28.7025 82.4914 28.0353 82.4914 27.2122C82.4914 26.389 83.1668 25.7218 84 25.7218V24.5954C83.1668 24.5954 82.4914 23.9282 82.4914 23.105C82.4914 22.2818 83.1668 21.6146 84 21.6146V20.4882C83.1668 20.4882 82.4914 19.821 82.4914 18.9978C82.4914 18.1747 83.1668 17.5075 84 17.5075V16.381C83.1668 16.381 82.4914 15.7138 82.4914 14.8907C82.4914 14.0675 83.1668 13.4003 84 13.4003V12.2739C83.1668 12.2739 82.4914 11.6067 82.4914 10.7835C82.4914 9.96032 83.1668 9.29313 84 9.29313V8.16669C83.1668 8.16669 82.4914 7.49949 82.4914 6.67632C82.4914 5.85315 83.1668 5.18595 84 5.18595V4.05951C83.1668 4.05951 82.4914 3.39232 82.4914 2.56915C82.4914 1.74598 83.1668 1.07878 84 1.07878V0L18 0V1.08311C18.8332 1.08311 19.5086 1.75031 19.5086 2.57348C19.5086 3.39665 18.8332 4.06385 18 4.06385V5.19029C18.8332 5.19029 19.5086 5.85748 19.5086 6.68065C19.5086 7.50382 18.8332 8.17102 18 8.17102V9.29746C18.8332 9.29746 19.5086 9.96466 19.5086 10.7878C19.5086 11.611 18.8332 12.2782 18 12.2782V13.4046C18.8332 13.4046 19.5086 14.0718 19.5086 14.895C19.5086 15.7182 18.8332 16.3854 18 16.3854V17.5118C18.8332 17.5118 19.5086 18.179 19.5086 19.0022C19.5086 19.8253 18.8332 20.4925 18 20.4925V21.619C18.8332 21.619 19.5086 22.2862 19.5086 23.1093C19.5086 23.9325 18.8332 24.5997 18 24.5997V25.7261C18.8332 25.7261 19.5086 26.3933 19.5086 27.2165C19.5086 28.0397 18.8332 28.7025 18 28.7025V29.829C18.8332 29.829 19.5086 30.4962 19.5086 31.3193C19.5086 32.1425 18.8332 32.8097 18 32.8097V33.9362C18.8332 33.9362 19.5086 34.6034 19.5086 35.4265C19.5086 36.2497 18.8332 36.9169 18 36.9169V38H84V36.9169C83.1668 36.9169 82.4914 36.2497 82.4914 35.4265Z" fill="url(#paint0_linear_3_797)"/>
<path d="M78.8472 3.42264H66.9847V34.6337H78.8472V3.42264Z" fill="#FCEEBF"/>
<path d="M35.0504 3.50497H23.1879V34.5644H35.0504V3.50497Z" fill="#FCEEBF"/>
<path d="M77.0579 35.3529H24.9421C23.4905 35.3529 22.3108 34.1874 22.3108 32.7534V5.24227C22.3108 3.80822 23.4905 2.64279 24.9421 2.64279L77.0536 2.64279C78.5051 2.64279 79.6848 3.80822 79.6848 5.24227V32.7534C79.6892 34.1874 78.5095 35.3529 77.0579 35.3529ZM24.9421 3.50928C23.9729 3.50928 23.1879 4.28479 23.1879 5.24227V32.7534C23.1879 33.7109 23.9729 34.4864 24.9421 34.4864H77.0536C78.0227 34.4864 78.8077 33.7109 78.8077 32.7534V5.24227C78.8077 4.28479 78.0227 3.50928 77.0536 3.50928L24.9421 3.50928Z" fill="#090040"/>
<path d="M31.7833 30.8688H26.8102V29.5734C26.8102 29.2355 26.8409 28.9582 26.8936 28.7415C26.9506 28.5249 27.0471 28.3473 27.1786 28.2173C27.3102 28.0873 27.4724 27.9964 27.6654 27.9444C27.8583 27.8924 28.0995 27.8664 28.3934 27.8664H30.187C30.4808 27.8664 30.7264 27.8924 30.9193 27.9444C31.1123 27.9964 31.2746 28.0873 31.4061 28.2173C31.5377 28.3473 31.6342 28.5206 31.6912 28.7415C31.7482 28.9625 31.7745 29.2355 31.7745 29.5734V30.8688H31.7833ZM30.9413 29.6644V29.5517C30.9413 29.4477 30.9325 29.3698 30.915 29.3091C30.8974 29.2484 30.8667 29.2051 30.8229 29.1748C30.779 29.1445 30.7308 29.1228 30.6781 29.1141C30.6255 29.1055 30.551 29.1011 30.4545 29.1011H28.1215C28.025 29.1011 27.9504 29.1055 27.8978 29.1141C27.8452 29.1228 27.797 29.1445 27.7575 29.1748C27.7136 29.2051 27.6873 29.2528 27.6698 29.3091C27.6522 29.3698 27.6478 29.4521 27.6478 29.5517V29.6644H30.9413Z" fill="#1F1F1F"/>
<path d="M31.7833 27.2078H26.8102V26.0078H31.7789V27.2078H31.7833Z" fill="#1F1F1F"/>
<path d="M31.8622 23.9498C31.8622 24.4351 31.7394 24.7947 31.4894 25.0243C31.2395 25.2539 30.8272 25.3752 30.2484 25.3882L30.1124 24.3701C30.2747 24.3701 30.415 24.3614 30.5247 24.3441C30.6387 24.3268 30.722 24.3008 30.779 24.2661C30.836 24.2315 30.8799 24.1968 30.9018 24.1578C30.9237 24.1188 30.9369 24.0755 30.9369 24.0235C30.9369 23.8892 30.8404 23.8242 30.6431 23.8242C30.4501 23.8242 30.2878 23.8675 30.1475 23.9542C30.0116 24.0408 29.8581 24.1795 29.6958 24.3658L29.4283 24.6777C29.3318 24.7903 29.2441 24.8813 29.1696 24.955C29.095 25.0286 28.9985 25.1023 28.8889 25.1759C28.7793 25.2496 28.6565 25.3059 28.5205 25.3406C28.3846 25.3752 28.2399 25.3926 28.0732 25.3926C27.6435 25.3926 27.3102 25.2669 27.0777 25.007C26.8453 24.7514 26.7269 24.4004 26.7269 23.9498C26.7269 23.144 27.2093 22.7368 28.1785 22.7324L28.2837 23.7766C28.1522 23.7766 28.0557 23.7766 27.9899 23.7809C27.9241 23.7852 27.8583 23.7939 27.7882 23.8069C27.718 23.8199 27.6698 23.8415 27.6435 23.8719C27.6171 23.9022 27.604 23.9455 27.604 23.9932C27.604 24.0668 27.6435 24.1231 27.7224 24.1578C27.7969 24.1968 27.8759 24.2141 27.9548 24.2141C27.9987 24.2141 28.0381 24.2098 28.0776 24.2055C28.1171 24.1968 28.1522 24.1925 28.1829 24.1881C28.2136 24.1838 28.2486 24.1708 28.2837 24.1491C28.3188 24.1275 28.3495 24.1145 28.3714 24.1058C28.3934 24.0972 28.4241 24.0755 28.4591 24.0452C28.4942 24.0148 28.5205 23.9975 28.5337 23.9845C28.5468 23.9758 28.5732 23.9498 28.6082 23.9152C28.6433 23.8762 28.6653 23.8545 28.674 23.8459C28.6828 23.8372 28.7047 23.8112 28.7442 23.7679C28.7837 23.7246 28.8056 23.7029 28.81 23.6986L29.0643 23.4126C29.174 23.2913 29.2792 23.1917 29.3713 23.105C29.4678 23.0227 29.5774 22.9404 29.7046 22.8624C29.8274 22.7844 29.9633 22.7281 30.1124 22.6891C30.2615 22.6501 30.4194 22.6328 30.5861 22.6328C30.9457 22.6328 31.2439 22.7541 31.4894 22.9967C31.7394 23.235 31.8622 23.5556 31.8622 23.9498Z" fill="#1F1F1F"/>
<path d="M31.8622 20.6485C31.8622 20.9301 31.8227 21.1684 31.7482 21.3677C31.6736 21.567 31.564 21.723 31.4149 21.8399C31.2658 21.9569 31.0948 22.0392 30.8974 22.0912C30.7001 22.1432 30.4676 22.1692 30.2001 22.1692H28.4065C28.1346 22.1692 27.9022 22.1432 27.7049 22.0912C27.5075 22.0392 27.3321 21.9569 27.1874 21.8399C27.0383 21.723 26.9286 21.567 26.8541 21.3677C26.7795 21.1684 26.7401 20.9301 26.7401 20.6485C26.7401 20.4232 26.762 20.2283 26.8102 20.0593C26.8585 19.8903 26.9243 19.7517 27.0032 19.6391C27.0865 19.5307 27.1874 19.4398 27.3102 19.3704C27.433 19.3011 27.5645 19.2535 27.7049 19.2231C27.8452 19.1928 27.9987 19.1798 28.1741 19.1798H28.6214V20.3626H28.0776C28.0074 20.3626 27.9504 20.3626 27.9066 20.3669C27.8627 20.3712 27.8145 20.3799 27.7575 20.3972C27.7005 20.4146 27.6566 20.4449 27.6303 20.4839C27.5996 20.5272 27.5864 20.5792 27.5864 20.6442C27.5864 20.6962 27.5952 20.7438 27.6215 20.7828C27.6435 20.8218 27.6698 20.8521 27.7005 20.8695C27.7312 20.8911 27.7706 20.9041 27.8189 20.9171C27.8671 20.9258 27.911 20.9345 27.9504 20.9388C27.9899 20.9431 28.0338 20.9431 28.0864 20.9431H30.5334C30.586 20.9431 30.6299 20.9431 30.6694 20.9388C30.7088 20.9345 30.7527 20.9301 30.8009 20.9171C30.8492 20.9041 30.8886 20.8911 30.9193 20.8695C30.95 20.8478 30.9763 20.8218 30.9983 20.7828C31.0202 20.7438 31.029 20.7005 31.029 20.6485C31.029 20.5835 31.0158 20.5315 30.9851 20.4882C30.9544 20.4449 30.9106 20.4189 30.8536 20.4016C30.7965 20.3842 30.7439 20.3756 30.7001 20.3712C30.6518 20.3626 30.5948 20.3626 30.5203 20.3626H29.9502V19.1798H30.3931C30.5685 19.1798 30.7264 19.1928 30.8667 19.2231C31.007 19.2535 31.143 19.3011 31.2658 19.3704C31.393 19.4398 31.4982 19.5307 31.5815 19.6391C31.6649 19.7474 31.735 19.8903 31.7833 20.0593C31.8359 20.2283 31.8622 20.4232 31.8622 20.6485Z" fill="#1F1F1F"/>
<path d="M31.7526 16.433C31.8271 16.6323 31.8622 16.8706 31.8622 17.1522C31.8622 17.4338 31.8271 17.6721 31.7526 17.8671C31.678 18.062 31.5728 18.2223 31.4237 18.3393C31.2789 18.4563 31.1079 18.5386 30.9106 18.5906C30.7132 18.6426 30.4808 18.6686 30.2133 18.6686H28.3802C28.1127 18.6686 27.8803 18.6426 27.6829 18.5906C27.4856 18.5386 27.3145 18.4563 27.1698 18.3393C27.0251 18.2223 26.9155 18.0664 26.8409 17.8671C26.7664 17.6678 26.7313 17.4295 26.7313 17.1522C26.7313 16.8749 26.7664 16.6323 26.8409 16.433C26.9155 16.2337 27.0207 16.0778 27.1698 15.9608C27.3145 15.8438 27.4856 15.7572 27.6829 15.7052C27.8803 15.6532 28.1127 15.6272 28.3802 15.6272H30.2133C30.4808 15.6272 30.7132 15.6532 30.9106 15.7052C31.1079 15.7572 31.2789 15.8438 31.4237 15.9608C31.5684 16.0778 31.678 16.2337 31.7526 16.433ZM31.0202 17.1522C31.0202 17.0872 31.007 17.0352 30.9763 16.9919C30.9456 16.9486 30.9062 16.9226 30.8492 16.9009C30.7922 16.8836 30.7439 16.8706 30.6957 16.8663C30.6518 16.8619 30.5948 16.8576 30.5246 16.8576H28.0688C28.0031 16.8576 27.946 16.8619 27.8978 16.8663C27.854 16.8706 27.8013 16.8836 27.7443 16.9009C27.6873 16.9183 27.6478 16.9486 27.6171 16.9919C27.5864 17.0352 27.5733 17.0872 27.5733 17.1522C27.5733 17.2042 27.5821 17.2519 27.6084 17.2865C27.6303 17.3255 27.6566 17.3515 27.6829 17.3688C27.7136 17.3862 27.7531 17.4035 27.8013 17.4122C27.854 17.4208 27.8934 17.4295 27.9285 17.4295C27.9636 17.4295 28.0074 17.4295 28.0644 17.4295H30.5203C30.5773 17.4295 30.6211 17.4295 30.6562 17.4295C30.6913 17.4295 30.7308 17.4252 30.7834 17.4122C30.836 17.4035 30.8755 17.3862 30.9018 17.3688C30.9325 17.3515 30.9588 17.3212 30.9807 17.2865C31.007 17.2519 31.0202 17.2042 31.0202 17.1522Z" fill="#1F1F1F"/>
<path d="M31.8622 13.5086C31.8622 13.7946 31.8315 14.0328 31.7657 14.2235C31.6999 14.4184 31.5991 14.5701 31.4631 14.687C31.3272 14.7997 31.1649 14.882 30.972 14.9297C30.7834 14.9773 30.551 15.0033 30.2835 15.0033H26.8146V13.8076H30.4852C30.551 13.8076 30.6124 13.8032 30.6606 13.7989C30.7088 13.7946 30.7615 13.7816 30.8185 13.7642C30.8755 13.7469 30.9193 13.7166 30.95 13.6732C30.9807 13.6299 30.9983 13.5736 30.9983 13.5086C30.9983 13.4436 30.9807 13.3873 30.95 13.344C30.9193 13.3007 30.8755 13.2703 30.8185 13.253C30.7615 13.2357 30.7088 13.2227 30.6606 13.2183C30.6124 13.214 30.5554 13.2097 30.4852 13.2097H26.8146V12.0096H30.2791C30.551 12.0096 30.779 12.0356 30.9676 12.0832C31.1561 12.1309 31.3228 12.2132 31.4587 12.3259C31.5947 12.4385 31.6956 12.5945 31.7613 12.7894C31.8271 12.9887 31.8622 13.227 31.8622 13.5086Z" fill="#1F1F1F"/>
<path d="M31.7833 11.3337H26.8102V10.4802L28.9372 9.58341H26.8102V8.59128H31.7789V9.41011L29.4415 10.3026H31.7789V11.3337H31.7833Z" fill="#1F1F1F"/>
<path d="M31.7833 7.43451H27.7136V8.14936H26.8146V5.51523H27.7136V6.23008H31.7833V7.43451Z" fill="#1F1F1F"/>
<path d="M76.0712 27.2945C76.0712 27.5761 76.0318 27.8144 75.9572 28.0137C75.8827 28.213 75.773 28.3689 75.6239 28.4859C75.4748 28.6029 75.3038 28.6852 75.1064 28.7372C74.9091 28.7892 74.6767 28.8152 74.4092 28.8152H72.6156C72.3437 28.8152 72.1112 28.7892 71.9139 28.7372C71.7165 28.6852 71.5411 28.6029 71.3964 28.4859C71.2473 28.3689 71.1377 28.213 71.0631 28.0137C70.9886 27.8144 70.9491 27.5761 70.9491 27.2945C70.9491 27.0692 70.971 26.8742 71.0193 26.7053C71.0675 26.5363 71.1333 26.3977 71.2122 26.285C71.2955 26.1767 71.3964 26.0857 71.5192 26.0164C71.642 25.9471 71.7736 25.8994 71.9139 25.8691C72.0542 25.8388 72.2077 25.8258 72.3831 25.8258H72.8304V27.0085H72.2866C72.2165 27.0085 72.1595 27.0085 72.1156 27.0129C72.0718 27.0172 72.0235 27.0259 71.9665 27.0432C71.9095 27.0605 71.8656 27.0909 71.8393 27.1298C71.8086 27.1732 71.7955 27.2252 71.7955 27.2901C71.7955 27.3421 71.8043 27.3898 71.8306 27.4288C71.8525 27.4678 71.8788 27.4981 71.9095 27.5154C71.9402 27.5371 71.9797 27.5501 72.0279 27.5631C72.0761 27.5718 72.12 27.5804 72.1595 27.5848C72.1989 27.5891 72.2428 27.5891 72.2954 27.5891H74.7425C74.7951 27.5891 74.8389 27.5891 74.8784 27.5848C74.9179 27.5804 74.9617 27.5761 75.01 27.5631C75.0582 27.5501 75.0977 27.5371 75.1284 27.5154C75.1591 27.4938 75.1854 27.4678 75.2073 27.4288C75.2292 27.3898 75.238 27.3465 75.238 27.2945C75.238 27.2295 75.2249 27.1775 75.1942 27.1342C75.1635 27.0909 75.124 27.0649 75.0626 27.0475C75.0056 27.0302 74.953 27.0215 74.9091 27.0172C74.8653 27.0129 74.8082 27.0129 74.7381 27.0129H74.168V25.8301H74.6109C74.7863 25.8301 74.9442 25.8431 75.0845 25.8734C75.2249 25.9038 75.3608 25.9514 75.4836 26.0207C75.6108 26.0901 75.716 26.181 75.7993 26.2893C75.8827 26.3977 75.9528 26.5406 76.0011 26.7096C76.0493 26.8742 76.0712 27.0735 76.0712 27.2945Z" fill="#1F1F1F"/>
<path d="M75.9616 23.0833C76.0362 23.2826 76.0712 23.5209 76.0712 23.8025C76.0712 24.0841 76.0362 24.3224 75.9616 24.5174C75.887 24.7167 75.7818 24.8726 75.6327 24.9896C75.488 25.1066 75.3169 25.1889 75.1196 25.2409C74.9223 25.2929 74.6898 25.3189 74.4223 25.3189H72.5892C72.3217 25.3189 72.0893 25.2929 71.892 25.2409C71.6946 25.1889 71.5236 25.1066 71.3789 24.9896C71.2342 24.8726 71.1245 24.7167 71.05 24.5174C70.9754 24.3181 70.9403 24.0798 70.9403 23.8025C70.9403 23.5209 70.9754 23.2826 71.05 23.0833C71.1245 22.884 71.2298 22.7281 71.3789 22.6111C71.5236 22.4941 71.6946 22.4075 71.892 22.3555C72.0893 22.3035 72.3217 22.2775 72.5892 22.2775H74.4223C74.6898 22.2775 74.9223 22.3035 75.1196 22.3555C75.3169 22.4075 75.488 22.4941 75.6327 22.6111C75.7818 22.7281 75.8914 22.884 75.9616 23.0833ZM75.2292 23.8025C75.2292 23.7375 75.2161 23.6855 75.1854 23.6422C75.1547 23.5989 75.1152 23.5729 75.0582 23.5512C75.0012 23.5339 74.953 23.5209 74.9047 23.5166C74.8609 23.5122 74.8039 23.5079 74.7337 23.5079H72.2779C72.2121 23.5079 72.1551 23.5122 72.1068 23.5166C72.063 23.5209 72.0104 23.5339 71.9534 23.5512C71.8964 23.5686 71.8569 23.5989 71.8262 23.6422C71.7955 23.6855 71.7823 23.7375 71.7823 23.8025C71.7823 23.8545 71.7911 23.9022 71.8174 23.9368C71.8437 23.9715 71.8657 24.0018 71.892 24.0191C71.9227 24.0365 71.9621 24.0538 72.0104 24.0625C72.063 24.0711 72.1025 24.0798 72.1375 24.0798C72.1726 24.0798 72.2165 24.0798 72.2735 24.0798H74.7293C74.7863 24.0798 74.8302 24.0798 74.8653 24.0798C74.9003 24.0798 74.9398 24.0755 74.9924 24.0625C75.0451 24.0538 75.0845 24.0365 75.1108 24.0191C75.1415 24.0018 75.1678 23.9715 75.1898 23.9368C75.2205 23.8978 75.2292 23.8545 75.2292 23.8025Z" fill="#1F1F1F"/>
<path d="M76.0712 20.1589C76.0712 20.4449 76.0405 20.6831 75.9748 20.8738C75.909 21.0687 75.8081 21.2204 75.6722 21.3373C75.5362 21.45 75.374 21.5323 75.181 21.58C74.9924 21.6276 74.76 21.6536 74.4925 21.6536H71.0237V20.4579H74.6942C74.76 20.4579 74.8214 20.4535 74.8696 20.4492C74.9179 20.4449 74.9705 20.4319 75.0275 20.4145C75.0845 20.3972 75.1284 20.3669 75.1591 20.3235C75.1898 20.2802 75.2073 20.2239 75.2073 20.1589C75.2073 20.0939 75.1898 20.0376 75.1591 19.9943C75.1284 19.951 75.0845 19.9206 75.0275 19.9033C74.9705 19.886 74.9179 19.873 74.8696 19.8686C74.8214 19.8643 74.7644 19.86 74.6942 19.86H71.0237V18.6599H74.4925C74.7644 18.6599 74.9924 18.6859 75.181 18.7335C75.3696 18.7812 75.5362 18.8635 75.6722 18.9762C75.8081 19.0888 75.909 19.2448 75.9748 19.4397C76.0405 19.639 76.0712 19.8773 76.0712 20.1589Z" fill="#1F1F1F"/>
<path d="M75.9967 17.9797H71.028V16.2034C71.028 15.7658 71.1508 15.4365 71.4008 15.2156C71.6508 14.9946 72.0104 14.882 72.484 14.882C72.7296 14.882 72.9401 14.908 73.1155 14.9643C73.2909 15.0206 73.4356 15.0899 73.5365 15.1766C73.6417 15.2632 73.7251 15.3716 73.7865 15.5059C73.8478 15.6402 73.8873 15.7745 73.9092 15.9088C73.9312 16.0431 73.9399 16.1947 73.9399 16.3724V16.7796H75.9923V17.9797H75.9967ZM73.0979 16.7796V16.3983C73.0979 16.238 73.0497 16.1297 72.9488 16.0864C72.848 16.0388 72.6857 16.0171 72.4577 16.0171C72.3919 16.0171 72.3349 16.0171 72.291 16.0214C72.2472 16.0258 72.1946 16.0344 72.1375 16.0474C72.0805 16.0604 72.0367 16.0821 72.0016 16.1124C71.9665 16.1384 71.9358 16.1774 71.9139 16.2294C71.892 16.2814 71.8788 16.342 71.8788 16.4113V16.7796H73.0979Z" fill="#1F1F1F"/>
<path d="M75.9616 12.1829C76.0362 12.3821 76.0712 12.6204 76.0712 12.902C76.0712 13.1837 76.0362 13.4219 75.9616 13.6169C75.887 13.8162 75.7818 13.9722 75.6327 14.0891C75.488 14.2061 75.3169 14.2884 75.1196 14.3404C74.9223 14.3924 74.6898 14.4184 74.4223 14.4184H72.5892C72.3217 14.4184 72.0893 14.3924 71.892 14.3404C71.6946 14.2884 71.5236 14.2061 71.3789 14.0891C71.2342 13.9722 71.1245 13.8162 71.05 13.6169C70.9754 13.4176 70.9403 13.1793 70.9403 12.902C70.9403 12.6204 70.9754 12.3821 71.05 12.1829C71.1245 11.9836 71.2298 11.8276 71.3789 11.7106C71.5236 11.5936 71.6946 11.507 71.892 11.455C72.0893 11.403 72.3217 11.377 72.5892 11.377H74.4223C74.6898 11.377 74.9223 11.403 75.1196 11.455C75.3169 11.507 75.488 11.5936 75.6327 11.7106C75.7774 11.8276 75.8914 11.9836 75.9616 12.1829ZM75.2292 12.902C75.2292 12.8371 75.2161 12.7851 75.1854 12.7417C75.1547 12.6984 75.1152 12.6724 75.0582 12.6508C75.0012 12.6291 74.953 12.6204 74.9047 12.6161C74.8609 12.6118 74.8039 12.6074 74.7337 12.6074H72.2779C72.2121 12.6074 72.1551 12.6118 72.1068 12.6161C72.063 12.6204 72.0104 12.6334 71.9534 12.6508C71.8964 12.6681 71.8569 12.6984 71.8262 12.7417C71.7955 12.7851 71.7823 12.8371 71.7823 12.902C71.7823 12.954 71.7911 13.0017 71.8174 13.0363C71.8393 13.0753 71.8657 13.1013 71.892 13.1187C71.9227 13.136 71.9621 13.1533 72.0104 13.162C72.063 13.1707 72.1025 13.1793 72.1375 13.1793C72.1726 13.1793 72.2165 13.1793 72.2735 13.1793H74.7293C74.7863 13.1793 74.8302 13.1793 74.8653 13.1793C74.9003 13.1793 74.9398 13.175 74.9924 13.162C75.0451 13.1533 75.0845 13.136 75.1108 13.1187C75.1415 13.1013 75.1678 13.071 75.1898 13.0363C75.2205 13.0017 75.2292 12.954 75.2292 12.902Z" fill="#1F1F1F"/>
<path d="M75.9967 10.7272H71.028V9.87366L73.155 8.97684H71.028V7.98471H75.9967V8.80355L73.6593 9.69603H75.9967V10.7272Z" fill="#1F1F1F"/>
<path d="M46.2243 11.2774V17.3515H43.6194V14.7304H43.1151V17.3515H40.5102V11.2774H43.1151V13.7772H43.6194V11.2774H46.2243Z" fill="#1F1F1F"/>
<path d="M49.3906 16.0258L49.2108 17.3515H46.6453L47.9916 11.2774H51.5131L52.8594 17.3515H50.2939L50.1141 16.0258H49.3906ZM49.5046 15.1506H49.9914L49.7502 13.5389L49.5046 15.1506Z" fill="#1F1F1F"/>
<path d="M53.276 17.3515V11.2774H55.8809V16.42H57.2799V17.3472H53.276V17.3515Z" fill="#1F1F1F"/>
<path d="M61.6959 11.2774V12.1959H60.297V13.7209H61.5995V14.6697H60.297V17.3558H57.6921V11.2774H61.6959Z" fill="#1F1F1F"/>
<path d="M38.0105 20.6355H41.146C41.5758 20.6355 41.9354 20.6572 42.2292 20.7048C42.5231 20.7525 42.7643 20.8132 42.9572 20.8868C43.1502 20.9648 43.2949 21.0514 43.4001 21.1511C43.5054 21.2507 43.5799 21.3547 43.6282 21.4674C43.6764 21.58 43.7027 21.6883 43.7115 21.801C43.7203 21.9136 43.7247 22.0219 43.7247 22.1216V23.5729C43.7247 23.6726 43.7203 23.7809 43.7115 23.8935C43.7027 24.0062 43.6764 24.1188 43.6282 24.2271C43.5799 24.3354 43.5054 24.4438 43.4001 24.5434C43.2949 24.6431 43.1502 24.734 42.9572 24.812C42.7643 24.89 42.5231 24.9507 42.2292 24.994C41.9354 25.0416 41.5714 25.0633 41.146 25.0633H40.6154V26.7096H38.0105V20.6355ZM40.6154 24.1795H41.1197V21.515H40.6154V24.1795Z" fill="#1F1F1F"/>
<path d="M47.2812 24.2401H46.7769V26.7096H44.172V20.6355H47.2637C47.7022 20.6355 48.0706 20.6572 48.3688 20.7048C48.667 20.7525 48.917 20.8175 49.1099 20.8998C49.3029 20.9821 49.4564 21.0818 49.5616 21.1944C49.6669 21.3071 49.7458 21.4327 49.794 21.5713C49.8423 21.71 49.8686 21.8529 49.8773 22.0089C49.8861 22.1649 49.8905 22.3209 49.8905 22.4812C49.8905 22.6761 49.8773 22.8407 49.8467 22.9707C49.8203 23.1007 49.7809 23.209 49.7326 23.2957C49.6844 23.3823 49.6362 23.4473 49.5791 23.4993C49.5221 23.5469 49.4651 23.5859 49.4037 23.6163C49.3336 23.6509 49.259 23.6812 49.1757 23.7072C49.0924 23.7332 49.009 23.7506 48.9257 23.7636C49.0178 23.7722 49.1231 23.7939 49.2327 23.8286C49.3423 23.8675 49.4476 23.9239 49.5441 24.0062C49.6405 24.0885 49.7239 24.1968 49.7853 24.3354C49.8467 24.4698 49.8773 24.6431 49.8773 24.8553L49.8861 26.7096H47.2812V24.2401ZM46.7769 23.3563H47.2812V21.515H46.7769V23.3563Z" fill="#1F1F1F"/>
<path d="M53.0962 20.6355V26.7096H50.4913V20.6355H53.0962Z" fill="#1F1F1F"/>
<path d="M56.9115 21.515H56.4072V25.8215H56.9115V24.0972H59.5164V25.2973C59.5164 25.3969 59.5076 25.5095 59.4945 25.6265C59.4813 25.7435 59.4419 25.8605 59.3848 25.9731C59.3278 26.0901 59.2357 26.1984 59.1173 26.3067C58.9989 26.415 58.8367 26.506 58.6262 26.5883C58.4157 26.6706 58.1526 26.7356 57.8412 26.7833C57.5254 26.8353 57.1439 26.8569 56.6922 26.8569C56.2361 26.8569 55.8502 26.8309 55.5301 26.7833C55.21 26.7356 54.9425 26.6706 54.732 26.5883C54.5171 26.506 54.3504 26.415 54.2232 26.3067C54.1005 26.1984 54.004 26.0901 53.9426 25.9731C53.8812 25.8561 53.8417 25.7392 53.8242 25.6265C53.8066 25.5095 53.7979 25.4012 53.7979 25.2973V22.0392C53.7979 21.9396 53.8066 21.8313 53.8242 21.7143C53.8417 21.5973 53.8812 21.4847 53.9426 21.372C54.004 21.2594 54.0961 21.1468 54.2189 21.0428C54.3417 20.9388 54.5127 20.8435 54.7232 20.7655C54.9381 20.6875 55.2012 20.6225 55.5213 20.5749C55.8415 20.5272 56.2274 20.5012 56.6791 20.5012C57.1308 20.5012 57.5167 20.5272 57.8324 20.5749C58.1482 20.6225 58.4113 20.6875 58.6218 20.7655C58.8323 20.8478 58.9945 20.9388 59.1173 21.0428C59.2357 21.1468 59.3278 21.2594 59.3848 21.372C59.4419 21.4847 59.4813 21.6017 59.4945 21.7143C59.5076 21.8313 59.5164 21.9396 59.5164 22.0392V23.248H56.9115V21.515Z" fill="#1F1F1F"/>
<path d="M64.1737 20.6355V21.554H62.7748V23.0487H64.0772V24.0018H62.7748V25.7782H64.1737V26.7053H60.1698V20.6355H64.1737Z" fill="#1F1F1F"/>
</g>
<path d="M64.4914 35.4265C64.4914 34.6034 65.1668 33.9362 66 33.9362V32.8097C65.1668 32.8097 64.4914 32.1425 64.4914 31.3193C64.4914 30.4962 65.1668 29.829 66 29.829V28.7025C65.1668 28.7025 64.4914 28.0353 64.4914 27.2122C64.4914 26.389 65.1668 25.7218 66 25.7218V24.5954C65.1668 24.5954 64.4914 23.9282 64.4914 23.105C64.4914 22.2818 65.1668 21.6146 66 21.6146V20.4882C65.1668 20.4882 64.4914 19.821 64.4914 18.9978C64.4914 18.1747 65.1668 17.5075 66 17.5075V16.381C65.1668 16.381 64.4914 15.7138 64.4914 14.8907C64.4914 14.0675 65.1668 13.4003 66 13.4003V12.2739C65.1668 12.2739 64.4914 11.6067 64.4914 10.7835C64.4914 9.96032 65.1668 9.29313 66 9.29313V8.16669C65.1668 8.16669 64.4914 7.49949 64.4914 6.67632C64.4914 5.85315 65.1668 5.18595 66 5.18595V4.05951C65.1668 4.05951 64.4914 3.39232 64.4914 2.56915C64.4914 1.74598 65.1668 1.07878 66 1.07878V0L0 0L0 1.08311C0.833223 1.08311 1.50857 1.75031 1.50857 2.57348C1.50857 3.39665 0.833223 4.06385 0 4.06385L0 5.19029C0.833223 5.19029 1.50857 5.85748 1.50857 6.68065C1.50857 7.50382 0.833223 8.17102 0 8.17102L0 9.29746C0.833223 9.29746 1.50857 9.96466 1.50857 10.7878C1.50857 11.611 0.833223 12.2782 0 12.2782L0 13.4046C0.833223 13.4046 1.50857 14.0718 1.50857 14.895C1.50857 15.7182 0.833223 16.3854 0 16.3854L0 17.5118C0.833223 17.5118 1.50857 18.179 1.50857 19.0022C1.50857 19.8253 0.833223 20.4925 0 20.4925L0 21.619C0.833223 21.619 1.50857 22.2862 1.50857 23.1093C1.50857 23.9325 0.833223 24.5997 0 24.5997L0 25.7261C0.833223 25.7261 1.50857 26.3933 1.50857 27.2165C1.50857 28.0397 0.833223 28.7025 0 28.7025L0 29.829C0.833223 29.829 1.50857 30.4962 1.50857 31.3193C1.50857 32.1425 0.833223 32.8097 0 32.8097L0 33.9362C0.833223 33.9362 1.50857 34.6034 1.50857 35.4265C1.50857 36.2497 0.833223 36.9169 0 36.9169L0 38H66V36.9169C65.1668 36.9169 64.4914 36.2497 64.4914 35.4265Z" fill="url(#paint1_linear_3_797)"/>
<path d="M60.8472 3.42264H48.9847V34.6337H60.8472V3.42264Z" fill="#FCEEBF"/>
<path d="M17.0504 3.50497H5.18791V34.5644H17.0504V3.50497Z" fill="#FCEEBF"/>
<path d="M59.0579 35.3529H6.94207C5.4905 35.3529 4.31084 34.1874 4.31084 32.7534V5.24227C4.31084 3.80822 5.4905 2.64279 6.94207 2.64279L59.0536 2.64279C60.5051 2.64279 61.6848 3.80822 61.6848 5.24227V32.7534C61.6892 34.1874 60.5095 35.3529 59.0579 35.3529ZM6.94207 3.50928C5.9729 3.50928 5.18791 4.28479 5.18791 5.24227V32.7534C5.18791 33.7109 5.9729 34.4864 6.94207 34.4864H59.0536C60.0227 34.4864 60.8077 33.7109 60.8077 32.7534V5.24227C60.8077 4.28479 60.0227 3.50928 59.0536 3.50928L6.94207 3.50928Z" fill="#090040"/>
<path d="M13.7833 30.8688H8.81024V29.5734C8.81024 29.2355 8.84094 28.9582 8.89356 28.7415C8.95057 28.5249 9.04705 28.3473 9.17861 28.2173C9.31018 28.0873 9.47243 27.9964 9.66539 27.9444C9.85835 27.8924 10.0995 27.8664 10.3934 27.8664H12.187C12.4808 27.8664 12.7264 27.8924 12.9193 27.9444C13.1123 27.9964 13.2746 28.0873 13.4061 28.2173C13.5377 28.3473 13.6342 28.5206 13.6912 28.7415C13.7482 28.9625 13.7745 29.2355 13.7745 29.5734V30.8688H13.7833ZM12.9413 29.6644V29.5517C12.9413 29.4477 12.9325 29.3698 12.915 29.3091C12.8974 29.2484 12.8667 29.2051 12.8229 29.1748C12.779 29.1445 12.7308 29.1228 12.6781 29.1141C12.6255 29.1055 12.551 29.1011 12.4545 29.1011H10.1215C10.025 29.1011 9.95044 29.1055 9.89782 29.1141C9.84519 29.1228 9.79695 29.1445 9.75748 29.1748C9.71363 29.2051 9.68732 29.2528 9.66978 29.3091C9.65223 29.3698 9.64785 29.4521 9.64785 29.5517V29.6644H12.9413Z" fill="#1F1F1F"/>
<path d="M13.7833 27.2078H8.81024V26.0078H13.7789V27.2078H13.7833Z" fill="#1F1F1F"/>
<path d="M13.8622 23.9498C13.8622 24.4351 13.7394 24.7947 13.4894 25.0243C13.2395 25.2539 12.8272 25.3752 12.2484 25.3882L12.1124 24.3701C12.2747 24.3701 12.415 24.3614 12.5247 24.3441C12.6387 24.3268 12.722 24.3008 12.779 24.2661C12.836 24.2315 12.8799 24.1968 12.9018 24.1578C12.9237 24.1188 12.9369 24.0755 12.9369 24.0235C12.9369 23.8892 12.8404 23.8242 12.6431 23.8242C12.4501 23.8242 12.2878 23.8675 12.1475 23.9542C12.0116 24.0408 11.8581 24.1795 11.6958 24.3658L11.4283 24.6777C11.3318 24.7903 11.2441 24.8813 11.1696 24.955C11.095 25.0286 10.9985 25.1023 10.8889 25.1759C10.7793 25.2496 10.6565 25.3059 10.5205 25.3406C10.3846 25.3752 10.2399 25.3926 10.0732 25.3926C9.64346 25.3926 9.31017 25.2669 9.07774 25.007C8.84532 24.7514 8.72691 24.4004 8.72691 23.9498C8.72691 23.144 9.20931 22.7368 10.1785 22.7324L10.2837 23.7766C10.1522 23.7766 10.0557 23.7766 9.9899 23.7809C9.92412 23.7852 9.85834 23.7939 9.78818 23.8069C9.71801 23.8199 9.66977 23.8415 9.64346 23.8719C9.61715 23.9022 9.60399 23.9455 9.60399 23.9932C9.60399 24.0668 9.64346 24.1231 9.7224 24.1578C9.79695 24.1968 9.87588 24.2141 9.95482 24.2141C9.99867 24.2141 10.0381 24.2098 10.0776 24.2055C10.1171 24.1968 10.1522 24.1925 10.1829 24.1881C10.2136 24.1838 10.2486 24.1708 10.2837 24.1491C10.3188 24.1275 10.3495 24.1145 10.3714 24.1058C10.3934 24.0972 10.4241 24.0755 10.4591 24.0452C10.4942 24.0148 10.5205 23.9975 10.5337 23.9845C10.5468 23.9758 10.5732 23.9498 10.6082 23.9152C10.6433 23.8762 10.6653 23.8545 10.674 23.8459C10.6828 23.8372 10.7047 23.8112 10.7442 23.7679C10.7837 23.7246 10.8056 23.7029 10.81 23.6986L11.0643 23.4126C11.174 23.2913 11.2792 23.1917 11.3713 23.105C11.4678 23.0227 11.5774 22.9404 11.7046 22.8624C11.8274 22.7844 11.9633 22.7281 12.1124 22.6891C12.2615 22.6501 12.4194 22.6328 12.5861 22.6328C12.9457 22.6328 13.2439 22.7541 13.4894 22.9967C13.7394 23.235 13.8622 23.5556 13.8622 23.9498Z" fill="#1F1F1F"/>
<path d="M13.8622 20.6485C13.8622 20.9301 13.8227 21.1684 13.7482 21.3677C13.6736 21.567 13.564 21.723 13.4149 21.8399C13.2658 21.9569 13.0948 22.0392 12.8974 22.0912C12.7001 22.1432 12.4676 22.1692 12.2001 22.1692H10.4065C10.1346 22.1692 9.90219 22.1432 9.70485 22.0912C9.50751 22.0392 9.33209 21.9569 9.18738 21.8399C9.03827 21.723 8.92864 21.567 8.85409 21.3677C8.77954 21.1684 8.74007 20.9301 8.74007 20.6485C8.74007 20.4232 8.76199 20.2283 8.81023 20.0593C8.85847 19.8903 8.92425 19.7517 9.00319 19.6391C9.08651 19.5307 9.18738 19.4398 9.31017 19.3704C9.43296 19.3011 9.56452 19.2535 9.70485 19.2231C9.84518 19.1928 9.99867 19.1798 10.1741 19.1798H10.6214V20.3626H10.0776C10.0074 20.3626 9.95043 20.3626 9.90658 20.3669C9.86272 20.3712 9.81449 20.3799 9.75748 20.3972C9.70047 20.4146 9.65661 20.4449 9.6303 20.4839C9.5996 20.5272 9.58645 20.5792 9.58645 20.6442C9.58645 20.6962 9.59522 20.7438 9.62153 20.7828C9.64346 20.8218 9.66977 20.8521 9.70047 20.8695C9.73116 20.8911 9.77063 20.9041 9.81887 20.9171C9.86711 20.9258 9.91096 20.9345 9.95043 20.9388C9.9899 20.9431 10.0338 20.9431 10.0864 20.9431H12.5334C12.586 20.9431 12.6299 20.9431 12.6694 20.9388C12.7088 20.9345 12.7527 20.9301 12.8009 20.9171C12.8492 20.9041 12.8886 20.8911 12.9193 20.8695C12.95 20.8478 12.9763 20.8218 12.9983 20.7828C13.0202 20.7438 13.029 20.7005 13.029 20.6485C13.029 20.5835 13.0158 20.5315 12.9851 20.4882C12.9544 20.4449 12.9106 20.4189 12.8536 20.4016C12.7965 20.3842 12.7439 20.3756 12.7001 20.3712C12.6518 20.3626 12.5948 20.3626 12.5203 20.3626H11.9502V19.1798H12.3931C12.5685 19.1798 12.7264 19.1928 12.8667 19.2231C13.007 19.2535 13.143 19.3011 13.2658 19.3704C13.393 19.4398 13.4982 19.5307 13.5815 19.6391C13.6649 19.7474 13.735 19.8903 13.7833 20.0593C13.8359 20.2283 13.8622 20.4232 13.8622 20.6485Z" fill="#1F1F1F"/>
<path d="M13.7526 16.433C13.8271 16.6323 13.8622 16.8706 13.8622 17.1522C13.8622 17.4338 13.8271 17.6721 13.7526 17.8671C13.678 18.062 13.5728 18.2223 13.4237 18.3393C13.2789 18.4563 13.1079 18.5386 12.9106 18.5906C12.7132 18.6426 12.4808 18.6686 12.2133 18.6686H10.3802C10.1127 18.6686 9.88026 18.6426 9.68292 18.5906C9.48558 18.5386 9.31455 18.4563 9.16983 18.3393C9.02511 18.2223 8.91548 18.0664 8.84093 17.8671C8.76638 17.6678 8.73129 17.4295 8.73129 17.1522C8.73129 16.8749 8.76638 16.6323 8.84093 16.433C8.91548 16.2337 9.02073 16.0778 9.16983 15.9608C9.31455 15.8438 9.48558 15.7572 9.68292 15.7052C9.88026 15.6532 10.1127 15.6272 10.3802 15.6272H12.2133C12.4808 15.6272 12.7132 15.6532 12.9106 15.7052C13.1079 15.7572 13.2789 15.8438 13.4237 15.9608C13.5684 16.0778 13.678 16.2337 13.7526 16.433ZM13.0202 17.1522C13.0202 17.0872 13.007 17.0352 12.9763 16.9919C12.9456 16.9486 12.9062 16.9226 12.8492 16.9009C12.7922 16.8836 12.7439 16.8706 12.6957 16.8663C12.6518 16.8619 12.5948 16.8576 12.5246 16.8576H10.0688C10.0031 16.8576 9.94604 16.8619 9.8978 16.8663C9.85395 16.8706 9.80133 16.8836 9.74432 16.9009C9.68731 16.9183 9.64784 16.9486 9.61714 16.9919C9.58644 17.0352 9.57329 17.0872 9.57329 17.1522C9.57329 17.2042 9.58206 17.2519 9.60837 17.2865C9.6303 17.3255 9.65661 17.3515 9.68292 17.3688C9.71362 17.3862 9.75309 17.4035 9.80133 17.4122C9.85395 17.4208 9.89342 17.4295 9.9285 17.4295C9.96358 17.4295 10.0074 17.4295 10.0644 17.4295H12.5203C12.5773 17.4295 12.6211 17.4295 12.6562 17.4295C12.6913 17.4295 12.7308 17.4252 12.7834 17.4122C12.836 17.4035 12.8755 17.3862 12.9018 17.3688C12.9325 17.3515 12.9588 17.3212 12.9807 17.2865C13.007 17.2519 13.0202 17.2042 13.0202 17.1522Z" fill="#1F1F1F"/>
<path d="M13.8622 13.5086C13.8622 13.7946 13.8315 14.0328 13.7657 14.2235C13.6999 14.4184 13.5991 14.5701 13.4631 14.687C13.3272 14.7997 13.1649 14.882 12.972 14.9297C12.7834 14.9773 12.551 15.0033 12.2835 15.0033H8.81462V13.8076H12.4852C12.551 13.8076 12.6124 13.8032 12.6606 13.7989C12.7088 13.7946 12.7615 13.7816 12.8185 13.7642C12.8755 13.7469 12.9193 13.7166 12.95 13.6732C12.9807 13.6299 12.9983 13.5736 12.9983 13.5086C12.9983 13.4436 12.9807 13.3873 12.95 13.344C12.9193 13.3007 12.8755 13.2703 12.8185 13.253C12.7615 13.2357 12.7088 13.2227 12.6606 13.2183C12.6124 13.214 12.5554 13.2097 12.4852 13.2097H8.81462V12.0096H12.2791C12.551 12.0096 12.779 12.0356 12.9676 12.0832C13.1561 12.1309 13.3228 12.2132 13.4587 12.3259C13.5947 12.4385 13.6956 12.5945 13.7613 12.7894C13.8271 12.9887 13.8622 13.227 13.8622 13.5086Z" fill="#1F1F1F"/>
<path d="M13.7833 11.3337H8.81024V10.4802L10.9372 9.58341H8.81024V8.59128H13.7789V9.41011L11.4415 10.3026H13.7789V11.3337H13.7833Z" fill="#1F1F1F"/>
<path d="M13.7833 7.43451H9.71362V8.14936H8.81462V5.51523H9.71362V6.23008H13.7833V7.43451Z" fill="#1F1F1F"/>
<path d="M58.0712 27.2945C58.0712 27.5761 58.0318 27.8144 57.9572 28.0137C57.8827 28.213 57.773 28.3689 57.6239 28.4859C57.4748 28.6029 57.3038 28.6852 57.1065 28.7372C56.9091 28.7892 56.6767 28.8152 56.4092 28.8152H54.6156C54.3437 28.8152 54.1112 28.7892 53.9139 28.7372C53.7166 28.6852 53.5411 28.6029 53.3964 28.4859C53.2473 28.3689 53.1377 28.213 53.0631 28.0137C52.9886 27.8144 52.9491 27.5761 52.9491 27.2945C52.9491 27.0692 52.971 26.8742 53.0193 26.7053C53.0675 26.5363 53.1333 26.3977 53.2122 26.285C53.2956 26.1767 53.3964 26.0857 53.5192 26.0164C53.642 25.9471 53.7736 25.8994 53.9139 25.8691C54.0542 25.8388 54.2077 25.8258 54.3831 25.8258H54.8304V27.0085H54.2867C54.2165 27.0085 54.1595 27.0085 54.1156 27.0129C54.0718 27.0172 54.0235 27.0259 53.9665 27.0432C53.9095 27.0605 53.8657 27.0909 53.8393 27.1298C53.8086 27.1732 53.7955 27.2252 53.7955 27.2901C53.7955 27.3421 53.8043 27.3898 53.8306 27.4288C53.8525 27.4678 53.8788 27.4981 53.9095 27.5154C53.9402 27.5371 53.9797 27.5501 54.0279 27.5631C54.0762 27.5718 54.12 27.5804 54.1595 27.5848C54.1989 27.5891 54.2428 27.5891 54.2954 27.5891H56.7425C56.7951 27.5891 56.8389 27.5891 56.8784 27.5848C56.9179 27.5804 56.9617 27.5761 57.01 27.5631C57.0582 27.5501 57.0977 27.5371 57.1284 27.5154C57.1591 27.4938 57.1854 27.4678 57.2073 27.4288C57.2292 27.3898 57.238 27.3465 57.238 27.2945C57.238 27.2295 57.2249 27.1775 57.1942 27.1342C57.1635 27.0909 57.124 27.0649 57.0626 27.0475C57.0056 27.0302 56.953 27.0215 56.9091 27.0172C56.8653 27.0129 56.8083 27.0129 56.7381 27.0129H56.168V25.8301H56.6109C56.7863 25.8301 56.9442 25.8431 57.0845 25.8734C57.2249 25.9038 57.3608 25.9514 57.4836 26.0207C57.6108 26.0901 57.716 26.181 57.7993 26.2893C57.8827 26.3977 57.9528 26.5406 58.0011 26.7096C58.0493 26.8742 58.0712 27.0735 58.0712 27.2945Z" fill="#1F1F1F"/>
<path d="M57.9616 23.0833C58.0362 23.2826 58.0712 23.5209 58.0712 23.8025C58.0712 24.0841 58.0362 24.3224 57.9616 24.5174C57.887 24.7167 57.7818 24.8726 57.6327 24.9896C57.488 25.1066 57.3169 25.1889 57.1196 25.2409C56.9223 25.2929 56.6898 25.3189 56.4223 25.3189H54.5892C54.3217 25.3189 54.0893 25.2929 53.892 25.2409C53.6946 25.1889 53.5236 25.1066 53.3789 24.9896C53.2342 24.8726 53.1245 24.7167 53.05 24.5174C52.9754 24.3181 52.9403 24.0798 52.9403 23.8025C52.9403 23.5209 52.9754 23.2826 53.05 23.0833C53.1245 22.884 53.2298 22.7281 53.3789 22.6111C53.5236 22.4941 53.6946 22.4075 53.892 22.3555C54.0893 22.3035 54.3217 22.2775 54.5892 22.2775H56.4223C56.6898 22.2775 56.9223 22.3035 57.1196 22.3555C57.3169 22.4075 57.488 22.4941 57.6327 22.6111C57.7818 22.7281 57.8914 22.884 57.9616 23.0833ZM57.2292 23.8025C57.2292 23.7375 57.2161 23.6855 57.1854 23.6422C57.1547 23.5989 57.1152 23.5729 57.0582 23.5512C57.0012 23.5339 56.953 23.5209 56.9047 23.5166C56.8609 23.5122 56.8039 23.5079 56.7337 23.5079H54.2779C54.2121 23.5079 54.1551 23.5122 54.1068 23.5166C54.063 23.5209 54.0104 23.5339 53.9534 23.5512C53.8964 23.5686 53.8569 23.5989 53.8262 23.6422C53.7955 23.6855 53.7823 23.7375 53.7823 23.8025C53.7823 23.8545 53.7911 23.9022 53.8174 23.9368C53.8437 23.9715 53.8657 24.0018 53.892 24.0191C53.9227 24.0365 53.9621 24.0538 54.0104 24.0625C54.063 24.0711 54.1025 24.0798 54.1375 24.0798C54.1726 24.0798 54.2165 24.0798 54.2735 24.0798H56.7293C56.7863 24.0798 56.8302 24.0798 56.8653 24.0798C56.9003 24.0798 56.9398 24.0755 56.9924 24.0625C57.0451 24.0538 57.0845 24.0365 57.1108 24.0191C57.1415 24.0018 57.1678 23.9715 57.1898 23.9368C57.2205 23.8978 57.2292 23.8545 57.2292 23.8025Z" fill="#1F1F1F"/>
<path d="M58.0712 20.1589C58.0712 20.4449 58.0405 20.6831 57.9748 20.8738C57.909 21.0687 57.8081 21.2204 57.6722 21.3373C57.5362 21.45 57.374 21.5323 57.181 21.58C56.9924 21.6276 56.76 21.6536 56.4925 21.6536H53.0237V20.4579H56.6942C56.76 20.4579 56.8214 20.4535 56.8696 20.4492C56.9179 20.4449 56.9705 20.4319 57.0275 20.4145C57.0845 20.3972 57.1284 20.3669 57.1591 20.3235C57.1898 20.2802 57.2073 20.2239 57.2073 20.1589C57.2073 20.0939 57.1898 20.0376 57.1591 19.9943C57.1284 19.951 57.0845 19.9206 57.0275 19.9033C56.9705 19.886 56.9179 19.873 56.8696 19.8686C56.8214 19.8643 56.7644 19.86 56.6942 19.86H53.0237V18.6599H56.4925C56.7644 18.6599 56.9924 18.6859 57.181 18.7335C57.3696 18.7812 57.5362 18.8635 57.6722 18.9762C57.8081 19.0888 57.909 19.2448 57.9748 19.4397C58.0405 19.639 58.0712 19.8773 58.0712 20.1589Z" fill="#1F1F1F"/>
<path d="M57.9967 17.9797H53.028V16.2034C53.028 15.7658 53.1508 15.4365 53.4008 15.2156C53.6508 14.9946 54.0104 14.882 54.484 14.882C54.7296 14.882 54.9401 14.908 55.1155 14.9643C55.2909 15.0206 55.4356 15.0899 55.5365 15.1766C55.6417 15.2632 55.7251 15.3716 55.7865 15.5059C55.8478 15.6402 55.8873 15.7745 55.9092 15.9088C55.9312 16.0431 55.9399 16.1947 55.9399 16.3724V16.7796H57.9923V17.9797H57.9967ZM55.0979 16.7796V16.3983C55.0979 16.238 55.0497 16.1297 54.9488 16.0864C54.848 16.0388 54.6857 16.0171 54.4577 16.0171C54.3919 16.0171 54.3349 16.0171 54.291 16.0214C54.2472 16.0258 54.1946 16.0344 54.1375 16.0474C54.0805 16.0604 54.0367 16.0821 54.0016 16.1124C53.9665 16.1384 53.9358 16.1774 53.9139 16.2294C53.892 16.2814 53.8788 16.342 53.8788 16.4113V16.7796H55.0979Z" fill="#1F1F1F"/>
<path d="M57.9616 12.1829C58.0362 12.3821 58.0712 12.6204 58.0712 12.902C58.0712 13.1837 58.0362 13.4219 57.9616 13.6169C57.887 13.8162 57.7818 13.9722 57.6327 14.0891C57.488 14.2061 57.3169 14.2884 57.1196 14.3404C56.9223 14.3924 56.6898 14.4184 56.4223 14.4184H54.5892C54.3217 14.4184 54.0893 14.3924 53.892 14.3404C53.6946 14.2884 53.5236 14.2061 53.3789 14.0891C53.2342 13.9722 53.1245 13.8162 53.05 13.6169C52.9754 13.4176 52.9403 13.1793 52.9403 12.902C52.9403 12.6204 52.9754 12.3821 53.05 12.1829C53.1245 11.9836 53.2298 11.8276 53.3789 11.7106C53.5236 11.5936 53.6946 11.507 53.892 11.455C54.0893 11.403 54.3217 11.377 54.5892 11.377H56.4223C56.6898 11.377 56.9223 11.403 57.1196 11.455C57.3169 11.507 57.488 11.5936 57.6327 11.7106C57.7774 11.8276 57.8914 11.9836 57.9616 12.1829ZM57.2292 12.902C57.2292 12.8371 57.2161 12.7851 57.1854 12.7417C57.1547 12.6984 57.1152 12.6724 57.0582 12.6508C57.0012 12.6291 56.953 12.6204 56.9047 12.6161C56.8609 12.6118 56.8039 12.6074 56.7337 12.6074H54.2779C54.2121 12.6074 54.1551 12.6118 54.1068 12.6161C54.063 12.6204 54.0104 12.6334 53.9534 12.6508C53.8964 12.6681 53.8569 12.6984 53.8262 12.7417C53.7955 12.7851 53.7823 12.8371 53.7823 12.902C53.7823 12.954 53.7911 13.0017 53.8174 13.0363C53.8393 13.0753 53.8657 13.1013 53.892 13.1187C53.9227 13.136 53.9621 13.1533 54.0104 13.162C54.063 13.1707 54.1025 13.1793 54.1375 13.1793C54.1726 13.1793 54.2165 13.1793 54.2735 13.1793H56.7293C56.7863 13.1793 56.8302 13.1793 56.8653 13.1793C56.9003 13.1793 56.9398 13.175 56.9924 13.162C57.0451 13.1533 57.0845 13.136 57.1108 13.1187C57.1415 13.1013 57.1678 13.071 57.1898 13.0363C57.2205 13.0017 57.2292 12.954 57.2292 12.902Z" fill="#1F1F1F"/>
<path d="M57.9967 10.7272H53.028V9.87366L55.155 8.97684H53.028V7.98471H57.9967V8.80355L55.6593 9.69603H57.9967V10.7272Z" fill="#1F1F1F"/>
<path d="M28.2243 11.2774V17.3515H25.6194V14.7304H25.1151V17.3515H22.5102V11.2774H25.1151V13.7772H25.6194V11.2774H28.2243Z" fill="#1F1F1F"/>
<path d="M31.3906 16.0258L31.2108 17.3515H28.6453L29.9916 11.2774H33.5131L34.8594 17.3515H32.2939L32.1141 16.0258H31.3906ZM31.5046 15.1506H31.9914L31.7502 13.5389L31.5046 15.1506Z" fill="#1F1F1F"/>
<path d="M35.276 17.3515V11.2774H37.8809V16.42H39.2799V17.3472H35.276V17.3515Z" fill="#1F1F1F"/>
<path d="M43.6959 11.2774V12.1959H42.297V13.7209H43.5995V14.6697H42.297V17.3558H39.6921V11.2774H43.6959Z" fill="#1F1F1F"/>
<path d="M20.0105 20.6355H23.146C23.5758 20.6355 23.9354 20.6572 24.2292 20.7048C24.5231 20.7525 24.7643 20.8132 24.9572 20.8868C25.1502 20.9648 25.2949 21.0514 25.4001 21.1511C25.5054 21.2507 25.5799 21.3547 25.6282 21.4674C25.6764 21.58 25.7027 21.6883 25.7115 21.801C25.7203 21.9136 25.7247 22.0219 25.7247 22.1216V23.5729C25.7247 23.6726 25.7203 23.7809 25.7115 23.8935C25.7027 24.0062 25.6764 24.1188 25.6282 24.2271C25.5799 24.3354 25.5054 24.4438 25.4001 24.5434C25.2949 24.6431 25.1502 24.734 24.9572 24.812C24.7643 24.89 24.5231 24.9507 24.2292 24.994C23.9354 25.0416 23.5714 25.0633 23.146 25.0633H22.6154V26.7096H20.0105V20.6355ZM22.6154 24.1795H23.1197V21.515H22.6154V24.1795Z" fill="#1F1F1F"/>
<path d="M29.2812 24.2401H28.7769V26.7096H26.172V20.6355H29.2637C29.7022 20.6355 30.0706 20.6572 30.3688 20.7048C30.667 20.7525 30.917 20.8175 31.1099 20.8998C31.3029 20.9821 31.4564 21.0818 31.5616 21.1944C31.6669 21.3071 31.7458 21.4327 31.794 21.5713C31.8423 21.71 31.8686 21.8529 31.8773 22.0089C31.8861 22.1649 31.8905 22.3209 31.8905 22.4812C31.8905 22.6761 31.8773 22.8407 31.8467 22.9707C31.8203 23.1007 31.7809 23.209 31.7326 23.2957C31.6844 23.3823 31.6362 23.4473 31.5791 23.4993C31.5221 23.5469 31.4651 23.5859 31.4037 23.6163C31.3336 23.6509 31.259 23.6812 31.1757 23.7072C31.0924 23.7332 31.009 23.7506 30.9257 23.7636C31.0178 23.7722 31.1231 23.7939 31.2327 23.8286C31.3423 23.8675 31.4476 23.9239 31.5441 24.0062C31.6405 24.0885 31.7239 24.1968 31.7853 24.3354C31.8467 24.4698 31.8773 24.6431 31.8773 24.8553L31.8861 26.7096H29.2812V24.2401ZM28.7769 23.3563H29.2812V21.515H28.7769V23.3563Z" fill="#1F1F1F"/>
<path d="M35.0962 20.6355V26.7096H32.4913V20.6355H35.0962Z" fill="#1F1F1F"/>
<path d="M38.9115 21.515H38.4072V25.8215H38.9115V24.0972H41.5164V25.2973C41.5164 25.3969 41.5076 25.5095 41.4945 25.6265C41.4813 25.7435 41.4419 25.8605 41.3848 25.9731C41.3278 26.0901 41.2357 26.1984 41.1173 26.3067C40.9989 26.415 40.8367 26.506 40.6262 26.5883C40.4157 26.6706 40.1526 26.7356 39.8412 26.7833C39.5254 26.8353 39.1439 26.8569 38.6922 26.8569C38.2361 26.8569 37.8502 26.8309 37.5301 26.7833C37.21 26.7356 36.9425 26.6706 36.732 26.5883C36.5171 26.506 36.3504 26.415 36.2232 26.3067C36.1005 26.1984 36.004 26.0901 35.9426 25.9731C35.8812 25.8561 35.8417 25.7392 35.8242 25.6265C35.8066 25.5095 35.7979 25.4012 35.7979 25.2973V22.0392C35.7979 21.9396 35.8066 21.8313 35.8242 21.7143C35.8417 21.5973 35.8812 21.4847 35.9426 21.372C36.004 21.2594 36.0961 21.1468 36.2189 21.0428C36.3417 20.9388 36.5127 20.8435 36.7232 20.7655C36.9381 20.6875 37.2012 20.6225 37.5213 20.5749C37.8415 20.5272 38.2274 20.5012 38.6791 20.5012C39.1308 20.5012 39.5167 20.5272 39.8324 20.5749C40.1482 20.6225 40.4113 20.6875 40.6218 20.7655C40.8323 20.8478 40.9945 20.9388 41.1173 21.0428C41.2357 21.1468 41.3278 21.2594 41.3848 21.372C41.4419 21.4847 41.4813 21.6017 41.4945 21.7143C41.5076 21.8313 41.5164 21.9396 41.5164 22.0392V23.248H38.9115V21.515Z" fill="#1F1F1F"/>
<path d="M46.1737 20.6355V21.554H44.7747V23.0487H46.0772V24.0018H44.7747V25.7782H46.1737V26.7053H42.1698V20.6355H46.1737Z" fill="#1F1F1F"/>
<defs>
<linearGradient id="paint0_linear_3_797" x1="23.0711" y1="42.2154" x2="68.7184" y2="-12.7011" gradientUnits="userSpaceOnUse">
<stop offset="8e-08" stop-color="#FDC16E"/>
<stop offset="0.385" stop-color="#FFD862"/>
<stop offset="0.7703" stop-color="#FFEA54"/>
<stop offset="1" stop-color="#FFF34D"/>
</linearGradient>
<linearGradient id="paint1_linear_3_797" x1="5.07108" y1="42.2154" x2="50.7184" y2="-12.7011" gradientUnits="userSpaceOnUse">
<stop offset="8e-08" stop-color="#FDC16E"/>
<stop offset="0.385" stop-color="#FFD862"/>
<stop offset="0.7703" stop-color="#FFEA54"/>
<stop offset="1" stop-color="#FFF34D"/>
</linearGradient>
</defs>
</svg>
