<svg width="24" height="25" viewBox="0 0 24 25" fill="none" xmlns="http://www.w3.org/2000/svg">
<path d="M12 24.4824C18.6274 24.4824 24 19.1098 24 12.4824C24 5.855 18.6274 0.482422 12 0.482422C5.37258 0.482422 0 5.855 0 12.4824C0 19.1098 5.37258 24.4824 12 24.4824Z" fill="url(#paint0_linear_1_964)"/>
<path d="M12 24.1684C18.454 24.1684 23.6859 18.9364 23.6859 12.4824C23.6859 6.02845 18.454 0.796476 12 0.796476C5.54603 0.796476 0.314054 6.02845 0.314054 12.4824C0.314054 18.9364 5.54603 24.1684 12 24.1684Z" fill="url(#paint1_linear_1_964)"/>
<path d="M18.9586 5.52381C17.1777 3.74292 14.7176 2.64158 12.0001 2.64158C9.2827 2.64158 6.82242 3.74307 5.04167 5.52395C3.26079 7.30484 2.1593 9.76498 2.1593 12.4824C2.1593 15.1999 3.26079 17.6601 5.04167 19.4409C6.82256 21.2218 9.2827 22.3233 12.0001 22.3233C14.7176 22.3233 17.1779 21.2218 18.9586 19.4409C20.7395 17.66 21.8408 15.1999 21.8408 12.4824C21.8408 9.76498 20.7394 7.30455 18.9586 5.52381Z" fill="url(#paint2_linear_1_964)" style="mix-blend-mode:multiply"/>
<path d="M12 3.27012V3.04327C9.39347 3.04327 7.03361 4.09979 5.32556 5.80798L5.48603 5.96846C7.15314 4.30135 9.45625 3.27026 12.0001 3.27026L12 3.27012Z" fill="#FAA41A"/>
<path d="M21.2123 12.4824H21.4391C21.4391 9.87589 20.3826 7.51603 18.6744 5.80798L18.514 5.96846C20.1811 7.63556 21.2122 9.93867 21.2122 12.4826L21.2123 12.4824Z" fill="#FAA41A"/>
<path d="M2.78784 12.4824H2.56099C2.56099 15.089 3.61751 17.4488 5.3257 19.1569L5.48618 18.9964C3.81908 17.3293 2.78798 15.0262 2.78798 12.4823L2.78784 12.4824Z" fill="#FAA41A"/>
<path d="M12 21.6946V21.9214C14.6065 21.9214 16.9664 20.8649 18.6744 19.1567L18.514 18.9962C16.8469 20.6633 14.5438 21.6944 11.9999 21.6944L12 21.6946Z" fill="#FAA41A"/>
<path d="M5.48603 5.96846L5.32556 5.80798C3.61737 7.51617 2.56085 9.87574 2.56085 12.4823H2.7877C2.7877 9.93838 3.81879 7.63527 5.48589 5.96817L5.48603 5.96846Z" fill="#FDBB5F"/>
<path d="M18.5141 5.96831L18.6746 5.80784C16.9664 4.09965 14.6067 3.04313 12.0001 3.04313V3.26998C14.544 3.26998 16.8471 4.30107 18.5143 5.96817L18.5141 5.96831Z" fill="#FDBB5F"/>
<path d="M21.4391 12.4824H21.2123C21.2123 15.0263 20.1812 17.3294 18.5141 18.9965L18.6746 19.157C20.3828 17.4488 21.4393 15.0891 21.4393 12.4826L21.4391 12.4824Z" fill="#FDBB5F"/>
<path d="M5.48618 18.9964L5.3257 19.1569C7.03389 20.8651 9.39347 21.9214 12 21.9214V21.6946C9.4561 21.6946 7.15299 20.6636 5.48589 18.9965L5.48618 18.9964Z" fill="#FDBB5F"/>
<path d="M12 12.4824L5.48603 5.96846C7.15314 4.30135 9.45625 3.27026 12.0001 3.27026L12 12.4824ZM2.78784 12.4824C2.78784 15.0263 3.81879 17.3294 5.48589 18.9965L12 12.4824H2.78784ZM12 12.4824H21.2123C21.2123 9.93853 20.1812 7.63541 18.5141 5.96831L12 12.4824ZM12 21.6946C14.5439 21.6946 16.847 20.6636 18.5141 18.9965L12 12.4824L12 21.6946Z" fill="url(#paint3_radial_1_964)"/>
<path d="M12 12.4824H2.78784C2.78784 9.93853 3.81893 7.63556 5.48603 5.96846L12 12.4824ZM18.5141 5.96831C16.847 4.30121 14.5439 3.27012 12 3.27012V12.4824L18.5141 5.96831ZM18.5141 18.9965C20.1812 17.3294 21.2123 15.0263 21.2123 12.4824H12L18.5141 18.9965ZM5.48618 18.9964C7.15328 20.6635 9.4561 21.6946 12 21.6946L12 12.4824L5.48589 18.9965L5.48618 18.9964Z" fill="url(#paint4_radial_1_964)"/>
<defs>
<linearGradient id="paint0_linear_1_964" x1="8.89336" y1="24.0764" x2="15.1066" y2="0.888279" gradientUnits="userSpaceOnUse">
<stop stop-color="#5B57A6"/>
<stop offset="0.4" stop-color="#EE4599"/>
<stop offset="0.7" stop-color="#FAD3E4"/>
<stop offset="1" stop-color="#FFFCD5"/>
</linearGradient>
<linearGradient id="paint1_linear_1_964" x1="8.89338" y1="24.0764" x2="15.1066" y2="0.888416" gradientUnits="userSpaceOnUse">
<stop stop-color="#9B95C9"/>
<stop offset="0.4" stop-color="#F06DA9"/>
<stop offset="0.7" stop-color="#F8BFD8"/>
<stop offset="1" stop-color="#FFF78F"/>
</linearGradient>
<linearGradient id="paint2_linear_1_964" x1="8.89329" y1="24.0763" x2="15.1065" y2="0.888309" gradientUnits="userSpaceOnUse">
<stop stop-color="#6D68AF"/>
<stop offset="0.4" stop-color="#EE4599"/>
<stop offset="0.7" stop-color="#F5A2C6"/>
<stop offset="1" stop-color="#FFF32A"/>
</linearGradient>
<radialGradient id="paint3_radial_1_964" cx="0" cy="0" r="1" gradientUnits="userSpaceOnUse" gradientTransform="translate(12 12.4824) scale(12)">
<stop stop-color="#FFF34D"/>
<stop offset="0.29" stop-color="#FEE953"/>
<stop offset="0.78" stop-color="#FDCF64"/>
<stop offset="1" stop-color="#FDC16E"/>
</radialGradient>
<radialGradient id="paint4_radial_1_964" cx="0" cy="0" r="1" gradientUnits="userSpaceOnUse" gradientTransform="translate(12 12.4824) scale(9.2123)">
<stop stop-color="#FFFEF2"/>
<stop offset="0.46" stop-color="#FFF8E8"/>
<stop offset="1" stop-color="#FFEED7"/>
</radialGradient>
</defs>
</svg>
