<svg width="13" height="13" viewBox="0 0 13 13" fill="none" xmlns="http://www.w3.org/2000/svg">
<path d="M7.1 7.58242H5.9V3.98242H7.1M7.1 9.98242H5.9V8.78242H7.1M6.5 0.982422C5.71207 0.982422 4.93185 1.13762 4.2039 1.43914C3.47595 1.74067 2.81451 2.18263 2.25736 2.73978C1.13214 3.865 0.5 5.39112 0.5 6.98242C0.5 8.57372 1.13214 10.0998 2.25736 11.2251C2.81451 11.7822 3.47595 12.2242 4.2039 12.5257C4.93185 12.8272 5.71207 12.9824 6.5 12.9824C8.0913 12.9824 9.61742 12.3503 10.7426 11.2251C11.8679 10.0998 12.5 8.57372 12.5 6.98242C12.5 6.19449 12.3448 5.41427 12.0433 4.68632C11.7417 3.95837 11.2998 3.29693 10.7426 2.73978C10.1855 2.18263 9.52405 1.74067 8.7961 1.43914C8.06815 1.13762 7.28793 0.982422 6.5 0.982422Z" fill="#E41414"/>
</svg>
