<svg width="78" height="35" viewBox="0 0 78 35" fill="none" xmlns="http://www.w3.org/2000/svg">
<g filter="url(#filter0_b_535_8521)">
<rect x="0.5" width="77" height="35" rx="17.5" fill="url(#paint0_linear_535_8521)"/>
<g filter="url(#filter1_d_535_8521)">
<path d="M25.1733 11.3636H27.929L30.5824 16.375H30.696L33.3494 11.3636H36.1051L31.8608 18.8864V23H29.4176V18.8864L25.1733 11.3636ZM39.5526 23.1705C38.6548 23.1705 37.8821 22.9886 37.2344 22.625C36.5904 22.2576 36.0942 21.7386 35.7457 21.0682C35.3973 20.3939 35.223 19.5966 35.223 18.6761C35.223 17.7784 35.3973 16.9905 35.7457 16.3125C36.0942 15.6345 36.5848 15.1061 37.2173 14.7273C37.8537 14.3485 38.5999 14.1591 39.456 14.1591C40.0317 14.1591 40.5677 14.2519 41.0639 14.4375C41.5639 14.6193 41.9995 14.8939 42.3707 15.2614C42.7457 15.6288 43.0374 16.0909 43.2457 16.6477C43.4541 17.2008 43.5582 17.8485 43.5582 18.5909V19.2557H36.1889V17.7557H41.2798C41.2798 17.4072 41.2041 17.0985 41.0526 16.8295C40.901 16.5606 40.6908 16.3504 40.4219 16.1989C40.1567 16.0436 39.848 15.9659 39.4957 15.9659C39.1283 15.9659 38.8026 16.0511 38.5185 16.2216C38.2382 16.3883 38.0185 16.6136 37.8594 16.8977C37.7003 17.178 37.6188 17.4905 37.6151 17.8352V19.2614C37.6151 19.6932 37.6946 20.0663 37.8537 20.3807C38.0166 20.6951 38.2457 20.9375 38.5412 21.108C38.8366 21.2784 39.187 21.3636 39.5923 21.3636C39.8613 21.3636 40.1075 21.3258 40.331 21.25C40.5545 21.1742 40.7457 21.0606 40.9048 20.9091C41.0639 20.7576 41.1851 20.572 41.2685 20.3523L43.5071 20.5C43.3935 21.0379 43.1605 21.5076 42.8082 21.9091C42.4598 22.3068 42.009 22.6174 41.456 22.8409C40.9067 23.0606 40.2723 23.1705 39.5526 23.1705ZM52.3991 16.7614L50.1832 16.8977C50.1454 16.7083 50.0639 16.5379 49.9389 16.3864C49.8139 16.2311 49.6491 16.108 49.4446 16.017C49.2438 15.9223 49.0033 15.875 48.723 15.875C48.348 15.875 48.0317 15.9545 47.7741 16.1136C47.5166 16.2689 47.3878 16.4773 47.3878 16.7386C47.3878 16.947 47.4711 17.1231 47.6378 17.267C47.8045 17.411 48.0904 17.5265 48.4957 17.6136L50.0753 17.9318C50.9238 18.1061 51.5563 18.3864 51.973 18.7727C52.3897 19.1591 52.598 19.6667 52.598 20.2955C52.598 20.8674 52.4295 21.3693 52.0923 21.8011C51.759 22.233 51.3007 22.5701 50.7173 22.8125C50.1378 23.0511 49.4692 23.1705 48.7116 23.1705C47.5563 23.1705 46.6359 22.9299 45.9503 22.4489C45.2685 21.964 44.8688 21.3049 44.7514 20.4716L47.1321 20.3466C47.2041 20.6989 47.3783 20.9678 47.6548 21.1534C47.9313 21.3352 48.2855 21.4261 48.7173 21.4261C49.1416 21.4261 49.4825 21.3447 49.7401 21.1818C50.0014 21.0152 50.134 20.8011 50.1378 20.5398C50.134 20.3201 50.0412 20.1402 49.8594 20C49.6776 19.8561 49.3973 19.7462 49.0185 19.6705L47.5071 19.3693C46.6548 19.1989 46.0204 18.9034 45.6037 18.483C45.1908 18.0625 44.9844 17.5265 44.9844 16.875C44.9844 16.3144 45.1359 15.8314 45.4389 15.4261C45.7457 15.0208 46.1757 14.7083 46.7287 14.4886C47.2855 14.2689 47.937 14.1591 48.6832 14.1591C49.7855 14.1591 50.6529 14.392 51.2855 14.858C51.9219 15.3239 52.2931 15.9583 52.3991 16.7614Z" fill="white"/>
</g>
<rect x="1" y="0.5" width="76" height="34" rx="17" stroke="white" style="mix-blend-mode:overlay"/>
</g>
<defs>
<filter id="filter0_b_535_8521" x="-59.5" y="-60" width="197" height="155" filterUnits="userSpaceOnUse" color-interpolation-filters="sRGB">
<feFlood flood-opacity="0" result="BackgroundImageFix"/>
<feGaussianBlur in="BackgroundImageFix" stdDeviation="30"/>
<feComposite in2="SourceAlpha" operator="in" result="effect1_backgroundBlur_535_8521"/>
<feBlend mode="normal" in="SourceGraphic" in2="effect1_backgroundBlur_535_8521" result="shape"/>
</filter>
<filter id="filter1_d_535_8521" x="21.1733" y="11.3636" width="35.4247" height="19.8068" filterUnits="userSpaceOnUse" color-interpolation-filters="sRGB">
<feFlood flood-opacity="0" result="BackgroundImageFix"/>
<feColorMatrix in="SourceAlpha" type="matrix" values="0 0 0 0 0 0 0 0 0 0 0 0 0 0 0 0 0 0 127 0" result="hardAlpha"/>
<feOffset dy="4"/>
<feGaussianBlur stdDeviation="2"/>
<feComposite in2="hardAlpha" operator="out"/>
<feColorMatrix type="matrix" values="0 0 0 0 0 0 0 0 0 0 0 0 0 0 0 0 0 0 0.25 0"/>
<feBlend mode="normal" in2="BackgroundImageFix" result="effect1_dropShadow_535_8521"/>
<feBlend mode="normal" in="SourceGraphic" in2="effect1_dropShadow_535_8521" result="shape"/>
</filter>
<linearGradient id="paint0_linear_535_8521" x1="39" y1="-2.63047" x2="39" y2="21.5607" gradientUnits="userSpaceOnUse">
<stop stop-color="#200249"/>
<stop offset="1" stop-color="#901576"/>
</linearGradient>
</defs>
</svg>
